<?xml version="1.0" encoding="utf-8" standalone="no"?>
<!DOCTYPE svg PUBLIC "-//W3C//DTD SVG 1.1//EN"
  "http://www.w3.org/Graphics/SVG/1.1/DTD/svg11.dtd">
<!-- Created with matplotlib (https://matplotlib.org/) -->
<svg height="720pt" version="1.1" viewBox="0 0 360 720" width="360pt" xmlns="http://www.w3.org/2000/svg" xmlns:xlink="http://www.w3.org/1999/xlink">
 <metadata>
  <rdf:RDF xmlns:cc="http://creativecommons.org/ns#" xmlns:dc="http://purl.org/dc/elements/1.1/" xmlns:rdf="http://www.w3.org/1999/02/22-rdf-syntax-ns#">
   <cc:Work>
    <dc:type rdf:resource="http://purl.org/dc/dcmitype/StillImage"/>
    <dc:date>2020-09-19T23:32:19.828389</dc:date>
    <dc:format>image/svg+xml</dc:format>
    <dc:creator>
     <cc:Agent>
      <dc:title>Matplotlib v3.3.1, https://matplotlib.org/</dc:title>
     </cc:Agent>
    </dc:creator>
   </cc:Work>
  </rdf:RDF>
 </metadata>
 <defs>
  <style type="text/css">*{stroke-linecap:butt;stroke-linejoin:round;}</style>
 </defs>
 <g id="figure_1">
  <g id="patch_1">
   <path d="M 0 720 
L 360 720 
L 360 0 
L 0 0 
z
" style="fill:none;"/>
  </g>
  <g id="axes_1">
   <g id="patch_2">
    <path d="M 45 132.467797 
L 324 132.467797 
L 324 86.4 
L 45 86.4 
z
" style="fill:none;"/>
   </g>
   <g id="matplotlib.axis_1">
    <g id="xtick_1">
     <g id="line2d_1">
      <defs>
       <path d="M 0 0 
L 0 3.5 
" id="m3a34b89393" style="stroke:#000000;stroke-width:0.8;"/>
      </defs>
      <g>
       <use style="stroke:#000000;stroke-width:0.8;" x="57.681818" xlink:href="#m3a34b89393" y="132.467797"/>
      </g>
     </g>
     <g id="text_1">
      <!-- 0 -->
      <g transform="translate(54.500568 147.066234)scale(0.1 -0.1)">
       <defs>
        <path d="M 31.78125 66.40625 
Q 24.171875 66.40625 20.328125 58.90625 
Q 16.5 51.421875 16.5 36.375 
Q 16.5 21.390625 20.328125 13.890625 
Q 24.171875 6.390625 31.78125 6.390625 
Q 39.453125 6.390625 43.28125 13.890625 
Q 47.125 21.390625 47.125 36.375 
Q 47.125 51.421875 43.28125 58.90625 
Q 39.453125 66.40625 31.78125 66.40625 
z
M 31.78125 74.21875 
Q 44.046875 74.21875 50.515625 64.515625 
Q 56.984375 54.828125 56.984375 36.375 
Q 56.984375 17.96875 50.515625 8.265625 
Q 44.046875 -1.421875 31.78125 -1.421875 
Q 19.53125 -1.421875 13.0625 8.265625 
Q 6.59375 17.96875 6.59375 36.375 
Q 6.59375 54.828125 13.0625 64.515625 
Q 19.53125 74.21875 31.78125 74.21875 
z
" id="DejaVuSans-48"/>
       </defs>
       <use xlink:href="#DejaVuSans-48"/>
      </g>
     </g>
    </g>
    <g id="xtick_2">
     <g id="line2d_2">
      <g>
       <use style="stroke:#000000;stroke-width:0.8;" x="113.548859" xlink:href="#m3a34b89393" y="132.467797"/>
      </g>
     </g>
     <g id="text_2">
      <!-- 50 -->
      <g transform="translate(107.186359 147.066234)scale(0.1 -0.1)">
       <defs>
        <path d="M 10.796875 72.90625 
L 49.515625 72.90625 
L 49.515625 64.59375 
L 19.828125 64.59375 
L 19.828125 46.734375 
Q 21.96875 47.46875 24.109375 47.828125 
Q 26.265625 48.1875 28.421875 48.1875 
Q 40.625 48.1875 47.75 41.5 
Q 54.890625 34.8125 54.890625 23.390625 
Q 54.890625 11.625 47.5625 5.09375 
Q 40.234375 -1.421875 26.90625 -1.421875 
Q 22.3125 -1.421875 17.546875 -0.640625 
Q 12.796875 0.140625 7.71875 1.703125 
L 7.71875 11.625 
Q 12.109375 9.234375 16.796875 8.0625 
Q 21.484375 6.890625 26.703125 6.890625 
Q 35.15625 6.890625 40.078125 11.328125 
Q 45.015625 15.765625 45.015625 23.390625 
Q 45.015625 31 40.078125 35.4375 
Q 35.15625 39.890625 26.703125 39.890625 
Q 22.75 39.890625 18.8125 39.015625 
Q 14.890625 38.140625 10.796875 36.28125 
z
" id="DejaVuSans-53"/>
       </defs>
       <use xlink:href="#DejaVuSans-53"/>
       <use x="63.623047" xlink:href="#DejaVuSans-48"/>
      </g>
     </g>
    </g>
    <g id="xtick_3">
     <g id="line2d_3">
      <g>
       <use style="stroke:#000000;stroke-width:0.8;" x="169.415899" xlink:href="#m3a34b89393" y="132.467797"/>
      </g>
     </g>
     <g id="text_3">
      <!-- 100 -->
      <g transform="translate(159.872149 147.066234)scale(0.1 -0.1)">
       <defs>
        <path d="M 12.40625 8.296875 
L 28.515625 8.296875 
L 28.515625 63.921875 
L 10.984375 60.40625 
L 10.984375 69.390625 
L 28.421875 72.90625 
L 38.28125 72.90625 
L 38.28125 8.296875 
L 54.390625 8.296875 
L 54.390625 0 
L 12.40625 0 
z
" id="DejaVuSans-49"/>
       </defs>
       <use xlink:href="#DejaVuSans-49"/>
       <use x="63.623047" xlink:href="#DejaVuSans-48"/>
       <use x="127.246094" xlink:href="#DejaVuSans-48"/>
      </g>
     </g>
    </g>
    <g id="xtick_4">
     <g id="line2d_4">
      <g>
       <use style="stroke:#000000;stroke-width:0.8;" x="225.28294" xlink:href="#m3a34b89393" y="132.467797"/>
      </g>
     </g>
     <g id="text_4">
      <!-- 150 -->
      <g transform="translate(215.73919 147.066234)scale(0.1 -0.1)">
       <use xlink:href="#DejaVuSans-49"/>
       <use x="63.623047" xlink:href="#DejaVuSans-53"/>
       <use x="127.246094" xlink:href="#DejaVuSans-48"/>
      </g>
     </g>
    </g>
    <g id="xtick_5">
     <g id="line2d_5">
      <g>
       <use style="stroke:#000000;stroke-width:0.8;" x="281.14998" xlink:href="#m3a34b89393" y="132.467797"/>
      </g>
     </g>
     <g id="text_5">
      <!-- 200 -->
      <g transform="translate(271.60623 147.066234)scale(0.1 -0.1)">
       <defs>
        <path d="M 19.1875 8.296875 
L 53.609375 8.296875 
L 53.609375 0 
L 7.328125 0 
L 7.328125 8.296875 
Q 12.9375 14.109375 22.625 23.890625 
Q 32.328125 33.6875 34.8125 36.53125 
Q 39.546875 41.84375 41.421875 45.53125 
Q 43.3125 49.21875 43.3125 52.78125 
Q 43.3125 58.59375 39.234375 62.25 
Q 35.15625 65.921875 28.609375 65.921875 
Q 23.96875 65.921875 18.8125 64.3125 
Q 13.671875 62.703125 7.8125 59.421875 
L 7.8125 69.390625 
Q 13.765625 71.78125 18.9375 73 
Q 24.125 74.21875 28.421875 74.21875 
Q 39.75 74.21875 46.484375 68.546875 
Q 53.21875 62.890625 53.21875 53.421875 
Q 53.21875 48.921875 51.53125 44.890625 
Q 49.859375 40.875 45.40625 35.40625 
Q 44.1875 33.984375 37.640625 27.21875 
Q 31.109375 20.453125 19.1875 8.296875 
z
" id="DejaVuSans-50"/>
       </defs>
       <use xlink:href="#DejaVuSans-50"/>
       <use x="63.623047" xlink:href="#DejaVuSans-48"/>
       <use x="127.246094" xlink:href="#DejaVuSans-48"/>
      </g>
     </g>
    </g>
   </g>
   <g id="matplotlib.axis_2">
    <g id="ytick_1">
     <g id="line2d_6">
      <defs>
       <path d="M 0 0 
L -3.5 0 
" id="m372a6ded50" style="stroke:#000000;stroke-width:0.8;"/>
      </defs>
      <g>
       <use style="stroke:#000000;stroke-width:0.8;" x="45" xlink:href="#m372a6ded50" y="130.373806"/>
      </g>
     </g>
     <g id="text_6">
      <!-- 0 -->
      <g transform="translate(31.6375 134.173025)scale(0.1 -0.1)">
       <use xlink:href="#DejaVuSans-48"/>
      </g>
     </g>
    </g>
    <g id="ytick_2">
     <g id="line2d_7">
      <g>
       <use style="stroke:#000000;stroke-width:0.8;" x="45" xlink:href="#m372a6ded50" y="93.496388"/>
      </g>
     </g>
     <g id="text_7">
      <!-- 500000 -->
      <g transform="translate(-0.175 97.295607)scale(0.1 -0.1)">
       <use xlink:href="#DejaVuSans-53"/>
       <use x="63.623047" xlink:href="#DejaVuSans-48"/>
       <use x="127.246094" xlink:href="#DejaVuSans-48"/>
       <use x="190.869141" xlink:href="#DejaVuSans-48"/>
       <use x="254.492188" xlink:href="#DejaVuSans-48"/>
       <use x="318.115234" xlink:href="#DejaVuSans-48"/>
      </g>
     </g>
    </g>
   </g>
   <g id="line2d_8">
    <path clip-path="url(#p535934e767)" d="M 57.681818 130.373806 
L 74.44193 130.266139 
L 75.559271 130.126967 
L 76.676612 129.845414 
L 77.793953 129.321773 
L 78.911294 128.434804 
L 80.028634 127.069454 
L 81.145975 125.159362 
L 82.263316 122.714803 
L 83.380657 119.808192 
L 84.497998 116.505685 
L 85.615338 112.789348 
L 86.732679 108.556618 
L 90.084702 93.683079 
L 91.202042 90.000205 
L 92.319383 88.493991 
L 93.436724 89.698976 
L 94.554065 93.469055 
L 95.671406 99.03183 
L 97.906087 111.283208 
L 99.023428 116.295471 
L 100.140769 120.074298 
L 101.25811 122.665723 
L 102.375451 124.282796 
L 103.492791 125.178307 
L 104.610132 125.570383 
L 105.727473 125.620578 
L 106.844814 125.439967 
L 109.079495 124.678113 
L 111.314177 123.619056 
L 112.431518 122.949078 
L 113.548859 122.101042 
L 114.666199 120.985217 
L 115.78354 119.525848 
L 116.900881 117.707672 
L 119.135563 113.518627 
L 120.252903 111.741325 
L 121.370244 110.689422 
L 122.487585 110.667787 
L 123.604926 111.771756 
L 124.722267 113.836359 
L 128.074289 121.752106 
L 129.19163 123.71372 
L 130.308971 125.036116 
L 131.426312 125.68928 
L 132.543652 125.625972 
L 133.660993 124.720016 
L 134.778334 122.778719 
L 135.895675 119.641412 
L 137.013016 115.339184 
L 139.247697 105.102607 
L 140.365038 100.900604 
L 141.482379 98.549316 
L 142.59972 98.557099 
L 143.71706 100.841733 
L 144.834401 104.788171 
L 147.069083 114.167576 
L 148.186424 118.179184 
L 149.303765 121.279301 
L 150.421105 123.434837 
L 151.538446 124.718855 
L 152.655787 125.214802 
L 153.773128 124.984382 
L 154.890469 124.084754 
L 156.007809 122.602146 
L 157.12515 120.677713 
L 159.359832 116.352143 
L 160.477173 114.481465 
L 161.594513 113.179632 
L 162.711854 112.677981 
L 163.829195 113.098461 
L 164.946536 114.40635 
L 166.063877 116.40083 
L 168.298558 121.084096 
L 169.415899 123.051224 
L 170.53324 124.423691 
L 171.650581 125.116993 
L 172.767922 125.184036 
L 173.885262 124.77073 
L 176.119944 123.244447 
L 177.237285 122.484089 
L 178.354626 121.926831 
L 179.471966 121.683369 
L 180.589307 121.805639 
L 181.706648 122.267125 
L 183.94133 123.776883 
L 186.176011 125.249007 
L 187.293352 125.793512 
L 188.410693 126.185267 
L 189.528034 126.404 
L 190.645374 126.395899 
L 191.762715 126.063774 
L 192.880056 125.279741 
L 193.997397 123.918867 
L 195.114738 121.908401 
L 196.232078 119.273363 
L 200.701442 106.86065 
L 201.818783 104.82984 
L 202.936123 103.725392 
L 204.053464 103.629304 
L 205.170805 104.504909 
L 206.288146 106.204063 
L 207.405487 108.493639 
L 210.757509 116.321633 
L 211.87485 118.61464 
L 212.992191 120.589089 
L 214.109531 122.208076 
L 215.226872 123.445715 
L 216.344213 124.2869 
L 217.461554 124.740089 
L 218.578895 124.85228 
L 219.696235 124.716082 
L 221.930917 124.237646 
L 223.048258 124.174567 
L 224.165599 124.350302 
L 225.28294 124.758726 
L 227.517621 125.772034 
L 228.634962 125.947126 
L 229.752303 125.597453 
L 230.869644 124.591971 
L 231.986984 122.961356 
L 234.221666 118.857581 
L 235.339007 117.179432 
L 236.456348 116.2367 
L 237.573688 116.195288 
L 238.691029 117.009257 
L 239.80837 118.464218 
L 243.160392 123.882301 
L 244.277733 125.368263 
L 245.395074 126.551825 
L 246.512415 127.427251 
L 247.629756 128.008149 
L 248.747097 128.313248 
L 249.864437 128.360086 
L 250.981778 128.168657 
L 252.099119 127.769358 
L 254.333801 126.577696 
L 256.568482 125.471032 
L 257.685823 125.188833 
L 258.803164 125.161056 
L 259.920505 125.3839 
L 262.155186 126.346392 
L 264.389868 127.322022 
L 265.507209 127.483109 
L 266.624549 127.206164 
L 267.74189 126.316047 
L 268.859231 124.67968 
L 269.976572 122.273368 
L 272.211254 115.916901 
L 273.328594 112.753656 
L 274.445935 110.229648 
L 275.563276 108.719011 
L 276.680617 108.410088 
L 277.797958 109.285714 
L 278.915298 111.158761 
L 280.032639 113.734989 
L 283.384662 122.411991 
L 284.502002 124.748405 
L 285.619343 126.584953 
L 286.736684 127.929771 
L 287.854025 128.854442 
L 288.971366 129.458344 
L 290.088706 129.837815 
L 292.323388 130.207626 
L 295.67541 130.35422 
L 307.966159 130.373801 
L 311.318182 130.373806 
L 311.318182 130.373806 
" style="fill:none;stroke:#1f77b4;stroke-linecap:square;stroke-width:1.5;"/>
   </g>
   <g id="patch_3">
    <path d="M 45 132.467797 
L 45 86.4 
" style="fill:none;stroke:#000000;stroke-linecap:square;stroke-linejoin:miter;stroke-width:0.8;"/>
   </g>
   <g id="patch_4">
    <path d="M 324 132.467797 
L 324 86.4 
" style="fill:none;stroke:#000000;stroke-linecap:square;stroke-linejoin:miter;stroke-width:0.8;"/>
   </g>
   <g id="patch_5">
    <path d="M 45 132.467797 
L 324 132.467797 
" style="fill:none;stroke:#000000;stroke-linecap:square;stroke-linejoin:miter;stroke-width:0.8;"/>
   </g>
   <g id="patch_6">
    <path d="M 45 86.4 
L 324 86.4 
" style="fill:none;stroke:#000000;stroke-linecap:square;stroke-linejoin:miter;stroke-width:0.8;"/>
   </g>
  </g>
  <g id="axes_2">
   <g id="patch_7">
    <path d="M 45 187.749153 
L 324 187.749153 
L 324 141.681356 
L 45 141.681356 
z
" style="fill:none;"/>
   </g>
   <g id="matplotlib.axis_3">
    <g id="xtick_6">
     <g id="line2d_9">
      <g>
       <use style="stroke:#000000;stroke-width:0.8;" x="57.681818" xlink:href="#m3a34b89393" y="187.749153"/>
      </g>
     </g>
     <g id="text_8">
      <!-- 0 -->
      <g transform="translate(54.500568 202.34759)scale(0.1 -0.1)">
       <use xlink:href="#DejaVuSans-48"/>
      </g>
     </g>
    </g>
    <g id="xtick_7">
     <g id="line2d_10">
      <g>
       <use style="stroke:#000000;stroke-width:0.8;" x="113.548859" xlink:href="#m3a34b89393" y="187.749153"/>
      </g>
     </g>
     <g id="text_9">
      <!-- 50 -->
      <g transform="translate(107.186359 202.34759)scale(0.1 -0.1)">
       <use xlink:href="#DejaVuSans-53"/>
       <use x="63.623047" xlink:href="#DejaVuSans-48"/>
      </g>
     </g>
    </g>
    <g id="xtick_8">
     <g id="line2d_11">
      <g>
       <use style="stroke:#000000;stroke-width:0.8;" x="169.415899" xlink:href="#m3a34b89393" y="187.749153"/>
      </g>
     </g>
     <g id="text_10">
      <!-- 100 -->
      <g transform="translate(159.872149 202.34759)scale(0.1 -0.1)">
       <use xlink:href="#DejaVuSans-49"/>
       <use x="63.623047" xlink:href="#DejaVuSans-48"/>
       <use x="127.246094" xlink:href="#DejaVuSans-48"/>
      </g>
     </g>
    </g>
    <g id="xtick_9">
     <g id="line2d_12">
      <g>
       <use style="stroke:#000000;stroke-width:0.8;" x="225.28294" xlink:href="#m3a34b89393" y="187.749153"/>
      </g>
     </g>
     <g id="text_11">
      <!-- 150 -->
      <g transform="translate(215.73919 202.34759)scale(0.1 -0.1)">
       <use xlink:href="#DejaVuSans-49"/>
       <use x="63.623047" xlink:href="#DejaVuSans-53"/>
       <use x="127.246094" xlink:href="#DejaVuSans-48"/>
      </g>
     </g>
    </g>
    <g id="xtick_10">
     <g id="line2d_13">
      <g>
       <use style="stroke:#000000;stroke-width:0.8;" x="281.14998" xlink:href="#m3a34b89393" y="187.749153"/>
      </g>
     </g>
     <g id="text_12">
      <!-- 200 -->
      <g transform="translate(271.60623 202.34759)scale(0.1 -0.1)">
       <use xlink:href="#DejaVuSans-50"/>
       <use x="63.623047" xlink:href="#DejaVuSans-48"/>
       <use x="127.246094" xlink:href="#DejaVuSans-48"/>
      </g>
     </g>
    </g>
   </g>
   <g id="matplotlib.axis_4">
    <g id="ytick_3">
     <g id="line2d_14">
      <g>
       <use style="stroke:#000000;stroke-width:0.8;" x="45" xlink:href="#m372a6ded50" y="185.655162"/>
      </g>
     </g>
     <g id="text_13">
      <!-- 0 -->
      <g transform="translate(31.6375 189.454381)scale(0.1 -0.1)">
       <use xlink:href="#DejaVuSans-48"/>
      </g>
     </g>
    </g>
    <g id="ytick_4">
     <g id="line2d_15">
      <g>
       <use style="stroke:#000000;stroke-width:0.8;" x="45" xlink:href="#m372a6ded50" y="162.299731"/>
      </g>
     </g>
     <g id="text_14">
      <!-- 250000 -->
      <g transform="translate(-0.175 166.09895)scale(0.1 -0.1)">
       <use xlink:href="#DejaVuSans-50"/>
       <use x="63.623047" xlink:href="#DejaVuSans-53"/>
       <use x="127.246094" xlink:href="#DejaVuSans-48"/>
       <use x="190.869141" xlink:href="#DejaVuSans-48"/>
       <use x="254.492188" xlink:href="#DejaVuSans-48"/>
       <use x="318.115234" xlink:href="#DejaVuSans-48"/>
      </g>
     </g>
    </g>
   </g>
   <g id="line2d_16">
    <path clip-path="url(#p0aa5b1db91)" d="M 57.681818 185.655162 
L 73.32459 185.544116 
L 74.44193 185.403773 
L 75.559271 185.101777 
L 76.676612 184.496608 
L 77.793953 183.381494 
L 78.911294 181.512412 
L 80.028634 178.682637 
L 81.145975 174.83689 
L 83.380657 165.121131 
L 84.497998 160.254993 
L 85.615338 156.014632 
L 86.732679 152.557181 
L 87.85002 149.770603 
L 88.967361 147.494349 
L 90.084702 145.783718 
L 91.202042 145.005052 
L 92.319383 145.667768 
L 93.436724 148.102115 
L 94.554065 152.207204 
L 97.906087 168.123993 
L 99.023428 172.337546 
L 100.140769 175.433161 
L 101.25811 177.45758 
L 102.375451 178.588758 
L 103.492791 179.040407 
L 104.610132 179.009021 
L 105.727473 178.664672 
L 110.196836 176.720534 
L 111.314177 176.312284 
L 112.431518 175.718265 
L 113.548859 174.666286 
L 114.666199 172.846516 
L 115.78354 169.992374 
L 116.900881 165.988503 
L 118.018222 160.985168 
L 120.252903 150.235615 
L 121.370244 146.219584 
L 122.487585 144.2287 
L 123.604926 144.668259 
L 124.722267 147.3923 
L 125.839608 151.758796 
L 128.074289 161.868754 
L 129.19163 166.183505 
L 130.308971 169.558165 
L 131.426312 171.949561 
L 132.543652 173.342302 
L 133.660993 173.609179 
L 134.778334 172.500064 
L 135.895675 169.773936 
L 137.013016 165.423309 
L 140.365038 149.133368 
L 141.482379 146.259234 
L 142.59972 146.043429 
L 143.71706 148.402492 
L 144.834401 152.640392 
L 147.069083 162.916505 
L 148.186424 167.479187 
L 149.303765 171.223566 
L 150.421105 174.124903 
L 151.538446 176.219226 
L 152.655787 177.504042 
L 153.773128 177.920419 
L 154.890469 177.389295 
L 156.007809 175.865572 
L 157.12515 173.391103 
L 158.242491 170.136254 
L 160.477173 162.768129 
L 161.594513 159.736859 
L 162.711854 157.907027 
L 163.829195 157.666161 
L 164.946536 159.093828 
L 166.063877 161.926067 
L 169.415899 173.08043 
L 170.53324 175.817996 
L 171.650581 177.587992 
L 172.767922 178.43636 
L 173.885262 178.546887 
L 175.002603 178.156075 
L 178.354626 176.173464 
L 179.471966 175.828896 
L 180.589307 175.813938 
L 181.706648 176.116038 
L 183.94133 177.294417 
L 186.176011 178.529328 
L 188.410693 179.428599 
L 189.528034 179.715803 
L 190.645374 179.830588 
L 191.762715 179.660494 
L 192.880056 179.042684 
L 193.997397 177.789495 
L 195.114738 175.737807 
L 196.232078 172.802863 
L 197.349419 169.023557 
L 199.584101 159.754622 
L 201.818783 150.562571 
L 202.936123 147.030906 
L 204.053464 144.69763 
L 205.170805 143.775347 
L 206.288146 144.284573 
L 207.405487 146.049861 
L 208.522827 148.762462 
L 210.757509 155.718656 
L 214.109531 166.612042 
L 215.226872 169.688097 
L 216.344213 172.224027 
L 217.461554 174.134942 
L 218.578895 175.434674 
L 219.696235 176.236207 
L 221.930917 177.086117 
L 223.048258 177.503579 
L 224.165599 178.068739 
L 227.517621 180.219989 
L 228.634962 180.571314 
L 229.752303 180.422513 
L 230.869644 179.663716 
L 231.986984 178.320551 
L 235.339007 173.28071 
L 236.456348 172.424575 
L 237.573688 172.378242 
L 238.691029 173.122061 
L 239.80837 174.474586 
L 243.160392 179.586635 
L 244.277733 180.974637 
L 245.395074 182.045092 
L 246.512415 182.774253 
L 247.629756 183.148782 
L 248.747097 183.149299 
L 249.864437 182.74943 
L 250.981778 181.934002 
L 252.099119 180.729024 
L 255.451141 176.153077 
L 256.568482 175.071919 
L 257.685823 174.577101 
L 258.803164 174.747501 
L 259.920505 175.527122 
L 261.037845 176.745368 
L 263.272527 179.511232 
L 264.389868 180.514293 
L 265.507209 180.876642 
L 266.624549 180.279679 
L 267.74189 178.411505 
L 268.859231 175.061078 
L 269.976572 170.257177 
L 273.328594 152.724382 
L 274.445935 148.884982 
L 275.563276 147.351968 
L 276.680617 148.305666 
L 277.797958 151.442997 
L 278.915298 156.117316 
L 282.267321 171.957679 
L 283.384662 176.081142 
L 284.502002 179.271611 
L 285.619343 181.57989 
L 286.736684 183.150913 
L 287.854025 184.163433 
L 288.971366 184.787668 
L 290.088706 185.160218 
L 292.323388 185.502408 
L 295.67541 185.629794 
L 310.200841 185.655152 
L 311.318182 185.655158 
L 311.318182 185.655158 
" style="fill:none;stroke:#1f77b4;stroke-linecap:square;stroke-width:1.5;"/>
   </g>
   <g id="patch_8">
    <path d="M 45 187.749153 
L 45 141.681356 
" style="fill:none;stroke:#000000;stroke-linecap:square;stroke-linejoin:miter;stroke-width:0.8;"/>
   </g>
   <g id="patch_9">
    <path d="M 324 187.749153 
L 324 141.681356 
" style="fill:none;stroke:#000000;stroke-linecap:square;stroke-linejoin:miter;stroke-width:0.8;"/>
   </g>
   <g id="patch_10">
    <path d="M 45 187.749153 
L 324 187.749153 
" style="fill:none;stroke:#000000;stroke-linecap:square;stroke-linejoin:miter;stroke-width:0.8;"/>
   </g>
   <g id="patch_11">
    <path d="M 45 141.681356 
L 324 141.681356 
" style="fill:none;stroke:#000000;stroke-linecap:square;stroke-linejoin:miter;stroke-width:0.8;"/>
   </g>
  </g>
  <g id="axes_3">
   <g id="patch_12">
    <path d="M 45 243.030508 
L 324 243.030508 
L 324 196.962712 
L 45 196.962712 
z
" style="fill:none;"/>
   </g>
   <g id="matplotlib.axis_5">
    <g id="xtick_11">
     <g id="line2d_17">
      <g>
       <use style="stroke:#000000;stroke-width:0.8;" x="57.681818" xlink:href="#m3a34b89393" y="243.030508"/>
      </g>
     </g>
     <g id="text_15">
      <!-- 0 -->
      <g transform="translate(54.500568 257.628946)scale(0.1 -0.1)">
       <use xlink:href="#DejaVuSans-48"/>
      </g>
     </g>
    </g>
    <g id="xtick_12">
     <g id="line2d_18">
      <g>
       <use style="stroke:#000000;stroke-width:0.8;" x="113.548859" xlink:href="#m3a34b89393" y="243.030508"/>
      </g>
     </g>
     <g id="text_16">
      <!-- 50 -->
      <g transform="translate(107.186359 257.628946)scale(0.1 -0.1)">
       <use xlink:href="#DejaVuSans-53"/>
       <use x="63.623047" xlink:href="#DejaVuSans-48"/>
      </g>
     </g>
    </g>
    <g id="xtick_13">
     <g id="line2d_19">
      <g>
       <use style="stroke:#000000;stroke-width:0.8;" x="169.415899" xlink:href="#m3a34b89393" y="243.030508"/>
      </g>
     </g>
     <g id="text_17">
      <!-- 100 -->
      <g transform="translate(159.872149 257.628946)scale(0.1 -0.1)">
       <use xlink:href="#DejaVuSans-49"/>
       <use x="63.623047" xlink:href="#DejaVuSans-48"/>
       <use x="127.246094" xlink:href="#DejaVuSans-48"/>
      </g>
     </g>
    </g>
    <g id="xtick_14">
     <g id="line2d_20">
      <g>
       <use style="stroke:#000000;stroke-width:0.8;" x="225.28294" xlink:href="#m3a34b89393" y="243.030508"/>
      </g>
     </g>
     <g id="text_18">
      <!-- 150 -->
      <g transform="translate(215.73919 257.628946)scale(0.1 -0.1)">
       <use xlink:href="#DejaVuSans-49"/>
       <use x="63.623047" xlink:href="#DejaVuSans-53"/>
       <use x="127.246094" xlink:href="#DejaVuSans-48"/>
      </g>
     </g>
    </g>
    <g id="xtick_15">
     <g id="line2d_21">
      <g>
       <use style="stroke:#000000;stroke-width:0.8;" x="281.14998" xlink:href="#m3a34b89393" y="243.030508"/>
      </g>
     </g>
     <g id="text_19">
      <!-- 200 -->
      <g transform="translate(271.60623 257.628946)scale(0.1 -0.1)">
       <use xlink:href="#DejaVuSans-50"/>
       <use x="63.623047" xlink:href="#DejaVuSans-48"/>
       <use x="127.246094" xlink:href="#DejaVuSans-48"/>
      </g>
     </g>
    </g>
   </g>
   <g id="matplotlib.axis_6">
    <g id="ytick_5">
     <g id="line2d_22">
      <g>
       <use style="stroke:#000000;stroke-width:0.8;" x="45" xlink:href="#m372a6ded50" y="240.936518"/>
      </g>
     </g>
     <g id="text_20">
      <!-- 0 -->
      <g transform="translate(31.6375 244.735737)scale(0.1 -0.1)">
       <use xlink:href="#DejaVuSans-48"/>
      </g>
     </g>
    </g>
    <g id="ytick_6">
     <g id="line2d_23">
      <g>
       <use style="stroke:#000000;stroke-width:0.8;" x="45" xlink:href="#m372a6ded50" y="207.751107"/>
      </g>
     </g>
     <g id="text_21">
      <!-- 500000 -->
      <g transform="translate(-0.175 211.550325)scale(0.1 -0.1)">
       <use xlink:href="#DejaVuSans-53"/>
       <use x="63.623047" xlink:href="#DejaVuSans-48"/>
       <use x="127.246094" xlink:href="#DejaVuSans-48"/>
       <use x="190.869141" xlink:href="#DejaVuSans-48"/>
       <use x="254.492188" xlink:href="#DejaVuSans-48"/>
       <use x="318.115234" xlink:href="#DejaVuSans-48"/>
      </g>
     </g>
    </g>
   </g>
   <g id="line2d_24">
    <path clip-path="url(#pc7aa9cf517)" d="M 57.681818 240.936518 
L 72.207249 240.830259 
L 74.44193 240.614371 
L 75.559271 240.332642 
L 76.676612 239.788421 
L 77.793953 238.80297 
L 78.911294 237.167626 
L 80.028634 234.714871 
L 81.145975 231.426547 
L 84.497998 220.022178 
L 85.615338 217.595002 
L 86.732679 216.499889 
L 87.85002 216.633915 
L 88.967361 217.637854 
L 90.084702 219.111077 
L 92.319383 222.595014 
L 94.554065 226.64501 
L 96.788746 230.914511 
L 97.906087 232.771301 
L 99.023428 234.261964 
L 100.140769 235.321082 
L 101.25811 235.939428 
L 102.375451 236.144309 
L 103.492791 235.98508 
L 104.610132 235.530093 
L 109.079495 233.042737 
L 110.196836 232.809056 
L 112.431518 232.557438 
L 113.548859 232.0224 
L 114.666199 230.763712 
L 115.78354 228.468333 
L 116.900881 224.951792 
L 118.018222 220.257992 
L 121.370244 204.002507 
L 122.487585 200.486313 
L 123.604926 199.056703 
L 124.722267 199.839017 
L 125.839608 202.482043 
L 126.956948 206.306974 
L 129.19163 214.655494 
L 130.308971 218.258367 
L 131.426312 221.260167 
L 132.543652 223.633108 
L 133.660993 225.308486 
L 134.778334 226.142671 
L 135.895675 225.986378 
L 137.013016 224.816353 
L 138.130356 222.848755 
L 139.247697 220.558553 
L 140.365038 218.566038 
L 141.482379 217.43126 
L 142.59972 217.451311 
L 143.71706 218.575677 
L 144.834401 220.480404 
L 148.186424 227.213064 
L 150.421105 231.004644 
L 151.538446 232.583885 
L 152.655787 233.818631 
L 153.773128 234.54417 
L 154.890469 234.593854 
L 156.007809 233.842969 
L 157.12515 232.247779 
L 158.242491 229.883009 
L 161.594513 221.191201 
L 162.711854 219.307836 
L 163.829195 218.626067 
L 164.946536 219.264609 
L 166.063877 221.064704 
L 167.181217 223.64423 
L 169.415899 229.225898 
L 170.53324 231.456515 
L 171.650581 233.075443 
L 172.767922 234.109859 
L 173.885262 234.679623 
L 175.002603 234.926359 
L 176.119944 234.97047 
L 181.706648 234.662652 
L 186.176011 235.009936 
L 190.645374 235.289519 
L 191.762715 235.2926 
L 192.880056 235.178493 
L 193.997397 234.835895 
L 195.114738 234.128653 
L 196.232078 232.924156 
L 197.349419 231.127938 
L 198.46676 228.708294 
L 199.584101 225.713217 
L 204.053464 211.995182 
L 205.170805 209.606426 
L 206.288146 208.106738 
L 207.405487 207.531812 
L 208.522827 207.823174 
L 209.640168 208.897558 
L 210.757509 210.689142 
L 211.87485 213.133105 
L 212.992191 216.11059 
L 216.344213 225.826553 
L 217.461554 228.444828 
L 218.578895 230.514621 
L 219.696235 232.071039 
L 220.813576 233.225285 
L 221.930917 234.110869 
L 224.165599 235.475509 
L 226.40028 236.536013 
L 227.517621 236.923087 
L 228.634962 237.169704 
L 229.752303 237.238152 
L 230.869644 237.098853 
L 231.986984 236.748732 
L 236.456348 234.784702 
L 237.573688 234.746247 
L 238.691029 235.026007 
L 239.80837 235.580447 
L 244.277733 238.550381 
L 245.395074 239.041426 
L 246.512415 239.325261 
L 247.629756 239.360692 
L 248.747097 239.095019 
L 249.864437 238.466953 
L 250.981778 237.428274 
L 252.099119 235.980885 
L 255.451141 230.600742 
L 256.568482 229.334083 
L 257.685823 228.762794 
L 258.803164 228.982321 
L 259.920505 229.92385 
L 261.037845 231.380247 
L 263.272527 234.679562 
L 264.389868 235.929486 
L 265.507209 236.539271 
L 266.624549 236.236733 
L 267.74189 234.774087 
L 268.859231 232.002846 
L 269.976572 227.988925 
L 273.328594 213.724541 
L 274.445935 210.922177 
L 275.563276 210.183085 
L 276.680617 211.58821 
L 277.797958 214.779751 
L 280.032639 223.830983 
L 281.14998 228.319724 
L 282.267321 232.152322 
L 283.384662 235.144724 
L 284.502002 237.304483 
L 285.619343 238.75664 
L 286.736684 239.672638 
L 287.854025 240.218153 
L 288.971366 240.527795 
L 291.206047 240.787828 
L 295.67541 240.881166 
L 311.318182 240.9365 
L 311.318182 240.9365 
" style="fill:none;stroke:#1f77b4;stroke-linecap:square;stroke-width:1.5;"/>
   </g>
   <g id="patch_13">
    <path d="M 45 243.030508 
L 45 196.962712 
" style="fill:none;stroke:#000000;stroke-linecap:square;stroke-linejoin:miter;stroke-width:0.8;"/>
   </g>
   <g id="patch_14">
    <path d="M 324 243.030508 
L 324 196.962712 
" style="fill:none;stroke:#000000;stroke-linecap:square;stroke-linejoin:miter;stroke-width:0.8;"/>
   </g>
   <g id="patch_15">
    <path d="M 45 243.030508 
L 324 243.030508 
" style="fill:none;stroke:#000000;stroke-linecap:square;stroke-linejoin:miter;stroke-width:0.8;"/>
   </g>
   <g id="patch_16">
    <path d="M 45 196.962712 
L 324 196.962712 
" style="fill:none;stroke:#000000;stroke-linecap:square;stroke-linejoin:miter;stroke-width:0.8;"/>
   </g>
  </g>
  <g id="axes_4">
   <g id="patch_17">
    <path d="M 45 298.311864 
L 324 298.311864 
L 324 252.244068 
L 45 252.244068 
z
" style="fill:none;"/>
   </g>
   <g id="matplotlib.axis_7">
    <g id="xtick_16">
     <g id="line2d_25">
      <g>
       <use style="stroke:#000000;stroke-width:0.8;" x="57.681818" xlink:href="#m3a34b89393" y="298.311864"/>
      </g>
     </g>
     <g id="text_22">
      <!-- 0 -->
      <g transform="translate(54.500568 312.910302)scale(0.1 -0.1)">
       <use xlink:href="#DejaVuSans-48"/>
      </g>
     </g>
    </g>
    <g id="xtick_17">
     <g id="line2d_26">
      <g>
       <use style="stroke:#000000;stroke-width:0.8;" x="113.548859" xlink:href="#m3a34b89393" y="298.311864"/>
      </g>
     </g>
     <g id="text_23">
      <!-- 50 -->
      <g transform="translate(107.186359 312.910302)scale(0.1 -0.1)">
       <use xlink:href="#DejaVuSans-53"/>
       <use x="63.623047" xlink:href="#DejaVuSans-48"/>
      </g>
     </g>
    </g>
    <g id="xtick_18">
     <g id="line2d_27">
      <g>
       <use style="stroke:#000000;stroke-width:0.8;" x="169.415899" xlink:href="#m3a34b89393" y="298.311864"/>
      </g>
     </g>
     <g id="text_24">
      <!-- 100 -->
      <g transform="translate(159.872149 312.910302)scale(0.1 -0.1)">
       <use xlink:href="#DejaVuSans-49"/>
       <use x="63.623047" xlink:href="#DejaVuSans-48"/>
       <use x="127.246094" xlink:href="#DejaVuSans-48"/>
      </g>
     </g>
    </g>
    <g id="xtick_19">
     <g id="line2d_28">
      <g>
       <use style="stroke:#000000;stroke-width:0.8;" x="225.28294" xlink:href="#m3a34b89393" y="298.311864"/>
      </g>
     </g>
     <g id="text_25">
      <!-- 150 -->
      <g transform="translate(215.73919 312.910302)scale(0.1 -0.1)">
       <use xlink:href="#DejaVuSans-49"/>
       <use x="63.623047" xlink:href="#DejaVuSans-53"/>
       <use x="127.246094" xlink:href="#DejaVuSans-48"/>
      </g>
     </g>
    </g>
    <g id="xtick_20">
     <g id="line2d_29">
      <g>
       <use style="stroke:#000000;stroke-width:0.8;" x="281.14998" xlink:href="#m3a34b89393" y="298.311864"/>
      </g>
     </g>
     <g id="text_26">
      <!-- 200 -->
      <g transform="translate(271.60623 312.910302)scale(0.1 -0.1)">
       <use xlink:href="#DejaVuSans-50"/>
       <use x="63.623047" xlink:href="#DejaVuSans-48"/>
       <use x="127.246094" xlink:href="#DejaVuSans-48"/>
      </g>
     </g>
    </g>
   </g>
   <g id="matplotlib.axis_8">
    <g id="ytick_7">
     <g id="line2d_30">
      <g>
       <use style="stroke:#000000;stroke-width:0.8;" x="45" xlink:href="#m372a6ded50" y="296.217874"/>
      </g>
     </g>
     <g id="text_27">
      <!-- 0 -->
      <g transform="translate(31.6375 300.017093)scale(0.1 -0.1)">
       <use xlink:href="#DejaVuSans-48"/>
      </g>
     </g>
    </g>
    <g id="ytick_8">
     <g id="line2d_31">
      <g>
       <use style="stroke:#000000;stroke-width:0.8;" x="45" xlink:href="#m372a6ded50" y="266.792844"/>
      </g>
     </g>
     <g id="text_28">
      <!-- 500000 -->
      <g transform="translate(-0.175 270.592063)scale(0.1 -0.1)">
       <use xlink:href="#DejaVuSans-53"/>
       <use x="63.623047" xlink:href="#DejaVuSans-48"/>
       <use x="127.246094" xlink:href="#DejaVuSans-48"/>
       <use x="190.869141" xlink:href="#DejaVuSans-48"/>
       <use x="254.492188" xlink:href="#DejaVuSans-48"/>
       <use x="318.115234" xlink:href="#DejaVuSans-48"/>
      </g>
     </g>
    </g>
   </g>
   <g id="line2d_32">
    <path clip-path="url(#p338a87fdad)" d="M 57.681818 296.217874 
L 68.855226 296.124552 
L 72.207249 295.875316 
L 74.44193 295.556073 
L 75.559271 295.276841 
L 76.676612 294.815315 
L 77.793953 294.041454 
L 78.911294 292.803248 
L 80.028634 290.982365 
L 81.145975 288.576081 
L 83.380657 282.948612 
L 84.497998 280.604573 
L 85.615338 279.170053 
L 86.732679 278.847783 
L 87.85002 279.538068 
L 88.967361 280.903027 
L 91.202042 284.066417 
L 92.319383 285.354486 
L 93.436724 286.37481 
L 95.671406 287.960011 
L 100.140769 290.874079 
L 101.25811 291.338878 
L 102.375451 291.526054 
L 103.492791 291.381057 
L 104.610132 290.902293 
L 105.727473 290.156252 
L 107.962155 288.433185 
L 109.079495 287.786077 
L 110.196836 287.415186 
L 113.548859 286.977519 
L 114.666199 286.254376 
L 115.78354 284.760498 
L 116.900881 282.268518 
L 118.018222 278.67879 
L 119.135563 274.090864 
L 121.370244 263.574952 
L 122.487585 258.977952 
L 123.604926 255.754601 
L 124.722267 254.338059 
L 125.839608 254.772678 
L 126.956948 256.722964 
L 128.074289 259.62212 
L 130.308971 266.053522 
L 131.426312 268.889995 
L 132.543652 271.295162 
L 133.660993 273.246239 
L 134.778334 274.739586 
L 135.895675 275.787545 
L 137.013016 276.45069 
L 140.365038 277.757351 
L 141.482379 278.572854 
L 142.59972 279.678082 
L 145.951742 283.385098 
L 152.655787 289.533069 
L 153.773128 290.149251 
L 154.890469 290.276778 
L 156.007809 289.808617 
L 157.12515 288.71247 
L 158.242491 287.046998 
L 161.594513 280.732666 
L 162.711854 279.208352 
L 163.829195 278.41835 
L 164.946536 278.442247 
L 166.063877 279.194893 
L 167.181217 280.461221 
L 169.415899 283.462227 
L 170.53324 284.784144 
L 171.650581 285.884566 
L 173.885262 287.612097 
L 176.119944 289.042845 
L 177.237285 289.630078 
L 178.354626 290.079337 
L 179.471966 290.367486 
L 180.589307 290.495806 
L 181.706648 290.48443 
L 183.94133 290.151503 
L 186.176011 289.50111 
L 190.645374 287.672318 
L 191.762715 287.487502 
L 192.880056 287.553258 
L 196.232078 288.433949 
L 197.349419 288.369548 
L 198.46676 287.821429 
L 199.584101 286.681045 
L 200.701442 284.924289 
L 201.818783 282.620629 
L 204.053464 277.058105 
L 206.288146 271.663947 
L 207.405487 269.501076 
L 208.522827 267.911135 
L 209.640168 267.076749 
L 210.757509 267.180738 
L 211.87485 268.33231 
L 212.992191 270.483405 
L 214.109531 273.396545 
L 216.344213 279.97842 
L 217.461554 282.924759 
L 218.578895 285.35927 
L 219.696235 287.245944 
L 220.813576 288.640964 
L 221.930917 289.636859 
L 223.048258 290.321238 
L 224.165599 290.763269 
L 225.28294 291.020147 
L 234.221666 292.020643 
L 236.456348 291.781867 
L 238.691029 291.600541 
L 239.80837 291.706811 
L 240.925711 291.981816 
L 243.160392 292.916679 
L 245.395074 293.916503 
L 246.512415 294.241266 
L 247.629756 294.339797 
L 248.747097 294.126654 
L 249.864437 293.519355 
L 250.981778 292.459036 
L 252.099119 290.94578 
L 255.451141 285.191497 
L 256.568482 283.798646 
L 257.685823 283.134729 
L 258.803164 283.3114 
L 259.920505 284.267903 
L 261.037845 285.796571 
L 263.272527 289.391391 
L 264.389868 290.871426 
L 265.507209 291.803901 
L 266.624549 291.977762 
L 267.74189 291.22196 
L 268.859231 289.451081 
L 269.976572 286.740142 
L 273.328594 276.967117 
L 274.445935 275.134784 
L 275.563276 274.786453 
L 276.680617 275.960305 
L 277.797958 278.375928 
L 281.14998 288.068916 
L 282.267321 290.683463 
L 283.384662 292.66259 
L 284.502002 294.03735 
L 285.619343 294.918252 
L 286.736684 295.440606 
L 287.854025 295.72723 
L 290.088706 295.941472 
L 296.792751 296.017926 
L 311.318182 296.2178 
L 311.318182 296.2178 
" style="fill:none;stroke:#1f77b4;stroke-linecap:square;stroke-width:1.5;"/>
   </g>
   <g id="patch_18">
    <path d="M 45 298.311864 
L 45 252.244068 
" style="fill:none;stroke:#000000;stroke-linecap:square;stroke-linejoin:miter;stroke-width:0.8;"/>
   </g>
   <g id="patch_19">
    <path d="M 324 298.311864 
L 324 252.244068 
" style="fill:none;stroke:#000000;stroke-linecap:square;stroke-linejoin:miter;stroke-width:0.8;"/>
   </g>
   <g id="patch_20">
    <path d="M 45 298.311864 
L 324 298.311864 
" style="fill:none;stroke:#000000;stroke-linecap:square;stroke-linejoin:miter;stroke-width:0.8;"/>
   </g>
   <g id="patch_21">
    <path d="M 45 252.244068 
L 324 252.244068 
" style="fill:none;stroke:#000000;stroke-linecap:square;stroke-linejoin:miter;stroke-width:0.8;"/>
   </g>
  </g>
  <g id="axes_5">
   <g id="patch_22">
    <path d="M 45 353.59322 
L 324 353.59322 
L 324 307.525424 
L 45 307.525424 
z
" style="fill:none;"/>
   </g>
   <g id="matplotlib.axis_9">
    <g id="xtick_21">
     <g id="line2d_33">
      <g>
       <use style="stroke:#000000;stroke-width:0.8;" x="57.681818" xlink:href="#m3a34b89393" y="353.59322"/>
      </g>
     </g>
     <g id="text_29">
      <!-- 0 -->
      <g transform="translate(54.500568 368.191658)scale(0.1 -0.1)">
       <use xlink:href="#DejaVuSans-48"/>
      </g>
     </g>
    </g>
    <g id="xtick_22">
     <g id="line2d_34">
      <g>
       <use style="stroke:#000000;stroke-width:0.8;" x="113.548859" xlink:href="#m3a34b89393" y="353.59322"/>
      </g>
     </g>
     <g id="text_30">
      <!-- 50 -->
      <g transform="translate(107.186359 368.191658)scale(0.1 -0.1)">
       <use xlink:href="#DejaVuSans-53"/>
       <use x="63.623047" xlink:href="#DejaVuSans-48"/>
      </g>
     </g>
    </g>
    <g id="xtick_23">
     <g id="line2d_35">
      <g>
       <use style="stroke:#000000;stroke-width:0.8;" x="169.415899" xlink:href="#m3a34b89393" y="353.59322"/>
      </g>
     </g>
     <g id="text_31">
      <!-- 100 -->
      <g transform="translate(159.872149 368.191658)scale(0.1 -0.1)">
       <use xlink:href="#DejaVuSans-49"/>
       <use x="63.623047" xlink:href="#DejaVuSans-48"/>
       <use x="127.246094" xlink:href="#DejaVuSans-48"/>
      </g>
     </g>
    </g>
    <g id="xtick_24">
     <g id="line2d_36">
      <g>
       <use style="stroke:#000000;stroke-width:0.8;" x="225.28294" xlink:href="#m3a34b89393" y="353.59322"/>
      </g>
     </g>
     <g id="text_32">
      <!-- 150 -->
      <g transform="translate(215.73919 368.191658)scale(0.1 -0.1)">
       <use xlink:href="#DejaVuSans-49"/>
       <use x="63.623047" xlink:href="#DejaVuSans-53"/>
       <use x="127.246094" xlink:href="#DejaVuSans-48"/>
      </g>
     </g>
    </g>
    <g id="xtick_25">
     <g id="line2d_37">
      <g>
       <use style="stroke:#000000;stroke-width:0.8;" x="281.14998" xlink:href="#m3a34b89393" y="353.59322"/>
      </g>
     </g>
     <g id="text_33">
      <!-- 200 -->
      <g transform="translate(271.60623 368.191658)scale(0.1 -0.1)">
       <use xlink:href="#DejaVuSans-50"/>
       <use x="63.623047" xlink:href="#DejaVuSans-48"/>
       <use x="127.246094" xlink:href="#DejaVuSans-48"/>
      </g>
     </g>
    </g>
   </g>
   <g id="matplotlib.axis_10">
    <g id="ytick_9">
     <g id="line2d_38">
      <g>
       <use style="stroke:#000000;stroke-width:0.8;" x="45" xlink:href="#m372a6ded50" y="351.499231"/>
      </g>
     </g>
     <g id="text_34">
      <!-- 0 -->
      <g transform="translate(31.6375 355.29845)scale(0.1 -0.1)">
       <use xlink:href="#DejaVuSans-48"/>
      </g>
     </g>
    </g>
    <g id="ytick_10">
     <g id="line2d_39">
      <g>
       <use style="stroke:#000000;stroke-width:0.8;" x="45" xlink:href="#m372a6ded50" y="320.185927"/>
      </g>
     </g>
     <g id="text_35">
      <!-- 500000 -->
      <g transform="translate(-0.175 323.985146)scale(0.1 -0.1)">
       <use xlink:href="#DejaVuSans-53"/>
       <use x="63.623047" xlink:href="#DejaVuSans-48"/>
       <use x="127.246094" xlink:href="#DejaVuSans-48"/>
       <use x="190.869141" xlink:href="#DejaVuSans-48"/>
       <use x="254.492188" xlink:href="#DejaVuSans-48"/>
       <use x="318.115234" xlink:href="#DejaVuSans-48"/>
      </g>
     </g>
    </g>
   </g>
   <g id="line2d_40">
    <path clip-path="url(#p07122a04a7)" d="M 57.681818 351.49923 
L 66.620545 351.412891 
L 68.855226 351.198381 
L 71.089908 350.750718 
L 73.32459 350.093063 
L 75.559271 349.270747 
L 76.676612 348.720747 
L 77.793953 347.964074 
L 78.911294 346.891031 
L 80.028634 345.426198 
L 82.263316 341.541339 
L 83.380657 339.573189 
L 84.497998 338.030303 
L 85.615338 337.184538 
L 86.732679 337.12154 
L 87.85002 337.70249 
L 90.084702 339.541117 
L 91.202042 340.193978 
L 92.319383 340.478737 
L 93.436724 340.454506 
L 95.671406 340.226418 
L 96.788746 340.429804 
L 97.906087 340.998032 
L 99.023428 341.895272 
L 101.25811 344.009271 
L 102.375451 344.793759 
L 103.492791 345.164959 
L 104.610132 345.056518 
L 105.727473 344.508849 
L 107.962155 342.693692 
L 109.079495 341.808607 
L 110.196836 341.129733 
L 111.314177 340.685053 
L 114.666199 339.740306 
L 115.78354 338.975459 
L 116.900881 337.630649 
L 118.018222 335.482567 
L 119.135563 332.372987 
L 120.252903 328.311685 
L 123.604926 314.324193 
L 124.722267 311.179721 
L 125.839608 309.619414 
L 126.956948 309.630952 
L 128.074289 310.836866 
L 131.426312 316.11378 
L 132.543652 317.231716 
L 135.895675 319.413493 
L 137.013016 320.620338 
L 138.130356 322.411236 
L 139.247697 324.825927 
L 141.482379 330.963732 
L 142.59972 334.123584 
L 143.71706 336.923354 
L 144.834401 339.154734 
L 145.951742 340.774898 
L 147.069083 341.897885 
L 149.303765 343.430576 
L 151.538446 344.782254 
L 152.655787 345.319762 
L 153.773128 345.615466 
L 154.890469 345.569484 
L 156.007809 345.127886 
L 157.12515 344.290019 
L 158.242491 343.10706 
L 160.477173 340.12164 
L 162.711854 337.148913 
L 163.829195 335.89789 
L 164.946536 334.843287 
L 166.063877 333.981943 
L 167.181217 333.316192 
L 168.298558 332.874703 
L 169.415899 332.71804 
L 170.53324 332.927558 
L 171.650581 333.577966 
L 172.767922 334.698016 
L 173.885262 336.235555 
L 177.237285 341.645799 
L 178.354626 343.043507 
L 179.471966 344.023283 
L 180.589307 344.568151 
L 181.706648 344.709806 
L 182.823989 344.489544 
L 183.94133 343.925221 
L 185.05867 342.996821 
L 186.176011 341.66599 
L 187.293352 339.932529 
L 189.528034 335.845359 
L 190.645374 334.134811 
L 191.762715 333.169166 
L 192.880056 333.212446 
L 193.997397 334.287318 
L 195.114738 336.157271 
L 197.349419 340.563478 
L 198.46676 342.23557 
L 199.584101 343.160436 
L 200.701442 343.223933 
L 201.818783 342.431659 
L 202.936123 340.872768 
L 204.053464 338.687383 
L 206.288146 333.157869 
L 207.405487 330.272291 
L 208.522827 327.708897 
L 209.640168 325.830133 
L 210.757509 324.971882 
L 211.87485 325.336598 
L 212.992191 326.906944 
L 214.109531 329.431605 
L 217.461554 338.535885 
L 218.578895 340.902825 
L 219.696235 342.666882 
L 220.813576 343.841749 
L 221.930917 344.498407 
L 223.048258 344.728688 
L 224.165599 344.631058 
L 228.634962 343.468048 
L 229.752303 343.64212 
L 230.869644 344.084879 
L 233.104325 345.191773 
L 234.221666 345.477976 
L 235.339007 345.415213 
L 236.456348 345.003357 
L 239.80837 343.024253 
L 240.925711 342.726215 
L 242.043052 342.831321 
L 243.160392 343.354572 
L 244.277733 344.218787 
L 246.512415 346.305617 
L 247.629756 347.108997 
L 248.747097 347.484717 
L 249.864437 347.290138 
L 250.981778 346.462385 
L 252.099119 345.040912 
L 254.333801 341.134402 
L 255.451141 339.227426 
L 256.568482 337.775494 
L 257.685823 337.0195 
L 258.803164 337.069298 
L 259.920505 337.88775 
L 261.037845 339.312063 
L 264.389868 344.712694 
L 265.507209 346.062821 
L 266.624549 346.859424 
L 267.74189 346.977451 
L 268.859231 346.367739 
L 269.976572 345.09414 
L 273.328594 339.919893 
L 274.445935 338.967034 
L 275.563276 338.860961 
L 276.680617 339.620136 
L 277.797958 341.076815 
L 281.14998 346.710573 
L 282.267321 348.183571 
L 283.384662 349.269422 
L 284.502002 349.990738 
L 285.619343 350.417864 
L 286.736684 350.637068 
L 288.971366 350.752204 
L 296.792751 350.845294 
L 306.848819 351.486712 
L 311.318182 351.49899 
L 311.318182 351.49899 
" style="fill:none;stroke:#1f77b4;stroke-linecap:square;stroke-width:1.5;"/>
   </g>
   <g id="patch_23">
    <path d="M 45 353.59322 
L 45 307.525424 
" style="fill:none;stroke:#000000;stroke-linecap:square;stroke-linejoin:miter;stroke-width:0.8;"/>
   </g>
   <g id="patch_24">
    <path d="M 324 353.59322 
L 324 307.525424 
" style="fill:none;stroke:#000000;stroke-linecap:square;stroke-linejoin:miter;stroke-width:0.8;"/>
   </g>
   <g id="patch_25">
    <path d="M 45 353.59322 
L 324 353.59322 
" style="fill:none;stroke:#000000;stroke-linecap:square;stroke-linejoin:miter;stroke-width:0.8;"/>
   </g>
   <g id="patch_26">
    <path d="M 45 307.525424 
L 324 307.525424 
" style="fill:none;stroke:#000000;stroke-linecap:square;stroke-linejoin:miter;stroke-width:0.8;"/>
   </g>
  </g>
  <g id="axes_6">
   <g id="patch_27">
    <path d="M 45 408.874576 
L 324 408.874576 
L 324 362.80678 
L 45 362.80678 
z
" style="fill:none;"/>
   </g>
   <g id="matplotlib.axis_11">
    <g id="xtick_26">
     <g id="line2d_41">
      <g>
       <use style="stroke:#000000;stroke-width:0.8;" x="57.681818" xlink:href="#m3a34b89393" y="408.874576"/>
      </g>
     </g>
     <g id="text_36">
      <!-- 0 -->
      <g transform="translate(54.500568 423.473014)scale(0.1 -0.1)">
       <use xlink:href="#DejaVuSans-48"/>
      </g>
     </g>
    </g>
    <g id="xtick_27">
     <g id="line2d_42">
      <g>
       <use style="stroke:#000000;stroke-width:0.8;" x="113.548859" xlink:href="#m3a34b89393" y="408.874576"/>
      </g>
     </g>
     <g id="text_37">
      <!-- 50 -->
      <g transform="translate(107.186359 423.473014)scale(0.1 -0.1)">
       <use xlink:href="#DejaVuSans-53"/>
       <use x="63.623047" xlink:href="#DejaVuSans-48"/>
      </g>
     </g>
    </g>
    <g id="xtick_28">
     <g id="line2d_43">
      <g>
       <use style="stroke:#000000;stroke-width:0.8;" x="169.415899" xlink:href="#m3a34b89393" y="408.874576"/>
      </g>
     </g>
     <g id="text_38">
      <!-- 100 -->
      <g transform="translate(159.872149 423.473014)scale(0.1 -0.1)">
       <use xlink:href="#DejaVuSans-49"/>
       <use x="63.623047" xlink:href="#DejaVuSans-48"/>
       <use x="127.246094" xlink:href="#DejaVuSans-48"/>
      </g>
     </g>
    </g>
    <g id="xtick_29">
     <g id="line2d_44">
      <g>
       <use style="stroke:#000000;stroke-width:0.8;" x="225.28294" xlink:href="#m3a34b89393" y="408.874576"/>
      </g>
     </g>
     <g id="text_39">
      <!-- 150 -->
      <g transform="translate(215.73919 423.473014)scale(0.1 -0.1)">
       <use xlink:href="#DejaVuSans-49"/>
       <use x="63.623047" xlink:href="#DejaVuSans-53"/>
       <use x="127.246094" xlink:href="#DejaVuSans-48"/>
      </g>
     </g>
    </g>
    <g id="xtick_30">
     <g id="line2d_45">
      <g>
       <use style="stroke:#000000;stroke-width:0.8;" x="281.14998" xlink:href="#m3a34b89393" y="408.874576"/>
      </g>
     </g>
     <g id="text_40">
      <!-- 200 -->
      <g transform="translate(271.60623 423.473014)scale(0.1 -0.1)">
       <use xlink:href="#DejaVuSans-50"/>
       <use x="63.623047" xlink:href="#DejaVuSans-48"/>
       <use x="127.246094" xlink:href="#DejaVuSans-48"/>
      </g>
     </g>
    </g>
   </g>
   <g id="matplotlib.axis_12">
    <g id="ytick_11">
     <g id="line2d_46">
      <g>
       <use style="stroke:#000000;stroke-width:0.8;" x="45" xlink:href="#m372a6ded50" y="406.780588"/>
      </g>
     </g>
     <g id="text_41">
      <!-- 0 -->
      <g transform="translate(31.6375 410.579807)scale(0.1 -0.1)">
       <use xlink:href="#DejaVuSans-48"/>
      </g>
     </g>
    </g>
    <g id="ytick_12">
     <g id="line2d_47">
      <g>
       <use style="stroke:#000000;stroke-width:0.8;" x="45" xlink:href="#m372a6ded50" y="371.397334"/>
      </g>
     </g>
     <g id="text_42">
      <!-- 500000 -->
      <g transform="translate(-0.175 375.196553)scale(0.1 -0.1)">
       <use xlink:href="#DejaVuSans-53"/>
       <use x="63.623047" xlink:href="#DejaVuSans-48"/>
       <use x="127.246094" xlink:href="#DejaVuSans-48"/>
       <use x="190.869141" xlink:href="#DejaVuSans-48"/>
       <use x="254.492188" xlink:href="#DejaVuSans-48"/>
       <use x="318.115234" xlink:href="#DejaVuSans-48"/>
      </g>
     </g>
    </g>
   </g>
   <g id="line2d_48">
    <path clip-path="url(#p7643620da9)" d="M 57.681818 406.780586 
L 65.503204 406.691497 
L 67.737885 406.408538 
L 68.855226 406.116169 
L 69.972567 405.6905 
L 72.207249 404.450762 
L 74.44193 402.874836 
L 75.559271 401.984528 
L 76.676612 400.94488 
L 77.793953 399.62929 
L 78.911294 397.906661 
L 80.028634 395.718756 
L 83.380657 388.133771 
L 84.497998 386.493306 
L 85.615338 385.836762 
L 86.732679 386.17105 
L 87.85002 387.236992 
L 90.084702 389.837357 
L 91.202042 390.610045 
L 92.319383 390.809221 
L 93.436724 390.5284 
L 95.671406 389.606008 
L 96.788746 389.585229 
L 97.906087 390.134838 
L 99.023428 391.259622 
L 102.375451 395.911307 
L 103.492791 396.927557 
L 104.610132 397.356863 
L 105.727473 397.201074 
L 106.844814 396.585787 
L 110.196836 393.937677 
L 111.314177 393.262604 
L 112.431518 392.754408 
L 114.666199 392.090949 
L 115.78354 391.802656 
L 116.900881 391.362089 
L 118.018222 390.528714 
L 119.135563 389.02053 
L 120.252903 386.628787 
L 121.370244 383.352455 
L 123.604926 375.5437 
L 124.722267 372.165853 
L 125.839608 369.815567 
L 126.956948 368.636802 
L 128.074289 368.40145 
L 130.308971 368.757464 
L 131.426312 368.433277 
L 132.543652 367.565184 
L 134.778334 365.318282 
L 135.895675 364.90077 
L 137.013016 365.558746 
L 138.130356 367.526851 
L 139.247697 370.786803 
L 140.365038 375.072679 
L 143.71706 389.257986 
L 144.834401 392.893866 
L 145.951742 395.608498 
L 147.069083 397.477679 
L 148.186424 398.701087 
L 149.303765 399.507305 
L 150.421105 400.075837 
L 151.538446 400.500724 
L 152.655787 400.798581 
L 153.773128 400.936282 
L 154.890469 400.865477 
L 156.007809 400.548736 
L 157.12515 399.968188 
L 158.242491 399.120169 
L 159.359832 397.996498 
L 160.477173 396.562492 
L 161.594513 394.741674 
L 162.711854 392.424614 
L 163.829195 389.518127 
L 164.946536 386.02517 
L 167.181217 378.213105 
L 168.298558 374.837755 
L 169.415899 372.580784 
L 170.53324 371.885106 
L 171.650581 372.923215 
L 172.767922 375.547296 
L 173.885262 379.33495 
L 176.119944 388.063146 
L 177.237285 391.921694 
L 178.354626 394.979202 
L 179.471966 397.12094 
L 180.589307 398.369084 
L 181.706648 398.801672 
L 182.823989 398.467501 
L 183.94133 397.333703 
L 185.05867 395.285271 
L 186.176011 392.197291 
L 187.293352 388.072858 
L 189.528034 378.184322 
L 190.645374 373.948708 
L 191.762715 371.402151 
L 192.880056 371.16324 
L 193.997397 373.313417 
L 195.114738 377.361404 
L 197.349419 387.534227 
L 198.46676 391.900159 
L 199.584101 395.05958 
L 200.701442 396.864007 
L 201.818783 397.380681 
L 202.936123 396.783819 
L 204.053464 395.286525 
L 205.170805 393.124956 
L 208.522827 385.646369 
L 209.640168 384.016986 
L 210.757509 383.362775 
L 211.87485 383.823183 
L 212.992191 385.336398 
L 214.109531 387.652698 
L 217.461554 395.698772 
L 218.578895 397.679458 
L 219.696235 399.026446 
L 220.813576 399.728086 
L 221.930917 399.845391 
L 223.048258 399.483389 
L 224.165599 398.772351 
L 226.40028 396.943298 
L 227.517621 396.201368 
L 228.634962 395.807964 
L 229.752303 395.83573 
L 233.104325 396.97855 
L 234.221666 396.759586 
L 235.339007 395.848781 
L 236.456348 394.227649 
L 237.573688 392.054256 
L 239.80837 387.363137 
L 240.925711 385.670967 
L 242.043052 384.928036 
L 243.160392 385.359785 
L 244.277733 386.965533 
L 245.395074 389.486617 
L 247.629756 395.275477 
L 248.747097 397.440378 
L 249.864437 398.589147 
L 250.981778 398.605374 
L 252.099119 397.605571 
L 253.21646 395.880908 
L 255.451141 391.776361 
L 256.568482 390.088608 
L 257.685823 388.963508 
L 258.803164 388.521948 
L 259.920505 388.806891 
L 261.037845 389.79084 
L 262.155186 391.372135 
L 264.389868 395.561171 
L 265.507209 397.673097 
L 266.624549 399.466403 
L 267.74189 400.754569 
L 268.859231 401.441776 
L 269.976572 401.545665 
L 271.093913 401.199207 
L 273.328594 400.07122 
L 274.445935 399.760284 
L 275.563276 399.819438 
L 276.680617 400.267508 
L 277.797958 401.026314 
L 281.14998 403.761096 
L 282.267321 404.419047 
L 283.384662 404.854661 
L 284.502002 405.080562 
L 286.736684 405.099619 
L 290.088706 404.904202 
L 293.440729 405.002968 
L 296.792751 405.309075 
L 300.144774 405.964145 
L 302.379455 406.402763 
L 304.614137 406.657872 
L 307.966159 406.769225 
L 311.318182 406.780059 
L 311.318182 406.780059 
" style="fill:none;stroke:#1f77b4;stroke-linecap:square;stroke-width:1.5;"/>
   </g>
   <g id="patch_28">
    <path d="M 45 408.874576 
L 45 362.80678 
" style="fill:none;stroke:#000000;stroke-linecap:square;stroke-linejoin:miter;stroke-width:0.8;"/>
   </g>
   <g id="patch_29">
    <path d="M 324 408.874576 
L 324 362.80678 
" style="fill:none;stroke:#000000;stroke-linecap:square;stroke-linejoin:miter;stroke-width:0.8;"/>
   </g>
   <g id="patch_30">
    <path d="M 45 408.874576 
L 324 408.874576 
" style="fill:none;stroke:#000000;stroke-linecap:square;stroke-linejoin:miter;stroke-width:0.8;"/>
   </g>
   <g id="patch_31">
    <path d="M 45 362.80678 
L 324 362.80678 
" style="fill:none;stroke:#000000;stroke-linecap:square;stroke-linejoin:miter;stroke-width:0.8;"/>
   </g>
  </g>
  <g id="axes_7">
   <g id="patch_32">
    <path d="M 45 464.155932 
L 324 464.155932 
L 324 418.088136 
L 45 418.088136 
z
" style="fill:none;"/>
   </g>
   <g id="matplotlib.axis_13">
    <g id="xtick_31">
     <g id="line2d_49">
      <g>
       <use style="stroke:#000000;stroke-width:0.8;" x="57.681818" xlink:href="#m3a34b89393" y="464.155932"/>
      </g>
     </g>
     <g id="text_43">
      <!-- 0 -->
      <g transform="translate(54.500568 478.75437)scale(0.1 -0.1)">
       <use xlink:href="#DejaVuSans-48"/>
      </g>
     </g>
    </g>
    <g id="xtick_32">
     <g id="line2d_50">
      <g>
       <use style="stroke:#000000;stroke-width:0.8;" x="113.548859" xlink:href="#m3a34b89393" y="464.155932"/>
      </g>
     </g>
     <g id="text_44">
      <!-- 50 -->
      <g transform="translate(107.186359 478.75437)scale(0.1 -0.1)">
       <use xlink:href="#DejaVuSans-53"/>
       <use x="63.623047" xlink:href="#DejaVuSans-48"/>
      </g>
     </g>
    </g>
    <g id="xtick_33">
     <g id="line2d_51">
      <g>
       <use style="stroke:#000000;stroke-width:0.8;" x="169.415899" xlink:href="#m3a34b89393" y="464.155932"/>
      </g>
     </g>
     <g id="text_45">
      <!-- 100 -->
      <g transform="translate(159.872149 478.75437)scale(0.1 -0.1)">
       <use xlink:href="#DejaVuSans-49"/>
       <use x="63.623047" xlink:href="#DejaVuSans-48"/>
       <use x="127.246094" xlink:href="#DejaVuSans-48"/>
      </g>
     </g>
    </g>
    <g id="xtick_34">
     <g id="line2d_52">
      <g>
       <use style="stroke:#000000;stroke-width:0.8;" x="225.28294" xlink:href="#m3a34b89393" y="464.155932"/>
      </g>
     </g>
     <g id="text_46">
      <!-- 150 -->
      <g transform="translate(215.73919 478.75437)scale(0.1 -0.1)">
       <use xlink:href="#DejaVuSans-49"/>
       <use x="63.623047" xlink:href="#DejaVuSans-53"/>
       <use x="127.246094" xlink:href="#DejaVuSans-48"/>
      </g>
     </g>
    </g>
    <g id="xtick_35">
     <g id="line2d_53">
      <g>
       <use style="stroke:#000000;stroke-width:0.8;" x="281.14998" xlink:href="#m3a34b89393" y="464.155932"/>
      </g>
     </g>
     <g id="text_47">
      <!-- 200 -->
      <g transform="translate(271.60623 478.75437)scale(0.1 -0.1)">
       <use xlink:href="#DejaVuSans-50"/>
       <use x="63.623047" xlink:href="#DejaVuSans-48"/>
       <use x="127.246094" xlink:href="#DejaVuSans-48"/>
      </g>
     </g>
    </g>
   </g>
   <g id="matplotlib.axis_14">
    <g id="ytick_13">
     <g id="line2d_54">
      <g>
       <use style="stroke:#000000;stroke-width:0.8;" x="45" xlink:href="#m372a6ded50" y="462.061944"/>
      </g>
     </g>
     <g id="text_48">
      <!-- 0 -->
      <g transform="translate(31.6375 465.861163)scale(0.1 -0.1)">
       <use xlink:href="#DejaVuSans-48"/>
      </g>
     </g>
    </g>
    <g id="ytick_14">
     <g id="line2d_55">
      <g>
       <use style="stroke:#000000;stroke-width:0.8;" x="45" xlink:href="#m372a6ded50" y="432.673015"/>
      </g>
     </g>
     <g id="text_49">
      <!-- 500000 -->
      <g transform="translate(-0.175 436.472233)scale(0.1 -0.1)">
       <use xlink:href="#DejaVuSans-53"/>
       <use x="63.623047" xlink:href="#DejaVuSans-48"/>
       <use x="127.246094" xlink:href="#DejaVuSans-48"/>
       <use x="190.869141" xlink:href="#DejaVuSans-48"/>
       <use x="254.492188" xlink:href="#DejaVuSans-48"/>
       <use x="318.115234" xlink:href="#DejaVuSans-48"/>
      </g>
     </g>
    </g>
   </g>
   <g id="line2d_56">
    <path clip-path="url(#p5d26694c2c)" d="M 57.681818 462.061941 
L 65.503204 461.969031 
L 67.737885 461.673767 
L 68.855226 461.368163 
L 69.972567 460.922093 
L 71.089908 460.33033 
L 73.32459 458.784536 
L 74.44193 457.86176 
L 75.559271 456.792324 
L 76.676612 455.453651 
L 77.793953 453.666957 
L 78.911294 451.265145 
L 80.028634 448.198107 
L 83.380657 437.811285 
L 84.497998 435.714037 
L 85.615338 435.049625 
L 86.732679 435.8424 
L 87.85002 437.772242 
L 90.084702 442.83031 
L 91.202042 444.916267 
L 92.319383 446.311607 
L 93.436724 447.003479 
L 94.554065 447.161264 
L 96.788746 446.984281 
L 97.906087 447.167284 
L 99.023428 447.715545 
L 100.140769 448.594893 
L 102.375451 450.636081 
L 103.492791 451.342274 
L 104.610132 451.622366 
L 105.727473 451.465903 
L 106.844814 450.991118 
L 109.079495 449.848915 
L 110.196836 449.474943 
L 111.314177 449.279813 
L 113.548859 449.194846 
L 116.900881 449.160731 
L 118.018222 449.001073 
L 119.135563 448.588408 
L 120.252903 447.795087 
L 121.370244 446.569038 
L 125.839608 440.399441 
L 126.956948 439.569393 
L 130.308971 438.048601 
L 131.426312 437.090145 
L 132.543652 435.761971 
L 134.778334 432.821225 
L 135.895675 431.864054 
L 137.013016 431.668457 
L 138.130356 432.420707 
L 139.247697 434.153337 
L 140.365038 436.737407 
L 144.834401 449.255973 
L 145.951742 451.326899 
L 147.069083 452.694851 
L 148.186424 453.477279 
L 149.303765 453.888069 
L 151.538446 454.472626 
L 153.773128 455.420113 
L 154.890469 455.930202 
L 156.007809 456.313016 
L 157.12515 456.462458 
L 158.242491 456.290931 
L 159.359832 455.702844 
L 160.477173 454.561259 
L 161.594513 452.670599 
L 162.711854 449.805886 
L 163.829195 445.805213 
L 164.946536 440.704593 
L 167.181217 428.983992 
L 168.298558 424.014252 
L 169.415899 420.874906 
L 170.53324 420.182126 
L 171.650581 422.050334 
L 172.767922 426.074142 
L 175.002603 437.376599 
L 176.119944 442.967175 
L 177.237285 447.708622 
L 178.354626 451.343799 
L 179.471966 453.84899 
L 180.589307 455.332316 
L 181.706648 455.920448 
L 182.823989 455.662998 
L 183.94133 454.490219 
L 185.05867 452.236589 
L 186.176011 448.740999 
L 187.293352 444.007859 
L 190.645374 427.500709 
L 191.762715 424.303091 
L 192.880056 423.619699 
L 193.997397 425.551811 
L 195.114738 429.581283 
L 198.46676 444.69841 
L 199.584101 448.13085 
L 200.701442 450.245158 
L 201.818783 451.132923 
L 202.936123 450.998495 
L 204.053464 450.091366 
L 205.170805 448.690932 
L 207.405487 445.666477 
L 208.522827 444.668919 
L 209.640168 444.330131 
L 210.757509 444.743016 
L 211.87485 445.865774 
L 212.992191 447.546059 
L 217.461554 455.391755 
L 218.578895 456.684377 
L 219.696235 457.504477 
L 220.813576 457.852621 
L 221.930917 457.776877 
L 223.048258 457.357099 
L 224.165599 456.690169 
L 227.517621 454.360522 
L 228.634962 453.862264 
L 229.752303 453.5901 
L 231.986984 453.208243 
L 233.104325 452.607583 
L 234.221666 451.387197 
L 235.339007 449.390739 
L 236.456348 446.603883 
L 238.691029 439.375686 
L 239.80837 435.669184 
L 240.925711 432.602549 
L 242.043052 430.760427 
L 243.160392 430.609845 
L 244.277733 432.325722 
L 245.395074 435.674978 
L 248.747097 448.476471 
L 249.864437 451.199858 
L 250.981778 452.541746 
L 252.099119 452.623549 
L 253.21646 451.767921 
L 254.333801 450.356636 
L 256.568482 447.098799 
L 257.685823 445.65607 
L 258.803164 444.540733 
L 259.920505 443.917459 
L 261.037845 443.949482 
L 262.155186 444.736747 
L 263.272527 446.254477 
L 264.389868 448.334586 
L 266.624549 453.039337 
L 267.74189 455.073061 
L 268.859231 456.621032 
L 269.976572 457.62667 
L 271.093913 458.152226 
L 272.211254 458.343043 
L 275.563276 458.500456 
L 277.797958 459.046686 
L 281.14998 460.052192 
L 282.267321 460.223749 
L 283.384662 460.268494 
L 285.619343 460.047986 
L 287.854025 459.725377 
L 290.088706 459.65627 
L 293.440729 460.006413 
L 297.910092 460.696495 
L 303.496796 461.827563 
L 305.731478 461.998668 
L 311.318182 462.061396 
L 311.318182 462.061396 
" style="fill:none;stroke:#1f77b4;stroke-linecap:square;stroke-width:1.5;"/>
   </g>
   <g id="patch_33">
    <path d="M 45 464.155932 
L 45 418.088136 
" style="fill:none;stroke:#000000;stroke-linecap:square;stroke-linejoin:miter;stroke-width:0.8;"/>
   </g>
   <g id="patch_34">
    <path d="M 324 464.155932 
L 324 418.088136 
" style="fill:none;stroke:#000000;stroke-linecap:square;stroke-linejoin:miter;stroke-width:0.8;"/>
   </g>
   <g id="patch_35">
    <path d="M 45 464.155932 
L 324 464.155932 
" style="fill:none;stroke:#000000;stroke-linecap:square;stroke-linejoin:miter;stroke-width:0.8;"/>
   </g>
   <g id="patch_36">
    <path d="M 45 418.088136 
L 324 418.088136 
" style="fill:none;stroke:#000000;stroke-linecap:square;stroke-linejoin:miter;stroke-width:0.8;"/>
   </g>
  </g>
  <g id="axes_8">
   <g id="patch_37">
    <path d="M 45 519.437288 
L 324 519.437288 
L 324 473.369492 
L 45 473.369492 
z
" style="fill:none;"/>
   </g>
   <g id="matplotlib.axis_15">
    <g id="xtick_36">
     <g id="line2d_57">
      <g>
       <use style="stroke:#000000;stroke-width:0.8;" x="57.681818" xlink:href="#m3a34b89393" y="519.437288"/>
      </g>
     </g>
     <g id="text_50">
      <!-- 0 -->
      <g transform="translate(54.500568 534.035726)scale(0.1 -0.1)">
       <use xlink:href="#DejaVuSans-48"/>
      </g>
     </g>
    </g>
    <g id="xtick_37">
     <g id="line2d_58">
      <g>
       <use style="stroke:#000000;stroke-width:0.8;" x="113.548859" xlink:href="#m3a34b89393" y="519.437288"/>
      </g>
     </g>
     <g id="text_51">
      <!-- 50 -->
      <g transform="translate(107.186359 534.035726)scale(0.1 -0.1)">
       <use xlink:href="#DejaVuSans-53"/>
       <use x="63.623047" xlink:href="#DejaVuSans-48"/>
      </g>
     </g>
    </g>
    <g id="xtick_38">
     <g id="line2d_59">
      <g>
       <use style="stroke:#000000;stroke-width:0.8;" x="169.415899" xlink:href="#m3a34b89393" y="519.437288"/>
      </g>
     </g>
     <g id="text_52">
      <!-- 100 -->
      <g transform="translate(159.872149 534.035726)scale(0.1 -0.1)">
       <use xlink:href="#DejaVuSans-49"/>
       <use x="63.623047" xlink:href="#DejaVuSans-48"/>
       <use x="127.246094" xlink:href="#DejaVuSans-48"/>
      </g>
     </g>
    </g>
    <g id="xtick_39">
     <g id="line2d_60">
      <g>
       <use style="stroke:#000000;stroke-width:0.8;" x="225.28294" xlink:href="#m3a34b89393" y="519.437288"/>
      </g>
     </g>
     <g id="text_53">
      <!-- 150 -->
      <g transform="translate(215.73919 534.035726)scale(0.1 -0.1)">
       <use xlink:href="#DejaVuSans-49"/>
       <use x="63.623047" xlink:href="#DejaVuSans-53"/>
       <use x="127.246094" xlink:href="#DejaVuSans-48"/>
      </g>
     </g>
    </g>
    <g id="xtick_40">
     <g id="line2d_61">
      <g>
       <use style="stroke:#000000;stroke-width:0.8;" x="281.14998" xlink:href="#m3a34b89393" y="519.437288"/>
      </g>
     </g>
     <g id="text_54">
      <!-- 200 -->
      <g transform="translate(271.60623 534.035726)scale(0.1 -0.1)">
       <use xlink:href="#DejaVuSans-50"/>
       <use x="63.623047" xlink:href="#DejaVuSans-48"/>
       <use x="127.246094" xlink:href="#DejaVuSans-48"/>
      </g>
     </g>
    </g>
   </g>
   <g id="matplotlib.axis_16">
    <g id="ytick_15">
     <g id="line2d_62">
      <g>
       <use style="stroke:#000000;stroke-width:0.8;" x="45" xlink:href="#m372a6ded50" y="517.3433"/>
      </g>
     </g>
     <g id="text_55">
      <!-- 0 -->
      <g transform="translate(31.6375 521.142518)scale(0.1 -0.1)">
       <use xlink:href="#DejaVuSans-48"/>
      </g>
     </g>
    </g>
    <g id="ytick_16">
     <g id="line2d_63">
      <g>
       <use style="stroke:#000000;stroke-width:0.8;" x="45" xlink:href="#m372a6ded50" y="489.815306"/>
      </g>
     </g>
     <g id="text_56">
      <!-- 500000 -->
      <g transform="translate(-0.175 493.614525)scale(0.1 -0.1)">
       <use xlink:href="#DejaVuSans-53"/>
       <use x="63.623047" xlink:href="#DejaVuSans-48"/>
       <use x="127.246094" xlink:href="#DejaVuSans-48"/>
       <use x="190.869141" xlink:href="#DejaVuSans-48"/>
       <use x="254.492188" xlink:href="#DejaVuSans-48"/>
       <use x="318.115234" xlink:href="#DejaVuSans-48"/>
      </g>
     </g>
    </g>
   </g>
   <g id="line2d_64">
    <path clip-path="url(#pfcf3099e4d)" d="M 57.681818 517.343297 
L 65.503204 517.273022 
L 67.737885 517.049471 
L 69.972567 516.477272 
L 72.207249 515.457526 
L 74.44193 513.992369 
L 75.559271 512.985087 
L 76.676612 511.607277 
L 77.793953 509.646136 
L 78.911294 506.913062 
L 80.028634 503.36158 
L 83.380657 491.194591 
L 84.497998 488.732248 
L 85.615338 487.980193 
L 86.732679 489.006935 
L 87.85002 491.484283 
L 91.202042 501.455719 
L 92.319383 503.855301 
L 93.436724 505.409427 
L 94.554065 506.196618 
L 95.671406 506.418986 
L 100.140769 506.148368 
L 101.25811 506.261216 
L 102.375451 506.243093 
L 103.492791 505.890622 
L 104.610132 505.091329 
L 107.962155 501.533533 
L 109.079495 500.991207 
L 110.196836 501.096888 
L 111.314177 501.742939 
L 113.548859 503.592203 
L 114.666199 504.313097 
L 115.78354 504.756643 
L 116.900881 504.944939 
L 118.018222 504.941597 
L 120.252903 504.584453 
L 123.604926 503.612835 
L 128.074289 502.259004 
L 129.19163 501.732517 
L 130.308971 500.997455 
L 131.426312 500.043544 
L 134.778334 496.630999 
L 135.895675 495.736852 
L 137.013016 495.207565 
L 138.130356 495.177457 
L 139.247697 495.737747 
L 140.365038 496.893423 
L 141.482379 498.526698 
L 143.71706 502.136573 
L 144.834401 503.419289 
L 145.951742 503.989222 
L 147.069083 503.805094 
L 148.186424 503.076435 
L 149.303765 502.212823 
L 150.421105 501.682669 
L 151.538446 501.837262 
L 152.655787 502.784976 
L 153.773128 504.37154 
L 156.007809 508.115598 
L 157.12515 509.615927 
L 158.242491 510.582221 
L 159.359832 510.888198 
L 160.477173 510.399547 
L 161.594513 508.924154 
L 162.711854 506.231356 
L 163.829195 502.15832 
L 164.946536 496.772394 
L 167.181217 484.232245 
L 168.298558 479.010295 
L 169.415899 475.877209 
L 170.53324 475.463482 
L 171.650581 477.798187 
L 172.767922 482.326934 
L 176.119944 499.792453 
L 177.237285 504.376556 
L 178.354626 507.810458 
L 179.471966 510.162826 
L 180.589307 511.600059 
L 181.706648 512.265239 
L 182.823989 512.192786 
L 183.94133 511.285305 
L 185.05867 509.355951 
L 186.176011 506.234389 
L 187.293352 501.915655 
L 190.645374 486.301822 
L 191.762715 482.896364 
L 192.880056 481.58228 
L 193.997397 482.486503 
L 195.114738 485.235853 
L 198.46676 497.15276 
L 199.584101 500.177125 
L 200.701442 502.169888 
L 201.818783 503.08009 
L 202.936123 502.970634 
L 204.053464 502.00716 
L 207.405487 497.394707 
L 208.522827 496.735396 
L 209.640168 497.055559 
L 210.757509 498.372182 
L 211.87485 500.485221 
L 215.226872 508.31436 
L 216.344213 510.506664 
L 217.461554 512.247809 
L 218.578895 513.506417 
L 219.696235 514.299548 
L 220.813576 514.677363 
L 221.930917 514.70803 
L 223.048258 514.465552 
L 224.165599 514.021178 
L 231.986984 509.897499 
L 233.104325 508.719231 
L 234.221666 506.902209 
L 235.339007 504.321469 
L 236.456348 500.957265 
L 237.573688 496.90988 
L 239.80837 487.902793 
L 240.925711 483.944311 
L 242.043052 481.237947 
L 243.160392 480.406611 
L 244.277733 481.773258 
L 245.395074 485.186866 
L 247.629756 495.33019 
L 248.747097 500.209579 
L 249.864437 503.995148 
L 250.981778 506.414171 
L 252.099119 507.537847 
L 253.21646 507.637312 
L 254.333801 507.026172 
L 255.451141 505.956751 
L 257.685823 503.099114 
L 258.803164 501.6328 
L 259.920505 500.454735 
L 261.037845 499.851649 
L 262.155186 500.050851 
L 263.272527 501.128417 
L 264.389868 502.971092 
L 267.74189 510.096848 
L 268.859231 511.982309 
L 269.976572 513.34342 
L 271.093913 514.201195 
L 272.211254 514.667188 
L 274.445935 515.003482 
L 277.797958 515.385804 
L 281.14998 515.771946 
L 283.384662 515.670324 
L 287.854025 514.95044 
L 290.088706 514.990457 
L 293.440729 515.552536 
L 303.496796 517.166787 
L 306.848819 517.321805 
L 311.318182 517.342888 
L 311.318182 517.342888 
" style="fill:none;stroke:#1f77b4;stroke-linecap:square;stroke-width:1.5;"/>
   </g>
   <g id="patch_38">
    <path d="M 45 519.437288 
L 45 473.369492 
" style="fill:none;stroke:#000000;stroke-linecap:square;stroke-linejoin:miter;stroke-width:0.8;"/>
   </g>
   <g id="patch_39">
    <path d="M 324 519.437288 
L 324 473.369492 
" style="fill:none;stroke:#000000;stroke-linecap:square;stroke-linejoin:miter;stroke-width:0.8;"/>
   </g>
   <g id="patch_40">
    <path d="M 45 519.437288 
L 324 519.437288 
" style="fill:none;stroke:#000000;stroke-linecap:square;stroke-linejoin:miter;stroke-width:0.8;"/>
   </g>
   <g id="patch_41">
    <path d="M 45 473.369492 
L 324 473.369492 
" style="fill:none;stroke:#000000;stroke-linecap:square;stroke-linejoin:miter;stroke-width:0.8;"/>
   </g>
  </g>
  <g id="axes_9">
   <g id="patch_42">
    <path d="M 45 574.718644 
L 324 574.718644 
L 324 528.650847 
L 45 528.650847 
z
" style="fill:none;"/>
   </g>
   <g id="matplotlib.axis_17">
    <g id="xtick_41">
     <g id="line2d_65">
      <g>
       <use style="stroke:#000000;stroke-width:0.8;" x="57.681818" xlink:href="#m3a34b89393" y="574.718644"/>
      </g>
     </g>
     <g id="text_57">
      <!-- 0 -->
      <g transform="translate(54.500568 589.317082)scale(0.1 -0.1)">
       <use xlink:href="#DejaVuSans-48"/>
      </g>
     </g>
    </g>
    <g id="xtick_42">
     <g id="line2d_66">
      <g>
       <use style="stroke:#000000;stroke-width:0.8;" x="113.548859" xlink:href="#m3a34b89393" y="574.718644"/>
      </g>
     </g>
     <g id="text_58">
      <!-- 50 -->
      <g transform="translate(107.186359 589.317082)scale(0.1 -0.1)">
       <use xlink:href="#DejaVuSans-53"/>
       <use x="63.623047" xlink:href="#DejaVuSans-48"/>
      </g>
     </g>
    </g>
    <g id="xtick_43">
     <g id="line2d_67">
      <g>
       <use style="stroke:#000000;stroke-width:0.8;" x="169.415899" xlink:href="#m3a34b89393" y="574.718644"/>
      </g>
     </g>
     <g id="text_59">
      <!-- 100 -->
      <g transform="translate(159.872149 589.317082)scale(0.1 -0.1)">
       <use xlink:href="#DejaVuSans-49"/>
       <use x="63.623047" xlink:href="#DejaVuSans-48"/>
       <use x="127.246094" xlink:href="#DejaVuSans-48"/>
      </g>
     </g>
    </g>
    <g id="xtick_44">
     <g id="line2d_68">
      <g>
       <use style="stroke:#000000;stroke-width:0.8;" x="225.28294" xlink:href="#m3a34b89393" y="574.718644"/>
      </g>
     </g>
     <g id="text_60">
      <!-- 150 -->
      <g transform="translate(215.73919 589.317082)scale(0.1 -0.1)">
       <use xlink:href="#DejaVuSans-49"/>
       <use x="63.623047" xlink:href="#DejaVuSans-53"/>
       <use x="127.246094" xlink:href="#DejaVuSans-48"/>
      </g>
     </g>
    </g>
    <g id="xtick_45">
     <g id="line2d_69">
      <g>
       <use style="stroke:#000000;stroke-width:0.8;" x="281.14998" xlink:href="#m3a34b89393" y="574.718644"/>
      </g>
     </g>
     <g id="text_61">
      <!-- 200 -->
      <g transform="translate(271.60623 589.317082)scale(0.1 -0.1)">
       <use xlink:href="#DejaVuSans-50"/>
       <use x="63.623047" xlink:href="#DejaVuSans-48"/>
       <use x="127.246094" xlink:href="#DejaVuSans-48"/>
      </g>
     </g>
    </g>
   </g>
   <g id="matplotlib.axis_18">
    <g id="ytick_17">
     <g id="line2d_70">
      <g>
       <use style="stroke:#000000;stroke-width:0.8;" x="45" xlink:href="#m372a6ded50" y="572.624655"/>
      </g>
     </g>
     <g id="text_62">
      <!-- 0 -->
      <g transform="translate(31.6375 576.423874)scale(0.1 -0.1)">
       <use xlink:href="#DejaVuSans-48"/>
      </g>
     </g>
    </g>
    <g id="ytick_18">
     <g id="line2d_71">
      <g>
       <use style="stroke:#000000;stroke-width:0.8;" x="45" xlink:href="#m372a6ded50" y="537.85867"/>
      </g>
     </g>
     <g id="text_63">
      <!-- 500000 -->
      <g transform="translate(-0.175 541.657889)scale(0.1 -0.1)">
       <use xlink:href="#DejaVuSans-53"/>
       <use x="63.623047" xlink:href="#DejaVuSans-48"/>
       <use x="127.246094" xlink:href="#DejaVuSans-48"/>
       <use x="190.869141" xlink:href="#DejaVuSans-48"/>
       <use x="254.492188" xlink:href="#DejaVuSans-48"/>
       <use x="318.115234" xlink:href="#DejaVuSans-48"/>
      </g>
     </g>
    </g>
   </g>
   <g id="line2d_72">
    <path clip-path="url(#p60b5c3e725)" d="M 57.681818 572.624653 
L 66.620545 572.525456 
L 68.855226 572.276945 
L 71.089908 571.741991 
L 73.32459 570.862022 
L 74.44193 570.234031 
L 75.559271 569.361916 
L 76.676612 568.069732 
L 77.793953 566.134681 
L 78.911294 563.365285 
L 80.028634 559.719622 
L 83.380657 547.092186 
L 84.497998 544.510339 
L 85.615338 543.710681 
L 86.732679 544.788847 
L 87.85002 547.431586 
L 91.202042 558.477001 
L 92.319383 561.313149 
L 93.436724 563.260949 
L 94.554065 564.34502 
L 95.671406 564.717631 
L 96.788746 564.592105 
L 97.906087 564.174203 
L 99.023428 563.596917 
L 100.140769 562.85827 
L 101.25811 561.788278 
L 102.375451 560.089739 
L 103.492791 557.477187 
L 104.610132 553.883727 
L 106.844814 545.456927 
L 107.962155 542.27232 
L 109.079495 540.831109 
L 110.196836 541.394031 
L 111.314177 543.634864 
L 114.666199 552.882659 
L 115.78354 554.857491 
L 116.900881 556.048537 
L 118.018222 556.667942 
L 121.370244 557.681309 
L 124.722267 559.234736 
L 125.839608 559.363838 
L 126.956948 559.022211 
L 128.074289 558.139694 
L 129.19163 556.761316 
L 133.660993 550.036141 
L 134.778334 548.870722 
L 135.895675 548.015904 
L 137.013016 547.507771 
L 138.130356 547.438246 
L 139.247697 547.913734 
L 140.365038 548.951271 
L 142.59972 551.772111 
L 143.71706 552.545264 
L 144.834401 552.08548 
L 145.951742 550.016767 
L 147.069083 546.433637 
L 149.303765 537.860012 
L 150.421105 535.202577 
L 151.538446 534.894487 
L 152.655787 537.126825 
L 153.773128 541.394111 
L 156.007809 552.174363 
L 157.12515 556.895373 
L 158.242491 560.484186 
L 159.359832 562.790147 
L 160.477173 563.778477 
L 161.594513 563.391034 
L 162.711854 561.511433 
L 163.829195 558.056441 
L 164.946536 553.147207 
L 167.181217 541.293188 
L 168.298558 536.327352 
L 169.415899 533.384662 
L 170.53324 533.056744 
L 171.650581 535.323595 
L 172.767922 539.597302 
L 176.119944 555.445283 
L 177.237285 559.475604 
L 178.354626 562.50037 
L 179.471966 564.64044 
L 180.589307 566.067723 
L 181.706648 566.88585 
L 182.823989 567.057987 
L 183.94133 566.402287 
L 185.05867 564.654356 
L 186.176011 561.587301 
L 187.293352 557.162257 
L 189.528034 545.650746 
L 190.645374 540.003059 
L 191.762715 535.543407 
L 192.880056 532.877024 
L 193.997397 532.227934 
L 195.114738 533.435775 
L 196.232078 536.06921 
L 199.584101 546.860199 
L 200.701442 549.566111 
L 201.818783 551.009709 
L 202.936123 550.872076 
L 204.053464 549.097296 
L 205.170805 546.007458 
L 206.288146 542.327655 
L 207.405487 539.057116 
L 208.522827 537.186971 
L 209.640168 537.373887 
L 210.757509 539.729337 
L 211.87485 543.826359 
L 215.226872 558.961185 
L 216.344213 562.931344 
L 217.461554 565.946036 
L 218.578895 568.047302 
L 219.696235 569.367732 
L 220.813576 570.071202 
L 221.930917 570.312688 
L 223.048258 570.217661 
L 224.165599 569.877394 
L 226.40028 568.736739 
L 230.869644 565.94096 
L 231.986984 564.917368 
L 233.104325 563.443025 
L 234.221666 561.340405 
L 235.339007 558.495662 
L 236.456348 554.875897 
L 237.573688 550.539189 
L 240.925711 535.961084 
L 242.043052 532.431802 
L 243.160392 530.744838 
L 244.277733 531.347962 
L 245.395074 534.212344 
L 246.512415 538.794316 
L 248.747097 549.519826 
L 249.864437 554.031475 
L 250.981778 557.404495 
L 252.099119 559.62847 
L 253.21646 560.877758 
L 254.333801 561.359726 
L 255.451141 561.225902 
L 256.568482 560.572996 
L 257.685823 559.508393 
L 259.920505 557.015401 
L 261.037845 556.238952 
L 262.155186 556.193465 
L 263.272527 557.02096 
L 264.389868 558.657979 
L 266.624549 563.296611 
L 267.74189 565.623025 
L 268.859231 567.587752 
L 269.976572 569.062184 
L 271.093913 570.043225 
L 272.211254 570.619259 
L 273.328594 570.919433 
L 275.563276 571.153306 
L 280.032639 571.39708 
L 282.267321 571.290958 
L 284.502002 570.920249 
L 286.736684 570.503893 
L 287.854025 570.398008 
L 288.971366 570.404904 
L 291.206047 570.724528 
L 295.67541 571.591181 
L 301.262115 572.322654 
L 304.614137 572.56201 
L 310.200841 572.623912 
L 311.318182 572.624387 
L 311.318182 572.624387 
" style="fill:none;stroke:#1f77b4;stroke-linecap:square;stroke-width:1.5;"/>
   </g>
   <g id="patch_43">
    <path d="M 45 574.718644 
L 45 528.650847 
" style="fill:none;stroke:#000000;stroke-linecap:square;stroke-linejoin:miter;stroke-width:0.8;"/>
   </g>
   <g id="patch_44">
    <path d="M 324 574.718644 
L 324 528.650847 
" style="fill:none;stroke:#000000;stroke-linecap:square;stroke-linejoin:miter;stroke-width:0.8;"/>
   </g>
   <g id="patch_45">
    <path d="M 45 574.718644 
L 324 574.718644 
" style="fill:none;stroke:#000000;stroke-linecap:square;stroke-linejoin:miter;stroke-width:0.8;"/>
   </g>
   <g id="patch_46">
    <path d="M 45 528.650847 
L 324 528.650847 
" style="fill:none;stroke:#000000;stroke-linecap:square;stroke-linejoin:miter;stroke-width:0.8;"/>
   </g>
  </g>
  <g id="axes_10">
   <g id="patch_47">
    <path d="M 45 630 
L 324 630 
L 324 583.932203 
L 45 583.932203 
z
" style="fill:none;"/>
   </g>
   <g id="matplotlib.axis_19">
    <g id="xtick_46">
     <g id="line2d_73">
      <g>
       <use style="stroke:#000000;stroke-width:0.8;" x="57.681818" xlink:href="#m3a34b89393" y="630"/>
      </g>
     </g>
     <g id="text_64">
      <!-- 0 -->
      <g transform="translate(54.500568 644.598437)scale(0.1 -0.1)">
       <use xlink:href="#DejaVuSans-48"/>
      </g>
     </g>
    </g>
    <g id="xtick_47">
     <g id="line2d_74">
      <g>
       <use style="stroke:#000000;stroke-width:0.8;" x="113.548859" xlink:href="#m3a34b89393" y="630"/>
      </g>
     </g>
     <g id="text_65">
      <!-- 50 -->
      <g transform="translate(107.186359 644.598437)scale(0.1 -0.1)">
       <use xlink:href="#DejaVuSans-53"/>
       <use x="63.623047" xlink:href="#DejaVuSans-48"/>
      </g>
     </g>
    </g>
    <g id="xtick_48">
     <g id="line2d_75">
      <g>
       <use style="stroke:#000000;stroke-width:0.8;" x="169.415899" xlink:href="#m3a34b89393" y="630"/>
      </g>
     </g>
     <g id="text_66">
      <!-- 100 -->
      <g transform="translate(159.872149 644.598437)scale(0.1 -0.1)">
       <use xlink:href="#DejaVuSans-49"/>
       <use x="63.623047" xlink:href="#DejaVuSans-48"/>
       <use x="127.246094" xlink:href="#DejaVuSans-48"/>
      </g>
     </g>
    </g>
    <g id="xtick_49">
     <g id="line2d_76">
      <g>
       <use style="stroke:#000000;stroke-width:0.8;" x="225.28294" xlink:href="#m3a34b89393" y="630"/>
      </g>
     </g>
     <g id="text_67">
      <!-- 150 -->
      <g transform="translate(215.73919 644.598437)scale(0.1 -0.1)">
       <use xlink:href="#DejaVuSans-49"/>
       <use x="63.623047" xlink:href="#DejaVuSans-53"/>
       <use x="127.246094" xlink:href="#DejaVuSans-48"/>
      </g>
     </g>
    </g>
    <g id="xtick_50">
     <g id="line2d_77">
      <g>
       <use style="stroke:#000000;stroke-width:0.8;" x="281.14998" xlink:href="#m3a34b89393" y="630"/>
      </g>
     </g>
     <g id="text_68">
      <!-- 200 -->
      <g transform="translate(271.60623 644.598437)scale(0.1 -0.1)">
       <use xlink:href="#DejaVuSans-50"/>
       <use x="63.623047" xlink:href="#DejaVuSans-48"/>
       <use x="127.246094" xlink:href="#DejaVuSans-48"/>
      </g>
     </g>
    </g>
   </g>
   <g id="matplotlib.axis_20">
    <g id="ytick_19">
     <g id="line2d_78">
      <g>
       <use style="stroke:#000000;stroke-width:0.8;" x="45" xlink:href="#m372a6ded50" y="627.90601"/>
      </g>
     </g>
     <g id="text_69">
      <!-- 0 -->
      <g transform="translate(31.6375 631.705228)scale(0.1 -0.1)">
       <use xlink:href="#DejaVuSans-48"/>
      </g>
     </g>
    </g>
    <g id="ytick_20">
     <g id="line2d_79">
      <g>
       <use style="stroke:#000000;stroke-width:0.8;" x="45" xlink:href="#m372a6ded50" y="601.408762"/>
      </g>
     </g>
     <g id="text_70">
      <!-- 500000 -->
      <g transform="translate(-0.175 605.207981)scale(0.1 -0.1)">
       <use xlink:href="#DejaVuSans-53"/>
       <use x="63.623047" xlink:href="#DejaVuSans-48"/>
       <use x="127.246094" xlink:href="#DejaVuSans-48"/>
       <use x="190.869141" xlink:href="#DejaVuSans-48"/>
       <use x="254.492188" xlink:href="#DejaVuSans-48"/>
       <use x="318.115234" xlink:href="#DejaVuSans-48"/>
      </g>
     </g>
    </g>
   </g>
   <g id="line2d_80">
    <path clip-path="url(#pff6bf61a69)" d="M 57.681818 627.906009 
L 68.855226 627.809103 
L 72.207249 627.537421 
L 74.44193 627.156183 
L 75.559271 626.814663 
L 76.676612 626.27239 
L 77.793953 625.427995 
L 78.911294 624.196107 
L 80.028634 622.559557 
L 83.380657 616.845412 
L 84.497998 615.666454 
L 85.615338 615.293599 
L 86.732679 615.776497 
L 87.85002 616.980467 
L 92.319383 623.466383 
L 93.436724 624.414546 
L 94.554065 624.95504 
L 95.671406 625.140368 
L 96.788746 625.045804 
L 97.906087 624.728371 
L 99.023428 624.183054 
L 100.140769 623.298357 
L 101.25811 621.83564 
L 102.375451 619.475693 
L 103.492791 615.958639 
L 104.610132 611.290048 
L 106.844814 600.703765 
L 107.962155 596.744993 
L 109.079495 594.911205 
L 110.196836 595.515497 
L 111.314177 598.196517 
L 114.666199 609.991612 
L 115.78354 612.825623 
L 116.900881 614.760232 
L 118.018222 615.990701 
L 119.135563 616.806852 
L 121.370244 618.185326 
L 123.604926 619.693384 
L 124.722267 620.191214 
L 125.839608 620.225584 
L 126.956948 619.625141 
L 128.074289 618.342579 
L 129.19163 616.493957 
L 131.426312 612.21921 
L 132.543652 610.414397 
L 133.660993 609.087154 
L 134.778334 608.253382 
L 135.895675 607.849645 
L 137.013016 607.824914 
L 138.130356 608.183904 
L 139.247697 608.951833 
L 142.59972 612.182342 
L 143.71706 612.090022 
L 144.834401 610.429424 
L 145.951742 606.888904 
L 147.069083 601.688974 
L 149.303765 590.210751 
L 150.421105 586.668141 
L 151.538446 586.026194 
L 152.655787 588.471063 
L 153.773128 593.385435 
L 157.12515 611.744511 
L 158.242491 616.211184 
L 159.359832 619.365224 
L 160.477173 621.304072 
L 161.594513 622.163654 
L 162.711854 622.038635 
L 163.829195 620.998469 
L 164.946536 619.164363 
L 168.298558 612.144827 
L 169.415899 610.809352 
L 170.53324 610.530947 
L 171.650581 611.296964 
L 172.767922 612.860835 
L 176.119944 618.773531 
L 177.237285 620.327906 
L 178.354626 621.570675 
L 179.471966 622.559947 
L 180.589307 623.344948 
L 181.706648 623.912554 
L 182.823989 624.159042 
L 183.94133 623.897023 
L 185.05867 622.899913 
L 186.176011 620.980096 
L 187.293352 618.082374 
L 188.410693 614.355947 
L 190.645374 606.012941 
L 191.762715 602.412129 
L 192.880056 599.759099 
L 193.997397 598.277109 
L 195.114738 598.028488 
L 196.232078 598.953592 
L 197.349419 600.881325 
L 200.701442 608.854851 
L 201.818783 610.333822 
L 202.936123 610.267278 
L 204.053464 608.418609 
L 205.170805 605.005651 
L 207.405487 596.727898 
L 208.522827 594.087645 
L 209.640168 593.634762 
L 210.757509 595.578831 
L 211.87485 599.507464 
L 215.226872 614.876226 
L 216.344213 618.916517 
L 217.461554 621.951376 
L 218.578895 624.043521 
L 219.696235 625.357744 
L 220.813576 626.086819 
L 221.930917 626.404163 
L 223.048258 626.441372 
L 224.165599 626.285811 
L 226.40028 625.614032 
L 229.752303 624.266708 
L 231.986984 623.117306 
L 233.104325 622.273365 
L 234.221666 621.147582 
L 235.339007 619.695174 
L 236.456348 617.896878 
L 237.573688 615.754476 
L 239.80837 610.669413 
L 240.925711 608.071037 
L 242.043052 605.848724 
L 243.160392 604.375538 
L 244.277733 603.939681 
L 245.395074 604.631058 
L 246.512415 606.298389 
L 248.747097 611.146975 
L 249.864437 613.591144 
L 250.981778 615.736306 
L 252.099119 617.514693 
L 253.21646 618.93447 
L 254.333801 620.016818 
L 255.451141 620.76302 
L 256.568482 621.164474 
L 257.685823 621.239435 
L 259.920505 620.793715 
L 261.037845 620.601944 
L 262.155186 620.655117 
L 263.272527 621.046062 
L 264.389868 621.772082 
L 266.624549 623.825417 
L 268.859231 625.765028 
L 269.976572 626.450717 
L 271.093913 626.920067 
L 272.211254 627.206255 
L 274.445935 627.436978 
L 278.915298 627.500318 
L 282.267321 627.389666 
L 287.854025 626.977898 
L 290.088706 627.060274 
L 297.910092 627.692528 
L 304.614137 627.888918 
L 311.318182 627.905937 
L 311.318182 627.905937 
" style="fill:none;stroke:#1f77b4;stroke-linecap:square;stroke-width:1.5;"/>
   </g>
   <g id="patch_48">
    <path d="M 45 630 
L 45 583.932203 
" style="fill:none;stroke:#000000;stroke-linecap:square;stroke-linejoin:miter;stroke-width:0.8;"/>
   </g>
   <g id="patch_49">
    <path d="M 324 630 
L 324 583.932203 
" style="fill:none;stroke:#000000;stroke-linecap:square;stroke-linejoin:miter;stroke-width:0.8;"/>
   </g>
   <g id="patch_50">
    <path d="M 45 630 
L 324 630 
" style="fill:none;stroke:#000000;stroke-linecap:square;stroke-linejoin:miter;stroke-width:0.8;"/>
   </g>
   <g id="patch_51">
    <path d="M 45 583.932203 
L 324 583.932203 
" style="fill:none;stroke:#000000;stroke-linecap:square;stroke-linejoin:miter;stroke-width:0.8;"/>
   </g>
  </g>
 </g>
 <defs>
  <clipPath id="p535934e767">
   <rect height="46.067797" width="279" x="45" y="86.4"/>
  </clipPath>
  <clipPath id="p0aa5b1db91">
   <rect height="46.067797" width="279" x="45" y="141.681356"/>
  </clipPath>
  <clipPath id="pc7aa9cf517">
   <rect height="46.067797" width="279" x="45" y="196.962712"/>
  </clipPath>
  <clipPath id="p338a87fdad">
   <rect height="46.067797" width="279" x="45" y="252.244068"/>
  </clipPath>
  <clipPath id="p07122a04a7">
   <rect height="46.067797" width="279" x="45" y="307.525424"/>
  </clipPath>
  <clipPath id="p7643620da9">
   <rect height="46.067797" width="279" x="45" y="362.80678"/>
  </clipPath>
  <clipPath id="p5d26694c2c">
   <rect height="46.067797" width="279" x="45" y="418.088136"/>
  </clipPath>
  <clipPath id="pfcf3099e4d">
   <rect height="46.067797" width="279" x="45" y="473.369492"/>
  </clipPath>
  <clipPath id="p60b5c3e725">
   <rect height="46.067797" width="279" x="45" y="528.650847"/>
  </clipPath>
  <clipPath id="pff6bf61a69">
   <rect height="46.067797" width="279" x="45" y="583.932203"/>
  </clipPath>
 </defs>
</svg>
