<?xml version="1.0" encoding="utf-8" standalone="no"?>
<!DOCTYPE svg PUBLIC "-//W3C//DTD SVG 1.1//EN"
  "http://www.w3.org/Graphics/SVG/1.1/DTD/svg11.dtd">
<!-- Created with matplotlib (https://matplotlib.org/) -->
<svg height="720pt" version="1.1" viewBox="0 0 360 720" width="360pt" xmlns="http://www.w3.org/2000/svg" xmlns:xlink="http://www.w3.org/1999/xlink">
 <metadata>
  <rdf:RDF xmlns:cc="http://creativecommons.org/ns#" xmlns:dc="http://purl.org/dc/elements/1.1/" xmlns:rdf="http://www.w3.org/1999/02/22-rdf-syntax-ns#">
   <cc:Work>
    <dc:type rdf:resource="http://purl.org/dc/dcmitype/StillImage"/>
    <dc:date>2020-09-19T23:32:18.773193</dc:date>
    <dc:format>image/svg+xml</dc:format>
    <dc:creator>
     <cc:Agent>
      <dc:title>Matplotlib v3.3.1, https://matplotlib.org/</dc:title>
     </cc:Agent>
    </dc:creator>
   </cc:Work>
  </rdf:RDF>
 </metadata>
 <defs>
  <style type="text/css">*{stroke-linecap:butt;stroke-linejoin:round;}</style>
 </defs>
 <g id="figure_1">
  <g id="patch_1">
   <path d="M 0 720 
L 360 720 
L 360 0 
L 0 0 
z
" style="fill:none;"/>
  </g>
  <g id="axes_1">
   <g id="patch_2">
    <path d="M 45 132.467797 
L 324 132.467797 
L 324 86.4 
L 45 86.4 
z
" style="fill:none;"/>
   </g>
   <g id="matplotlib.axis_1">
    <g id="xtick_1">
     <g id="line2d_1">
      <defs>
       <path d="M 0 0 
L 0 3.5 
" id="m164b3cadf1" style="stroke:#000000;stroke-width:0.8;"/>
      </defs>
      <g>
       <use style="stroke:#000000;stroke-width:0.8;" x="57.681818" xlink:href="#m164b3cadf1" y="132.467797"/>
      </g>
     </g>
     <g id="text_1">
      <!-- 0 -->
      <g transform="translate(54.500568 147.066234)scale(0.1 -0.1)">
       <defs>
        <path d="M 31.78125 66.40625 
Q 24.171875 66.40625 20.328125 58.90625 
Q 16.5 51.421875 16.5 36.375 
Q 16.5 21.390625 20.328125 13.890625 
Q 24.171875 6.390625 31.78125 6.390625 
Q 39.453125 6.390625 43.28125 13.890625 
Q 47.125 21.390625 47.125 36.375 
Q 47.125 51.421875 43.28125 58.90625 
Q 39.453125 66.40625 31.78125 66.40625 
z
M 31.78125 74.21875 
Q 44.046875 74.21875 50.515625 64.515625 
Q 56.984375 54.828125 56.984375 36.375 
Q 56.984375 17.96875 50.515625 8.265625 
Q 44.046875 -1.421875 31.78125 -1.421875 
Q 19.53125 -1.421875 13.0625 8.265625 
Q 6.59375 17.96875 6.59375 36.375 
Q 6.59375 54.828125 13.0625 64.515625 
Q 19.53125 74.21875 31.78125 74.21875 
z
" id="DejaVuSans-48"/>
       </defs>
       <use xlink:href="#DejaVuSans-48"/>
      </g>
     </g>
    </g>
    <g id="xtick_2">
     <g id="line2d_2">
      <g>
       <use style="stroke:#000000;stroke-width:0.8;" x="113.796058" xlink:href="#m164b3cadf1" y="132.467797"/>
      </g>
     </g>
     <g id="text_2">
      <!-- 50 -->
      <g transform="translate(107.433558 147.066234)scale(0.1 -0.1)">
       <defs>
        <path d="M 10.796875 72.90625 
L 49.515625 72.90625 
L 49.515625 64.59375 
L 19.828125 64.59375 
L 19.828125 46.734375 
Q 21.96875 47.46875 24.109375 47.828125 
Q 26.265625 48.1875 28.421875 48.1875 
Q 40.625 48.1875 47.75 41.5 
Q 54.890625 34.8125 54.890625 23.390625 
Q 54.890625 11.625 47.5625 5.09375 
Q 40.234375 -1.421875 26.90625 -1.421875 
Q 22.3125 -1.421875 17.546875 -0.640625 
Q 12.796875 0.140625 7.71875 1.703125 
L 7.71875 11.625 
Q 12.109375 9.234375 16.796875 8.0625 
Q 21.484375 6.890625 26.703125 6.890625 
Q 35.15625 6.890625 40.078125 11.328125 
Q 45.015625 15.765625 45.015625 23.390625 
Q 45.015625 31 40.078125 35.4375 
Q 35.15625 39.890625 26.703125 39.890625 
Q 22.75 39.890625 18.8125 39.015625 
Q 14.890625 38.140625 10.796875 36.28125 
z
" id="DejaVuSans-53"/>
       </defs>
       <use xlink:href="#DejaVuSans-53"/>
       <use x="63.623047" xlink:href="#DejaVuSans-48"/>
      </g>
     </g>
    </g>
    <g id="xtick_3">
     <g id="line2d_3">
      <g>
       <use style="stroke:#000000;stroke-width:0.8;" x="169.910298" xlink:href="#m164b3cadf1" y="132.467797"/>
      </g>
     </g>
     <g id="text_3">
      <!-- 100 -->
      <g transform="translate(160.366548 147.066234)scale(0.1 -0.1)">
       <defs>
        <path d="M 12.40625 8.296875 
L 28.515625 8.296875 
L 28.515625 63.921875 
L 10.984375 60.40625 
L 10.984375 69.390625 
L 28.421875 72.90625 
L 38.28125 72.90625 
L 38.28125 8.296875 
L 54.390625 8.296875 
L 54.390625 0 
L 12.40625 0 
z
" id="DejaVuSans-49"/>
       </defs>
       <use xlink:href="#DejaVuSans-49"/>
       <use x="63.623047" xlink:href="#DejaVuSans-48"/>
       <use x="127.246094" xlink:href="#DejaVuSans-48"/>
      </g>
     </g>
    </g>
    <g id="xtick_4">
     <g id="line2d_4">
      <g>
       <use style="stroke:#000000;stroke-width:0.8;" x="226.024537" xlink:href="#m164b3cadf1" y="132.467797"/>
      </g>
     </g>
     <g id="text_4">
      <!-- 150 -->
      <g transform="translate(216.480787 147.066234)scale(0.1 -0.1)">
       <use xlink:href="#DejaVuSans-49"/>
       <use x="63.623047" xlink:href="#DejaVuSans-53"/>
       <use x="127.246094" xlink:href="#DejaVuSans-48"/>
      </g>
     </g>
    </g>
    <g id="xtick_5">
     <g id="line2d_5">
      <g>
       <use style="stroke:#000000;stroke-width:0.8;" x="282.138777" xlink:href="#m164b3cadf1" y="132.467797"/>
      </g>
     </g>
     <g id="text_5">
      <!-- 200 -->
      <g transform="translate(272.595027 147.066234)scale(0.1 -0.1)">
       <defs>
        <path d="M 19.1875 8.296875 
L 53.609375 8.296875 
L 53.609375 0 
L 7.328125 0 
L 7.328125 8.296875 
Q 12.9375 14.109375 22.625 23.890625 
Q 32.328125 33.6875 34.8125 36.53125 
Q 39.546875 41.84375 41.421875 45.53125 
Q 43.3125 49.21875 43.3125 52.78125 
Q 43.3125 58.59375 39.234375 62.25 
Q 35.15625 65.921875 28.609375 65.921875 
Q 23.96875 65.921875 18.8125 64.3125 
Q 13.671875 62.703125 7.8125 59.421875 
L 7.8125 69.390625 
Q 13.765625 71.78125 18.9375 73 
Q 24.125 74.21875 28.421875 74.21875 
Q 39.75 74.21875 46.484375 68.546875 
Q 53.21875 62.890625 53.21875 53.421875 
Q 53.21875 48.921875 51.53125 44.890625 
Q 49.859375 40.875 45.40625 35.40625 
Q 44.1875 33.984375 37.640625 27.21875 
Q 31.109375 20.453125 19.1875 8.296875 
z
" id="DejaVuSans-50"/>
       </defs>
       <use xlink:href="#DejaVuSans-50"/>
       <use x="63.623047" xlink:href="#DejaVuSans-48"/>
       <use x="127.246094" xlink:href="#DejaVuSans-48"/>
      </g>
     </g>
    </g>
   </g>
   <g id="matplotlib.axis_2">
    <g id="ytick_1">
     <g id="line2d_6">
      <defs>
       <path d="M 0 0 
L -3.5 0 
" id="m645cc205d1" style="stroke:#000000;stroke-width:0.8;"/>
      </defs>
      <g>
       <use style="stroke:#000000;stroke-width:0.8;" x="45" xlink:href="#m645cc205d1" y="130.373806"/>
      </g>
     </g>
     <g id="text_6">
      <!-- 0 -->
      <g transform="translate(31.6375 134.173025)scale(0.1 -0.1)">
       <use xlink:href="#DejaVuSans-48"/>
      </g>
     </g>
    </g>
    <g id="ytick_2">
     <g id="line2d_7">
      <g>
       <use style="stroke:#000000;stroke-width:0.8;" x="45" xlink:href="#m645cc205d1" y="91.414413"/>
      </g>
     </g>
     <g id="text_7">
      <!-- 5 -->
      <g transform="translate(31.6375 95.213632)scale(0.1 -0.1)">
       <use xlink:href="#DejaVuSans-53"/>
      </g>
     </g>
    </g>
    <g id="text_8">
     <!-- 1e6 -->
     <g transform="translate(45 83.4)scale(0.1 -0.1)">
      <defs>
       <path d="M 56.203125 29.59375 
L 56.203125 25.203125 
L 14.890625 25.203125 
Q 15.484375 15.921875 20.484375 11.0625 
Q 25.484375 6.203125 34.421875 6.203125 
Q 39.59375 6.203125 44.453125 7.46875 
Q 49.3125 8.734375 54.109375 11.28125 
L 54.109375 2.78125 
Q 49.265625 0.734375 44.1875 -0.34375 
Q 39.109375 -1.421875 33.890625 -1.421875 
Q 20.796875 -1.421875 13.15625 6.1875 
Q 5.515625 13.8125 5.515625 26.8125 
Q 5.515625 40.234375 12.765625 48.109375 
Q 20.015625 56 32.328125 56 
Q 43.359375 56 49.78125 48.890625 
Q 56.203125 41.796875 56.203125 29.59375 
z
M 47.21875 32.234375 
Q 47.125 39.59375 43.09375 43.984375 
Q 39.0625 48.390625 32.421875 48.390625 
Q 24.90625 48.390625 20.390625 44.140625 
Q 15.875 39.890625 15.1875 32.171875 
z
" id="DejaVuSans-101"/>
       <path d="M 33.015625 40.375 
Q 26.375 40.375 22.484375 35.828125 
Q 18.609375 31.296875 18.609375 23.390625 
Q 18.609375 15.53125 22.484375 10.953125 
Q 26.375 6.390625 33.015625 6.390625 
Q 39.65625 6.390625 43.53125 10.953125 
Q 47.40625 15.53125 47.40625 23.390625 
Q 47.40625 31.296875 43.53125 35.828125 
Q 39.65625 40.375 33.015625 40.375 
z
M 52.59375 71.296875 
L 52.59375 62.3125 
Q 48.875 64.0625 45.09375 64.984375 
Q 41.3125 65.921875 37.59375 65.921875 
Q 27.828125 65.921875 22.671875 59.328125 
Q 17.53125 52.734375 16.796875 39.40625 
Q 19.671875 43.65625 24.015625 45.921875 
Q 28.375 48.1875 33.59375 48.1875 
Q 44.578125 48.1875 50.953125 41.515625 
Q 57.328125 34.859375 57.328125 23.390625 
Q 57.328125 12.15625 50.6875 5.359375 
Q 44.046875 -1.421875 33.015625 -1.421875 
Q 20.359375 -1.421875 13.671875 8.265625 
Q 6.984375 17.96875 6.984375 36.375 
Q 6.984375 53.65625 15.1875 63.9375 
Q 23.390625 74.21875 37.203125 74.21875 
Q 40.921875 74.21875 44.703125 73.484375 
Q 48.484375 72.75 52.59375 71.296875 
z
" id="DejaVuSans-54"/>
      </defs>
      <use xlink:href="#DejaVuSans-49"/>
      <use x="63.623047" xlink:href="#DejaVuSans-101"/>
      <use x="125.146484" xlink:href="#DejaVuSans-54"/>
     </g>
    </g>
   </g>
   <g id="line2d_8">
    <path clip-path="url(#p97610b9824)" d="M 57.681818 130.373806 
L 84.616653 130.373796 
L 85.738938 130.229347 
L 86.861223 129.911357 
L 87.983508 129.060252 
L 89.105792 128.647472 
L 90.228077 122.655257 
L 91.350362 95.087857 
L 92.472647 88.493991 
L 93.594932 94.058841 
L 94.717216 114.974666 
L 95.839501 120.07846 
L 96.961786 120.838597 
L 98.084071 126.885592 
L 99.206356 127.561276 
L 100.32864 128.733811 
L 101.450925 128.668268 
L 104.81778 129.036542 
L 105.940064 129.575302 
L 107.062349 129.591817 
L 109.306919 128.317444 
L 110.429204 128.341585 
L 111.551488 127.845308 
L 112.673773 127.19204 
L 113.796058 127.173561 
L 114.918343 126.454077 
L 116.040628 126.775847 
L 117.162912 126.4327 
L 118.285197 126.425213 
L 119.407482 127.312866 
L 120.529767 128.008804 
L 121.652051 128.357737 
L 122.774336 128.472727 
L 123.896621 129.05635 
L 125.018906 130.220096 
L 126.141191 130.350818 
L 133.997184 130.369149 
L 135.119469 130.204901 
L 136.241754 128.78553 
L 137.364039 128.556617 
L 138.486323 129.013053 
L 139.608608 128.182413 
L 140.730893 124.764344 
L 141.853178 126.579084 
L 142.975463 123.690568 
L 144.097747 124.202412 
L 145.220032 128.164002 
L 146.342317 130.151813 
L 147.464602 130.355255 
L 154.198311 130.362297 
L 155.320595 130.315522 
L 156.44288 127.708371 
L 157.565165 127.221419 
L 158.68745 122.630907 
L 159.809735 125.448971 
L 160.932019 126.474857 
L 162.054304 126.182911 
L 163.176589 127.444345 
L 164.298874 127.385278 
L 165.421158 129.326676 
L 166.543443 128.297089 
L 167.665728 128.640839 
L 169.910298 129.827608 
L 171.032582 130.19287 
L 172.154867 130.263144 
L 173.277152 129.929761 
L 174.399437 127.211092 
L 175.521722 125.795722 
L 176.644006 127.712373 
L 177.766291 128.336577 
L 178.888576 128.100387 
L 180.010861 127.70771 
L 181.133146 125.769404 
L 182.25543 128.303607 
L 187.866854 129.714261 
L 188.989139 129.571339 
L 190.111424 129.579743 
L 191.233709 129.832777 
L 195.722848 129.112544 
L 196.845133 128.090529 
L 197.967418 124.6162 
L 199.089702 124.33175 
L 200.211987 126.169478 
L 201.334272 125.74138 
L 202.456557 128.832884 
L 203.578842 128.877009 
L 205.823411 129.723765 
L 206.945696 129.849813 
L 208.067981 129.732985 
L 210.31255 129.723615 
L 211.434835 129.520452 
L 212.55712 129.6439 
L 213.679405 129.592118 
L 214.801689 129.903514 
L 215.923974 130.029233 
L 219.290829 129.990577 
L 220.413113 129.561143 
L 221.535398 129.386431 
L 222.657683 128.989055 
L 223.779968 129.01109 
L 224.902253 128.213125 
L 226.024537 128.301722 
L 227.146822 128.164698 
L 228.269107 129.693201 
L 229.391392 130.208493 
L 230.513677 130.355451 
L 232.758246 130.35656 
L 233.880531 129.659548 
L 235.002816 119.543178 
L 236.125101 120.932742 
L 237.247385 122.033967 
L 238.36967 118.216794 
L 239.491955 123.727943 
L 240.61424 125.651226 
L 241.736525 126.797504 
L 242.858809 127.120573 
L 243.981094 127.570774 
L 246.225664 129.57954 
L 247.347949 129.791228 
L 248.470233 129.629016 
L 250.714803 129.950163 
L 251.837088 129.916215 
L 254.081657 130.053895 
L 256.326227 129.999515 
L 257.448512 129.761273 
L 258.570796 129.084317 
L 259.693081 128.850771 
L 260.815366 129.27894 
L 261.937651 128.702882 
L 265.304505 129.665169 
L 266.42679 129.38733 
L 267.549075 130.008344 
L 272.038214 129.979964 
L 273.160499 129.72467 
L 274.282784 129.6359 
L 275.405068 128.75299 
L 276.527353 127.094355 
L 278.771923 125.238279 
L 279.894208 123.712611 
L 281.016492 123.053577 
L 282.138777 123.554453 
L 284.383347 129.190488 
L 285.505632 129.610227 
L 288.872486 130.042149 
L 291.117056 130.356422 
L 298.973049 130.373806 
L 311.318182 130.373806 
L 311.318182 130.373806 
" style="fill:none;stroke:#1f77b4;stroke-linecap:square;stroke-width:1.5;"/>
   </g>
   <g id="patch_3">
    <path d="M 45 132.467797 
L 45 86.4 
" style="fill:none;stroke:#000000;stroke-linecap:square;stroke-linejoin:miter;stroke-width:0.8;"/>
   </g>
   <g id="patch_4">
    <path d="M 324 132.467797 
L 324 86.4 
" style="fill:none;stroke:#000000;stroke-linecap:square;stroke-linejoin:miter;stroke-width:0.8;"/>
   </g>
   <g id="patch_5">
    <path d="M 45 132.467797 
L 324 132.467797 
" style="fill:none;stroke:#000000;stroke-linecap:square;stroke-linejoin:miter;stroke-width:0.8;"/>
   </g>
   <g id="patch_6">
    <path d="M 45 86.4 
L 324 86.4 
" style="fill:none;stroke:#000000;stroke-linecap:square;stroke-linejoin:miter;stroke-width:0.8;"/>
   </g>
  </g>
  <g id="axes_2">
   <g id="patch_7">
    <path d="M 45 187.749153 
L 324 187.749153 
L 324 141.681356 
L 45 141.681356 
z
" style="fill:none;"/>
   </g>
   <g id="matplotlib.axis_3">
    <g id="xtick_6">
     <g id="line2d_9">
      <g>
       <use style="stroke:#000000;stroke-width:0.8;" x="57.681818" xlink:href="#m164b3cadf1" y="187.749153"/>
      </g>
     </g>
     <g id="text_9">
      <!-- 0 -->
      <g transform="translate(54.500568 202.34759)scale(0.1 -0.1)">
       <use xlink:href="#DejaVuSans-48"/>
      </g>
     </g>
    </g>
    <g id="xtick_7">
     <g id="line2d_10">
      <g>
       <use style="stroke:#000000;stroke-width:0.8;" x="114.045455" xlink:href="#m164b3cadf1" y="187.749153"/>
      </g>
     </g>
     <g id="text_10">
      <!-- 50 -->
      <g transform="translate(107.682955 202.34759)scale(0.1 -0.1)">
       <use xlink:href="#DejaVuSans-53"/>
       <use x="63.623047" xlink:href="#DejaVuSans-48"/>
      </g>
     </g>
    </g>
    <g id="xtick_8">
     <g id="line2d_11">
      <g>
       <use style="stroke:#000000;stroke-width:0.8;" x="170.409091" xlink:href="#m164b3cadf1" y="187.749153"/>
      </g>
     </g>
     <g id="text_11">
      <!-- 100 -->
      <g transform="translate(160.865341 202.34759)scale(0.1 -0.1)">
       <use xlink:href="#DejaVuSans-49"/>
       <use x="63.623047" xlink:href="#DejaVuSans-48"/>
       <use x="127.246094" xlink:href="#DejaVuSans-48"/>
      </g>
     </g>
    </g>
    <g id="xtick_9">
     <g id="line2d_12">
      <g>
       <use style="stroke:#000000;stroke-width:0.8;" x="226.772727" xlink:href="#m164b3cadf1" y="187.749153"/>
      </g>
     </g>
     <g id="text_12">
      <!-- 150 -->
      <g transform="translate(217.228977 202.34759)scale(0.1 -0.1)">
       <use xlink:href="#DejaVuSans-49"/>
       <use x="63.623047" xlink:href="#DejaVuSans-53"/>
       <use x="127.246094" xlink:href="#DejaVuSans-48"/>
      </g>
     </g>
    </g>
    <g id="xtick_10">
     <g id="line2d_13">
      <g>
       <use style="stroke:#000000;stroke-width:0.8;" x="283.136364" xlink:href="#m164b3cadf1" y="187.749153"/>
      </g>
     </g>
     <g id="text_13">
      <!-- 200 -->
      <g transform="translate(273.592614 202.34759)scale(0.1 -0.1)">
       <use xlink:href="#DejaVuSans-50"/>
       <use x="63.623047" xlink:href="#DejaVuSans-48"/>
       <use x="127.246094" xlink:href="#DejaVuSans-48"/>
      </g>
     </g>
    </g>
   </g>
   <g id="matplotlib.axis_4">
    <g id="ytick_3">
     <g id="line2d_14">
      <g>
       <use style="stroke:#000000;stroke-width:0.8;" x="45" xlink:href="#m645cc205d1" y="185.655162"/>
      </g>
     </g>
     <g id="text_14">
      <!-- 0 -->
      <g transform="translate(31.6375 189.454381)scale(0.1 -0.1)">
       <use xlink:href="#DejaVuSans-48"/>
      </g>
     </g>
    </g>
    <g id="ytick_4">
     <g id="line2d_15">
      <g>
       <use style="stroke:#000000;stroke-width:0.8;" x="45" xlink:href="#m645cc205d1" y="146.514306"/>
      </g>
     </g>
     <g id="text_15">
      <!-- 5 -->
      <g transform="translate(31.6375 150.313524)scale(0.1 -0.1)">
       <use xlink:href="#DejaVuSans-53"/>
      </g>
     </g>
    </g>
    <g id="text_16">
     <!-- 1e6 -->
     <g transform="translate(45 138.681356)scale(0.1 -0.1)">
      <use xlink:href="#DejaVuSans-49"/>
      <use x="63.623047" xlink:href="#DejaVuSans-101"/>
      <use x="125.146484" xlink:href="#DejaVuSans-54"/>
     </g>
    </g>
   </g>
   <g id="line2d_16">
    <path clip-path="url(#p3a18132cbe)" d="M 57.681818 185.655162 
L 134.336364 185.655152 
L 135.463636 185.513696 
L 136.590909 185.183622 
L 137.718182 184.347253 
L 138.845455 183.9052 
L 139.972727 178.226407 
L 141.1 150.493295 
L 142.227273 143.775347 
L 143.354545 151.063081 
L 144.481818 171.436905 
L 146.736364 176.63176 
L 147.863636 182.151511 
L 150.118182 184.092699 
L 151.245455 183.905041 
L 152.372727 183.983324 
L 153.5 184.737876 
L 154.627273 185.080807 
L 156.881818 185.388529 
L 159.136364 185.118342 
L 160.263636 184.396689 
L 162.518182 181.916969 
L 163.645455 181.467761 
L 164.772727 181.961373 
L 167.027273 182.613044 
L 168.154545 184.134486 
L 169.281818 185.295626 
L 170.409091 185.607768 
L 177.172727 185.645293 
L 178.3 185.620304 
L 179.427273 181.364504 
L 180.554545 179.250731 
L 181.681818 180.906259 
L 182.809091 183.301498 
L 183.936364 184.682629 
L 186.190909 184.941685 
L 188.445455 184.92288 
L 189.572727 184.450941 
L 190.7 184.630824 
L 191.827273 185.299012 
L 192.954545 185.611332 
L 194.081818 185.632835 
L 195.209091 185.420826 
L 197.463636 185.615752 
L 198.590909 184.681997 
L 199.718182 181.495457 
L 200.845455 172.722043 
L 201.972727 171.206876 
L 203.1 165.313258 
L 204.227273 166.515175 
L 205.354545 171.544177 
L 206.481818 175.128852 
L 207.609091 177.9956 
L 208.736364 182.205813 
L 209.863636 184.059527 
L 210.990909 184.69184 
L 213.245455 185.213197 
L 214.372727 185.268805 
L 216.627273 184.952734 
L 220.009091 184.317337 
L 221.136364 184.269186 
L 222.263636 183.750169 
L 223.390909 182.142637 
L 224.518182 181.602838 
L 225.645455 182.113939 
L 226.772727 183.730121 
L 229.027273 184.586381 
L 230.154545 185.123 
L 232.409091 185.611056 
L 235.790909 185.655159 
L 311.318182 185.655162 
L 311.318182 185.655162 
" style="fill:none;stroke:#1f77b4;stroke-linecap:square;stroke-width:1.5;"/>
   </g>
   <g id="patch_8">
    <path d="M 45 187.749153 
L 45 141.681356 
" style="fill:none;stroke:#000000;stroke-linecap:square;stroke-linejoin:miter;stroke-width:0.8;"/>
   </g>
   <g id="patch_9">
    <path d="M 324 187.749153 
L 324 141.681356 
" style="fill:none;stroke:#000000;stroke-linecap:square;stroke-linejoin:miter;stroke-width:0.8;"/>
   </g>
   <g id="patch_10">
    <path d="M 45 187.749153 
L 324 187.749153 
" style="fill:none;stroke:#000000;stroke-linecap:square;stroke-linejoin:miter;stroke-width:0.8;"/>
   </g>
   <g id="patch_11">
    <path d="M 45 141.681356 
L 324 141.681356 
" style="fill:none;stroke:#000000;stroke-linecap:square;stroke-linejoin:miter;stroke-width:0.8;"/>
   </g>
  </g>
  <g id="axes_3">
   <g id="patch_12">
    <path d="M 45 243.030508 
L 324 243.030508 
L 324 196.962712 
L 45 196.962712 
z
" style="fill:none;"/>
   </g>
   <g id="matplotlib.axis_5">
    <g id="xtick_11">
     <g id="line2d_17">
      <g>
       <use style="stroke:#000000;stroke-width:0.8;" x="57.681818" xlink:href="#m164b3cadf1" y="243.030508"/>
      </g>
     </g>
     <g id="text_17">
      <!-- 0 -->
      <g transform="translate(54.500568 257.628946)scale(0.1 -0.1)">
       <use xlink:href="#DejaVuSans-48"/>
      </g>
     </g>
    </g>
    <g id="xtick_12">
     <g id="line2d_18">
      <g>
       <use style="stroke:#000000;stroke-width:0.8;" x="113.796058" xlink:href="#m164b3cadf1" y="243.030508"/>
      </g>
     </g>
     <g id="text_18">
      <!-- 50 -->
      <g transform="translate(107.433558 257.628946)scale(0.1 -0.1)">
       <use xlink:href="#DejaVuSans-53"/>
       <use x="63.623047" xlink:href="#DejaVuSans-48"/>
      </g>
     </g>
    </g>
    <g id="xtick_13">
     <g id="line2d_19">
      <g>
       <use style="stroke:#000000;stroke-width:0.8;" x="169.910298" xlink:href="#m164b3cadf1" y="243.030508"/>
      </g>
     </g>
     <g id="text_19">
      <!-- 100 -->
      <g transform="translate(160.366548 257.628946)scale(0.1 -0.1)">
       <use xlink:href="#DejaVuSans-49"/>
       <use x="63.623047" xlink:href="#DejaVuSans-48"/>
       <use x="127.246094" xlink:href="#DejaVuSans-48"/>
      </g>
     </g>
    </g>
    <g id="xtick_14">
     <g id="line2d_20">
      <g>
       <use style="stroke:#000000;stroke-width:0.8;" x="226.024537" xlink:href="#m164b3cadf1" y="243.030508"/>
      </g>
     </g>
     <g id="text_20">
      <!-- 150 -->
      <g transform="translate(216.480787 257.628946)scale(0.1 -0.1)">
       <use xlink:href="#DejaVuSans-49"/>
       <use x="63.623047" xlink:href="#DejaVuSans-53"/>
       <use x="127.246094" xlink:href="#DejaVuSans-48"/>
      </g>
     </g>
    </g>
    <g id="xtick_15">
     <g id="line2d_21">
      <g>
       <use style="stroke:#000000;stroke-width:0.8;" x="282.138777" xlink:href="#m164b3cadf1" y="243.030508"/>
      </g>
     </g>
     <g id="text_21">
      <!-- 200 -->
      <g transform="translate(272.595027 257.628946)scale(0.1 -0.1)">
       <use xlink:href="#DejaVuSans-50"/>
       <use x="63.623047" xlink:href="#DejaVuSans-48"/>
       <use x="127.246094" xlink:href="#DejaVuSans-48"/>
      </g>
     </g>
    </g>
   </g>
   <g id="matplotlib.axis_6">
    <g id="ytick_5">
     <g id="line2d_22">
      <g>
       <use style="stroke:#000000;stroke-width:0.8;" x="45" xlink:href="#m645cc205d1" y="240.936518"/>
      </g>
     </g>
     <g id="text_22">
      <!-- 0 -->
      <g transform="translate(31.6375 244.735736)scale(0.1 -0.1)">
       <use xlink:href="#DejaVuSans-48"/>
      </g>
     </g>
    </g>
    <g id="ytick_6">
     <g id="line2d_23">
      <g>
       <use style="stroke:#000000;stroke-width:0.8;" x="45" xlink:href="#m645cc205d1" y="207.853563"/>
      </g>
     </g>
     <g id="text_23">
      <!-- 5 -->
      <g transform="translate(31.6375 211.652782)scale(0.1 -0.1)">
       <use xlink:href="#DejaVuSans-53"/>
      </g>
     </g>
    </g>
    <g id="text_24">
     <!-- 1e6 -->
     <g transform="translate(45 193.962712)scale(0.1 -0.1)">
      <use xlink:href="#DejaVuSans-49"/>
      <use x="63.623047" xlink:href="#DejaVuSans-101"/>
      <use x="125.146484" xlink:href="#DejaVuSans-54"/>
     </g>
    </g>
   </g>
   <g id="line2d_24">
    <path clip-path="url(#paf20a33d8f)" d="M 57.681818 240.936518 
L 77.882944 240.936507 
L 79.005229 240.808048 
L 80.127514 240.519876 
L 81.249799 239.780853 
L 82.372084 239.360135 
L 83.494368 234.293052 
L 84.616653 210.107996 
L 85.738938 206.41722 
L 86.861223 209.750748 
L 87.983508 227.999543 
L 89.105792 231.265254 
L 90.228077 233.838167 
L 91.350362 237.935571 
L 92.472647 238.930333 
L 93.594932 239.659306 
L 94.717216 239.512146 
L 98.084071 239.770027 
L 99.206356 240.302477 
L 100.32864 240.33548 
L 101.450925 239.136332 
L 102.57321 239.261575 
L 103.695495 239.883667 
L 104.81778 239.61821 
L 105.940064 238.600316 
L 107.062349 238.608086 
L 108.184634 239.777781 
L 109.306919 240.518424 
L 110.429204 240.914551 
L 113.796058 240.928992 
L 116.040628 240.696183 
L 117.162912 240.369057 
L 118.285197 233.075707 
L 119.407482 231.311057 
L 120.529767 217.269379 
L 121.652051 205.746201 
L 122.774336 199.056703 
L 123.896621 210.267015 
L 125.018906 218.17099 
L 126.141191 233.708598 
L 127.263475 239.681068 
L 128.38576 240.316277 
L 129.508045 240.436889 
L 130.63033 240.401126 
L 136.241754 240.931754 
L 142.975463 240.92884 
L 145.220032 239.934815 
L 147.464602 240.351381 
L 148.586887 240.062757 
L 149.709171 237.053257 
L 150.831456 239.403098 
L 153.076026 240.476848 
L 154.198311 240.77715 
L 155.320595 240.927297 
L 159.809735 240.929296 
L 160.932019 236.789214 
L 163.176589 217.400117 
L 164.298874 222.680184 
L 165.421158 224.626248 
L 166.543443 227.401102 
L 167.665728 236.998076 
L 168.788013 239.58088 
L 169.910298 240.739098 
L 171.032582 240.900076 
L 175.521722 240.93635 
L 183.377715 240.87254 
L 184.5 240.553041 
L 185.622285 239.439303 
L 186.74457 239.434406 
L 187.866854 239.790851 
L 188.989139 239.723466 
L 190.111424 239.391238 
L 192.355994 239.938722 
L 193.478278 240.576311 
L 194.600563 240.909471 
L 202.456557 240.928496 
L 203.578842 235.28405 
L 204.701126 226.151238 
L 205.823411 214.272795 
L 206.945696 218.521323 
L 208.067981 214.030937 
L 209.190265 226.784519 
L 210.31255 223.185919 
L 211.434835 235.583097 
L 212.55712 234.917292 
L 213.679405 236.912558 
L 214.801689 238.641997 
L 215.923974 240.083442 
L 217.046259 240.544588 
L 218.168544 240.81354 
L 220.413113 240.930842 
L 229.391392 240.815955 
L 231.635961 240.627321 
L 232.758246 240.739336 
L 233.880531 240.671747 
L 236.125101 239.490916 
L 237.247385 239.189733 
L 238.36967 238.527867 
L 239.491955 239.075074 
L 240.61424 239.796264 
L 242.858809 240.724582 
L 243.981094 240.888974 
L 245.103379 240.880355 
L 246.225664 240.676141 
L 251.837088 240.903634 
L 252.959372 240.558324 
L 254.081657 238.772547 
L 255.203942 237.45627 
L 256.326227 237.021318 
L 257.448512 236.737704 
L 258.570796 238.094671 
L 259.693081 238.887278 
L 260.815366 239.137578 
L 261.937651 240.167759 
L 263.059936 240.323367 
L 264.18222 240.680911 
L 265.304505 240.864929 
L 267.549075 240.925523 
L 272.038214 240.833178 
L 273.160499 216.941356 
L 274.282784 208.502287 
L 275.405068 205.535845 
L 276.527353 207.258285 
L 277.649638 209.656416 
L 278.771923 222.296759 
L 279.894208 226.978899 
L 281.016492 237.73275 
L 282.138777 238.032246 
L 283.261062 240.044502 
L 284.383347 240.62981 
L 285.505632 240.842214 
L 287.750201 240.916021 
L 295.606195 240.936518 
L 311.318182 240.936518 
L 311.318182 240.936518 
" style="fill:none;stroke:#1f77b4;stroke-linecap:square;stroke-width:1.5;"/>
   </g>
   <g id="patch_13">
    <path d="M 45 243.030508 
L 45 196.962712 
" style="fill:none;stroke:#000000;stroke-linecap:square;stroke-linejoin:miter;stroke-width:0.8;"/>
   </g>
   <g id="patch_14">
    <path d="M 324 243.030508 
L 324 196.962712 
" style="fill:none;stroke:#000000;stroke-linecap:square;stroke-linejoin:miter;stroke-width:0.8;"/>
   </g>
   <g id="patch_15">
    <path d="M 45 243.030508 
L 324 243.030508 
" style="fill:none;stroke:#000000;stroke-linecap:square;stroke-linejoin:miter;stroke-width:0.8;"/>
   </g>
   <g id="patch_16">
    <path d="M 45 196.962712 
L 324 196.962712 
" style="fill:none;stroke:#000000;stroke-linecap:square;stroke-linejoin:miter;stroke-width:0.8;"/>
   </g>
  </g>
  <g id="axes_4">
   <g id="patch_17">
    <path d="M 45 298.311864 
L 324 298.311864 
L 324 252.244068 
L 45 252.244068 
z
" style="fill:none;"/>
   </g>
   <g id="matplotlib.axis_7">
    <g id="xtick_16">
     <g id="line2d_25">
      <g>
       <use style="stroke:#000000;stroke-width:0.8;" x="57.681818" xlink:href="#m164b3cadf1" y="298.311864"/>
      </g>
     </g>
     <g id="text_25">
      <!-- 0 -->
      <g transform="translate(54.500568 312.910302)scale(0.1 -0.1)">
       <use xlink:href="#DejaVuSans-48"/>
      </g>
     </g>
    </g>
    <g id="xtick_17">
     <g id="line2d_26">
      <g>
       <use style="stroke:#000000;stroke-width:0.8;" x="113.548859" xlink:href="#m164b3cadf1" y="298.311864"/>
      </g>
     </g>
     <g id="text_26">
      <!-- 50 -->
      <g transform="translate(107.186359 312.910302)scale(0.1 -0.1)">
       <use xlink:href="#DejaVuSans-53"/>
       <use x="63.623047" xlink:href="#DejaVuSans-48"/>
      </g>
     </g>
    </g>
    <g id="xtick_18">
     <g id="line2d_27">
      <g>
       <use style="stroke:#000000;stroke-width:0.8;" x="169.415899" xlink:href="#m164b3cadf1" y="298.311864"/>
      </g>
     </g>
     <g id="text_27">
      <!-- 100 -->
      <g transform="translate(159.872149 312.910302)scale(0.1 -0.1)">
       <use xlink:href="#DejaVuSans-49"/>
       <use x="63.623047" xlink:href="#DejaVuSans-48"/>
       <use x="127.246094" xlink:href="#DejaVuSans-48"/>
      </g>
     </g>
    </g>
    <g id="xtick_19">
     <g id="line2d_28">
      <g>
       <use style="stroke:#000000;stroke-width:0.8;" x="225.28294" xlink:href="#m164b3cadf1" y="298.311864"/>
      </g>
     </g>
     <g id="text_28">
      <!-- 150 -->
      <g transform="translate(215.73919 312.910302)scale(0.1 -0.1)">
       <use xlink:href="#DejaVuSans-49"/>
       <use x="63.623047" xlink:href="#DejaVuSans-53"/>
       <use x="127.246094" xlink:href="#DejaVuSans-48"/>
      </g>
     </g>
    </g>
    <g id="xtick_20">
     <g id="line2d_29">
      <g>
       <use style="stroke:#000000;stroke-width:0.8;" x="281.14998" xlink:href="#m164b3cadf1" y="298.311864"/>
      </g>
     </g>
     <g id="text_29">
      <!-- 200 -->
      <g transform="translate(271.60623 312.910302)scale(0.1 -0.1)">
       <use xlink:href="#DejaVuSans-50"/>
       <use x="63.623047" xlink:href="#DejaVuSans-48"/>
       <use x="127.246094" xlink:href="#DejaVuSans-48"/>
      </g>
     </g>
    </g>
   </g>
   <g id="matplotlib.axis_8">
    <g id="ytick_7">
     <g id="line2d_30">
      <g>
       <use style="stroke:#000000;stroke-width:0.8;" x="45" xlink:href="#m645cc205d1" y="296.217874"/>
      </g>
     </g>
     <g id="text_30">
      <!-- 0 -->
      <g transform="translate(31.6375 300.017092)scale(0.1 -0.1)">
       <use xlink:href="#DejaVuSans-48"/>
      </g>
     </g>
    </g>
    <g id="ytick_8">
     <g id="line2d_31">
      <g>
       <use style="stroke:#000000;stroke-width:0.8;" x="45" xlink:href="#m645cc205d1" y="272.005238"/>
      </g>
     </g>
     <g id="text_31">
      <!-- 2 -->
      <g transform="translate(31.6375 275.804457)scale(0.1 -0.1)">
       <use xlink:href="#DejaVuSans-50"/>
      </g>
     </g>
    </g>
    <g id="text_32">
     <!-- 1e6 -->
     <g transform="translate(45 249.244068)scale(0.1 -0.1)">
      <use xlink:href="#DejaVuSans-49"/>
      <use x="63.623047" xlink:href="#DejaVuSans-101"/>
      <use x="125.146484" xlink:href="#DejaVuSans-54"/>
     </g>
    </g>
   </g>
   <g id="line2d_32">
    <path clip-path="url(#p82419641ce)" d="M 57.681818 296.217874 
L 100.140769 296.201476 
L 101.25811 296.082313 
L 102.375451 294.796178 
L 103.492791 293.152056 
L 104.610132 294.772052 
L 105.727473 295.627006 
L 106.844814 295.508849 
L 107.962155 280.315332 
L 109.079495 277.755833 
L 110.196836 281.299037 
L 111.314177 285.32407 
L 112.431518 288.550913 
L 113.548859 293.358729 
L 114.666199 291.145245 
L 115.78354 292.411292 
L 116.900881 295.519618 
L 118.018222 296.031955 
L 119.135563 296.174692 
L 121.370244 296.175002 
L 122.487585 295.622102 
L 123.604926 278.96904 
L 124.722267 254.338059 
L 125.839608 271.854645 
L 126.956948 281.412946 
L 128.074289 278.11985 
L 129.19163 277.054521 
L 130.308971 262.680009 
L 131.426312 272.443681 
L 132.543652 266.921709 
L 133.660993 287.878166 
L 134.778334 292.516763 
L 135.895675 296.120998 
L 138.130356 296.214079 
L 140.365038 296.217199 
L 141.482379 296.07617 
L 142.59972 292.856066 
L 143.71706 292.513511 
L 144.834401 291.942215 
L 145.951742 290.763572 
L 147.069083 281.683832 
L 148.186424 275.57683 
L 150.421105 285.647521 
L 152.655787 293.857391 
L 153.773128 295.608128 
L 154.890469 296.118743 
L 156.007809 296.039715 
L 157.12515 295.527926 
L 158.242491 295.677082 
L 159.359832 295.245715 
L 160.477173 295.485267 
L 161.594513 295.506483 
L 163.829195 296.075525 
L 164.946536 294.916206 
L 166.063877 285.193467 
L 167.181217 281.775267 
L 168.298558 284.340178 
L 169.415899 290.664414 
L 170.53324 293.736202 
L 171.650581 293.152338 
L 175.002603 295.092139 
L 176.119944 294.887156 
L 177.237285 295.135791 
L 178.354626 296.082537 
L 179.471966 296.194121 
L 180.589307 295.760846 
L 181.706648 296.142379 
L 182.823989 293.649259 
L 183.94133 287.521991 
L 185.05867 293.046482 
L 187.293352 293.409916 
L 188.410693 294.596471 
L 189.528034 294.678352 
L 190.645374 294.116026 
L 191.762715 293.927454 
L 192.880056 291.957323 
L 195.114738 295.619276 
L 196.232078 295.391062 
L 197.349419 295.959158 
L 199.584101 296.206159 
L 207.405487 296.18341 
L 208.522827 296.051022 
L 209.640168 289.188529 
L 210.757509 261.695937 
L 211.87485 254.558242 
L 212.992191 255.136877 
L 214.109531 277.028749 
L 215.226872 281.989306 
L 216.344213 280.502536 
L 217.461554 286.434441 
L 218.578895 284.812385 
L 219.696235 289.607491 
L 220.813576 288.059808 
L 221.930917 289.21163 
L 223.048258 294.963486 
L 224.165599 295.922286 
L 226.40028 296.201546 
L 228.634962 296.205368 
L 229.752303 296.001677 
L 230.869644 295.619085 
L 231.986984 295.855274 
L 234.221666 296.036854 
L 235.339007 294.874502 
L 236.456348 294.82116 
L 237.573688 295.49401 
L 239.80837 295.365354 
L 240.925711 295.894975 
L 243.160392 296.208266 
L 247.629756 296.163465 
L 248.747097 296.099012 
L 249.864437 295.727643 
L 252.099119 295.891917 
L 253.21646 295.59914 
L 254.333801 292.702718 
L 255.451141 285.519951 
L 256.568482 273.390694 
L 257.685823 272.012161 
L 258.803164 271.862124 
L 261.037845 286.104128 
L 262.155186 287.056239 
L 263.272527 291.743741 
L 265.507209 294.745859 
L 266.624549 295.703238 
L 268.859231 296.107287 
L 271.093913 296.216613 
L 311.318182 296.217874 
L 311.318182 296.217874 
" style="fill:none;stroke:#1f77b4;stroke-linecap:square;stroke-width:1.5;"/>
   </g>
   <g id="patch_18">
    <path d="M 45 298.311864 
L 45 252.244068 
" style="fill:none;stroke:#000000;stroke-linecap:square;stroke-linejoin:miter;stroke-width:0.8;"/>
   </g>
   <g id="patch_19">
    <path d="M 324 298.311864 
L 324 252.244068 
" style="fill:none;stroke:#000000;stroke-linecap:square;stroke-linejoin:miter;stroke-width:0.8;"/>
   </g>
   <g id="patch_20">
    <path d="M 45 298.311864 
L 324 298.311864 
" style="fill:none;stroke:#000000;stroke-linecap:square;stroke-linejoin:miter;stroke-width:0.8;"/>
   </g>
   <g id="patch_21">
    <path d="M 45 252.244068 
L 324 252.244068 
" style="fill:none;stroke:#000000;stroke-linecap:square;stroke-linejoin:miter;stroke-width:0.8;"/>
   </g>
  </g>
  <g id="axes_5">
   <g id="patch_22">
    <path d="M 45 353.59322 
L 324 353.59322 
L 324 307.525424 
L 45 307.525424 
z
" style="fill:none;"/>
   </g>
   <g id="matplotlib.axis_9">
    <g id="xtick_21">
     <g id="line2d_33">
      <g>
       <use style="stroke:#000000;stroke-width:0.8;" x="57.681818" xlink:href="#m164b3cadf1" y="353.59322"/>
      </g>
     </g>
     <g id="text_33">
      <!-- 0 -->
      <g transform="translate(54.500568 368.191658)scale(0.1 -0.1)">
       <use xlink:href="#DejaVuSans-48"/>
      </g>
     </g>
    </g>
    <g id="xtick_22">
     <g id="line2d_34">
      <g>
       <use style="stroke:#000000;stroke-width:0.8;" x="113.796058" xlink:href="#m164b3cadf1" y="353.59322"/>
      </g>
     </g>
     <g id="text_34">
      <!-- 50 -->
      <g transform="translate(107.433558 368.191658)scale(0.1 -0.1)">
       <use xlink:href="#DejaVuSans-53"/>
       <use x="63.623047" xlink:href="#DejaVuSans-48"/>
      </g>
     </g>
    </g>
    <g id="xtick_23">
     <g id="line2d_35">
      <g>
       <use style="stroke:#000000;stroke-width:0.8;" x="169.910298" xlink:href="#m164b3cadf1" y="353.59322"/>
      </g>
     </g>
     <g id="text_35">
      <!-- 100 -->
      <g transform="translate(160.366548 368.191658)scale(0.1 -0.1)">
       <use xlink:href="#DejaVuSans-49"/>
       <use x="63.623047" xlink:href="#DejaVuSans-48"/>
       <use x="127.246094" xlink:href="#DejaVuSans-48"/>
      </g>
     </g>
    </g>
    <g id="xtick_24">
     <g id="line2d_36">
      <g>
       <use style="stroke:#000000;stroke-width:0.8;" x="226.024537" xlink:href="#m164b3cadf1" y="353.59322"/>
      </g>
     </g>
     <g id="text_36">
      <!-- 150 -->
      <g transform="translate(216.480787 368.191658)scale(0.1 -0.1)">
       <use xlink:href="#DejaVuSans-49"/>
       <use x="63.623047" xlink:href="#DejaVuSans-53"/>
       <use x="127.246094" xlink:href="#DejaVuSans-48"/>
      </g>
     </g>
    </g>
    <g id="xtick_25">
     <g id="line2d_37">
      <g>
       <use style="stroke:#000000;stroke-width:0.8;" x="282.138777" xlink:href="#m164b3cadf1" y="353.59322"/>
      </g>
     </g>
     <g id="text_37">
      <!-- 200 -->
      <g transform="translate(272.595027 368.191658)scale(0.1 -0.1)">
       <use xlink:href="#DejaVuSans-50"/>
       <use x="63.623047" xlink:href="#DejaVuSans-48"/>
       <use x="127.246094" xlink:href="#DejaVuSans-48"/>
      </g>
     </g>
    </g>
   </g>
   <g id="matplotlib.axis_10">
    <g id="ytick_9">
     <g id="line2d_38">
      <g>
       <use style="stroke:#000000;stroke-width:0.8;" x="45" xlink:href="#m645cc205d1" y="351.49923"/>
      </g>
     </g>
     <g id="text_38">
      <!-- 0.0 -->
      <g transform="translate(22.096875 355.298448)scale(0.1 -0.1)">
       <defs>
        <path d="M 10.6875 12.40625 
L 21 12.40625 
L 21 0 
L 10.6875 0 
z
" id="DejaVuSans-46"/>
       </defs>
       <use xlink:href="#DejaVuSans-48"/>
       <use x="63.623047" xlink:href="#DejaVuSans-46"/>
       <use x="95.410156" xlink:href="#DejaVuSans-48"/>
      </g>
     </g>
    </g>
    <g id="ytick_10">
     <g id="line2d_39">
      <g>
       <use style="stroke:#000000;stroke-width:0.8;" x="45" xlink:href="#m645cc205d1" y="328.6333"/>
      </g>
     </g>
     <g id="text_39">
      <!-- 2.5 -->
      <g transform="translate(22.096875 332.432519)scale(0.1 -0.1)">
       <use xlink:href="#DejaVuSans-50"/>
       <use x="63.623047" xlink:href="#DejaVuSans-46"/>
       <use x="95.410156" xlink:href="#DejaVuSans-53"/>
      </g>
     </g>
    </g>
    <g id="text_40">
     <!-- 1e6 -->
     <g transform="translate(45 304.525424)scale(0.1 -0.1)">
      <use xlink:href="#DejaVuSans-49"/>
      <use x="63.623047" xlink:href="#DejaVuSans-101"/>
      <use x="125.146484" xlink:href="#DejaVuSans-54"/>
     </g>
    </g>
   </g>
   <g id="line2d_40">
    <path clip-path="url(#p9f6e853849)" d="M 57.681818 351.49923 
L 121.652051 351.496971 
L 122.774336 345.36703 
L 123.896621 335.46694 
L 125.018906 321.654069 
L 127.263475 309.619414 
L 128.38576 335.096242 
L 129.508045 333.519065 
L 130.63033 344.472053 
L 131.752615 345.848472 
L 132.874899 346.370493 
L 133.997184 349.555806 
L 135.119469 351.140385 
L 136.241754 351.337646 
L 139.608608 351.413879 
L 145.220032 351.323624 
L 147.464602 351.491316 
L 149.709171 351.248993 
L 150.831456 351.431133 
L 151.953741 351.482005 
L 153.076026 350.590255 
L 154.198311 348.259945 
L 155.320595 347.309397 
L 156.44288 348.137987 
L 157.565165 346.740257 
L 158.68745 346.074661 
L 159.809735 345.575894 
L 160.932019 342.537747 
L 162.054304 346.243437 
L 163.176589 347.763754 
L 164.298874 350.158111 
L 165.421158 351.412456 
L 166.543443 351.492216 
L 167.665728 351.301064 
L 168.788013 350.886612 
L 169.910298 351.261477 
L 171.032582 350.626475 
L 172.154867 348.613292 
L 173.277152 340.953175 
L 174.399437 339.019842 
L 175.521722 347.682637 
L 176.644006 349.695534 
L 177.766291 347.267535 
L 178.888576 346.673252 
L 180.010861 348.366456 
L 181.133146 349.059241 
L 182.25543 350.498893 
L 183.377715 350.460923 
L 187.866854 350.98795 
L 188.989139 350.465695 
L 190.111424 349.768067 
L 191.233709 348.894838 
L 192.355994 348.913758 
L 193.478278 349.621802 
L 194.600563 348.44794 
L 195.722848 349.000609 
L 197.967418 346.169203 
L 199.089702 347.872498 
L 200.211987 350.476916 
L 201.334272 351.343257 
L 202.456557 351.485823 
L 206.945696 351.495354 
L 208.067981 350.653834 
L 209.190265 343.874527 
L 210.31255 334.742928 
L 211.434835 341.297792 
L 212.55712 343.59717 
L 213.679405 343.255968 
L 214.801689 347.424589 
L 215.923974 347.521011 
L 217.046259 348.647565 
L 218.168544 348.833509 
L 219.290829 350.242634 
L 220.413113 351.229953 
L 221.535398 351.482651 
L 224.902253 351.490411 
L 226.024537 351.403834 
L 227.146822 350.766834 
L 229.391392 348.943746 
L 231.635961 350.215005 
L 233.880531 351.326407 
L 237.247385 351.205471 
L 238.36967 351.27986 
L 240.61424 351.101047 
L 241.736525 351.1451 
L 242.858809 351.390442 
L 246.225664 351.496943 
L 306.829043 351.49923 
L 311.318182 351.49923 
L 311.318182 351.49923 
" style="fill:none;stroke:#1f77b4;stroke-linecap:square;stroke-width:1.5;"/>
   </g>
   <g id="patch_23">
    <path d="M 45 353.59322 
L 45 307.525424 
" style="fill:none;stroke:#000000;stroke-linecap:square;stroke-linejoin:miter;stroke-width:0.8;"/>
   </g>
   <g id="patch_24">
    <path d="M 324 353.59322 
L 324 307.525424 
" style="fill:none;stroke:#000000;stroke-linecap:square;stroke-linejoin:miter;stroke-width:0.8;"/>
   </g>
   <g id="patch_25">
    <path d="M 45 353.59322 
L 324 353.59322 
" style="fill:none;stroke:#000000;stroke-linecap:square;stroke-linejoin:miter;stroke-width:0.8;"/>
   </g>
   <g id="patch_26">
    <path d="M 45 307.525424 
L 324 307.525424 
" style="fill:none;stroke:#000000;stroke-linecap:square;stroke-linejoin:miter;stroke-width:0.8;"/>
   </g>
  </g>
  <g id="axes_6">
   <g id="patch_27">
    <path d="M 45 408.874576 
L 324 408.874576 
L 324 362.80678 
L 45 362.80678 
z
" style="fill:none;"/>
   </g>
   <g id="matplotlib.axis_11">
    <g id="xtick_26">
     <g id="line2d_41">
      <g>
       <use style="stroke:#000000;stroke-width:0.8;" x="57.681818" xlink:href="#m164b3cadf1" y="408.874576"/>
      </g>
     </g>
     <g id="text_41">
      <!-- 0 -->
      <g transform="translate(54.500568 423.473014)scale(0.1 -0.1)">
       <use xlink:href="#DejaVuSans-48"/>
      </g>
     </g>
    </g>
    <g id="xtick_27">
     <g id="line2d_42">
      <g>
       <use style="stroke:#000000;stroke-width:0.8;" x="113.796058" xlink:href="#m164b3cadf1" y="408.874576"/>
      </g>
     </g>
     <g id="text_42">
      <!-- 50 -->
      <g transform="translate(107.433558 423.473014)scale(0.1 -0.1)">
       <use xlink:href="#DejaVuSans-53"/>
       <use x="63.623047" xlink:href="#DejaVuSans-48"/>
      </g>
     </g>
    </g>
    <g id="xtick_28">
     <g id="line2d_43">
      <g>
       <use style="stroke:#000000;stroke-width:0.8;" x="169.910298" xlink:href="#m164b3cadf1" y="408.874576"/>
      </g>
     </g>
     <g id="text_43">
      <!-- 100 -->
      <g transform="translate(160.366548 423.473014)scale(0.1 -0.1)">
       <use xlink:href="#DejaVuSans-49"/>
       <use x="63.623047" xlink:href="#DejaVuSans-48"/>
       <use x="127.246094" xlink:href="#DejaVuSans-48"/>
      </g>
     </g>
    </g>
    <g id="xtick_29">
     <g id="line2d_44">
      <g>
       <use style="stroke:#000000;stroke-width:0.8;" x="226.024537" xlink:href="#m164b3cadf1" y="408.874576"/>
      </g>
     </g>
     <g id="text_44">
      <!-- 150 -->
      <g transform="translate(216.480787 423.473014)scale(0.1 -0.1)">
       <use xlink:href="#DejaVuSans-49"/>
       <use x="63.623047" xlink:href="#DejaVuSans-53"/>
       <use x="127.246094" xlink:href="#DejaVuSans-48"/>
      </g>
     </g>
    </g>
    <g id="xtick_30">
     <g id="line2d_45">
      <g>
       <use style="stroke:#000000;stroke-width:0.8;" x="282.138777" xlink:href="#m164b3cadf1" y="408.874576"/>
      </g>
     </g>
     <g id="text_45">
      <!-- 200 -->
      <g transform="translate(272.595027 423.473014)scale(0.1 -0.1)">
       <use xlink:href="#DejaVuSans-50"/>
       <use x="63.623047" xlink:href="#DejaVuSans-48"/>
       <use x="127.246094" xlink:href="#DejaVuSans-48"/>
      </g>
     </g>
    </g>
   </g>
   <g id="matplotlib.axis_12">
    <g id="ytick_11">
     <g id="line2d_46">
      <g>
       <use style="stroke:#000000;stroke-width:0.8;" x="45" xlink:href="#m645cc205d1" y="406.780586"/>
      </g>
     </g>
     <g id="text_46">
      <!-- 0 -->
      <g transform="translate(31.6375 410.579804)scale(0.1 -0.1)">
       <use xlink:href="#DejaVuSans-48"/>
      </g>
     </g>
    </g>
    <g id="ytick_12">
     <g id="line2d_47">
      <g>
       <use style="stroke:#000000;stroke-width:0.8;" x="45" xlink:href="#m645cc205d1" y="377.71455"/>
      </g>
     </g>
     <g id="text_47">
      <!-- 5 -->
      <g transform="translate(31.6375 381.513769)scale(0.1 -0.1)">
       <use xlink:href="#DejaVuSans-53"/>
      </g>
     </g>
    </g>
    <g id="text_48">
     <!-- 1e6 -->
     <g transform="translate(45 359.80678)scale(0.1 -0.1)">
      <use xlink:href="#DejaVuSans-49"/>
      <use x="63.623047" xlink:href="#DejaVuSans-101"/>
      <use x="125.146484" xlink:href="#DejaVuSans-54"/>
     </g>
    </g>
   </g>
   <g id="line2d_48">
    <path clip-path="url(#pdfb6fc6492)" d="M 57.681818 406.780586 
L 89.105792 406.698557 
L 90.228077 406.050689 
L 91.350362 406.517049 
L 92.472647 400.980928 
L 94.717216 402.369789 
L 95.839501 399.052947 
L 96.961786 392.958486 
L 98.084071 397.435439 
L 99.206356 399.150246 
L 100.32864 405.967262 
L 102.57321 406.332815 
L 105.940064 406.62952 
L 108.184634 406.738495 
L 109.306919 406.170932 
L 110.429204 404.188816 
L 111.551488 403.665854 
L 112.673773 403.964764 
L 113.796058 403.544711 
L 114.918343 402.082096 
L 116.040628 398.574382 
L 117.162912 399.697593 
L 119.407482 405.026726 
L 120.529767 405.38891 
L 125.018906 405.020385 
L 126.141191 404.697263 
L 127.263475 404.017654 
L 128.38576 404.11476 
L 129.508045 401.987785 
L 130.63033 400.71728 
L 131.752615 400.024483 
L 132.874899 393.030925 
L 133.997184 390.910201 
L 135.119469 382.486198 
L 136.241754 364.90077 
L 137.364039 380.367377 
L 138.486323 386.887336 
L 139.608608 375.476939 
L 140.730893 385.606536 
L 141.853178 397.669971 
L 142.975463 404.246683 
L 144.097747 406.636979 
L 145.220032 406.761037 
L 150.831456 406.72261 
L 157.565165 406.388847 
L 158.68745 406.148738 
L 160.932019 405.846326 
L 162.054304 405.636728 
L 164.298874 405.484231 
L 165.421158 405.089385 
L 166.543443 405.480773 
L 167.665728 405.472111 
L 168.788013 405.669913 
L 169.910298 405.536246 
L 172.154867 405.675087 
L 173.277152 405.454047 
L 174.399437 405.694091 
L 175.521722 405.777588 
L 176.644006 405.441821 
L 177.766291 405.892966 
L 178.888576 405.644471 
L 180.010861 404.997208 
L 181.133146 405.301567 
L 182.25543 405.342588 
L 183.377715 403.821215 
L 184.5 403.348628 
L 185.622285 404.085954 
L 186.74457 403.023385 
L 188.989139 403.713759 
L 190.111424 405.116613 
L 191.233709 405.963702 
L 192.355994 405.805538 
L 193.478278 406.522634 
L 194.600563 406.705096 
L 196.845133 406.745056 
L 203.578842 406.694062 
L 204.701126 406.737549 
L 205.823411 406.241591 
L 206.945696 404.95028 
L 209.190265 404.171945 
L 210.31255 404.304029 
L 211.434835 404.617158 
L 212.55712 405.091529 
L 213.679405 406.392262 
L 214.801689 406.768445 
L 220.413113 406.773523 
L 221.535398 406.474221 
L 222.657683 405.277261 
L 223.779968 402.479504 
L 224.902253 403.125649 
L 226.024537 402.446013 
L 227.146822 402.671838 
L 228.269107 402.495993 
L 229.391392 396.777396 
L 230.513677 397.821797 
L 231.635961 400.294183 
L 232.758246 403.110247 
L 233.880531 406.542085 
L 235.002816 406.739856 
L 238.36967 406.768576 
L 239.491955 406.616966 
L 240.61424 402.398299 
L 241.736525 401.136925 
L 242.858809 404.249035 
L 243.981094 405.873458 
L 245.103379 406.230484 
L 246.225664 406.387726 
L 248.470233 406.308102 
L 250.714803 406.009305 
L 251.837088 406.123579 
L 255.203942 405.97579 
L 258.570796 406.096746 
L 259.693081 406.057254 
L 260.815366 406.415553 
L 261.937651 406.497888 
L 263.059936 406.424725 
L 266.42679 406.471613 
L 268.67136 406.372959 
L 270.915929 406.46398 
L 272.038214 406.369134 
L 276.527353 406.484567 
L 277.649638 406.739227 
L 284.383347 406.780585 
L 311.318182 406.780586 
L 311.318182 406.780586 
" style="fill:none;stroke:#1f77b4;stroke-linecap:square;stroke-width:1.5;"/>
   </g>
   <g id="patch_28">
    <path d="M 45 408.874576 
L 45 362.80678 
" style="fill:none;stroke:#000000;stroke-linecap:square;stroke-linejoin:miter;stroke-width:0.8;"/>
   </g>
   <g id="patch_29">
    <path d="M 324 408.874576 
L 324 362.80678 
" style="fill:none;stroke:#000000;stroke-linecap:square;stroke-linejoin:miter;stroke-width:0.8;"/>
   </g>
   <g id="patch_30">
    <path d="M 45 408.874576 
L 324 408.874576 
" style="fill:none;stroke:#000000;stroke-linecap:square;stroke-linejoin:miter;stroke-width:0.8;"/>
   </g>
   <g id="patch_31">
    <path d="M 45 362.80678 
L 324 362.80678 
" style="fill:none;stroke:#000000;stroke-linecap:square;stroke-linejoin:miter;stroke-width:0.8;"/>
   </g>
  </g>
  <g id="axes_7">
   <g id="patch_32">
    <path d="M 45 464.155932 
L 324 464.155932 
L 324 418.088136 
L 45 418.088136 
z
" style="fill:none;"/>
   </g>
   <g id="matplotlib.axis_13">
    <g id="xtick_31">
     <g id="line2d_49">
      <g>
       <use style="stroke:#000000;stroke-width:0.8;" x="57.681818" xlink:href="#m164b3cadf1" y="464.155932"/>
      </g>
     </g>
     <g id="text_49">
      <!-- 0 -->
      <g transform="translate(54.500568 478.75437)scale(0.1 -0.1)">
       <use xlink:href="#DejaVuSans-48"/>
      </g>
     </g>
    </g>
    <g id="xtick_32">
     <g id="line2d_50">
      <g>
       <use style="stroke:#000000;stroke-width:0.8;" x="113.796058" xlink:href="#m164b3cadf1" y="464.155932"/>
      </g>
     </g>
     <g id="text_50">
      <!-- 50 -->
      <g transform="translate(107.433558 478.75437)scale(0.1 -0.1)">
       <use xlink:href="#DejaVuSans-53"/>
       <use x="63.623047" xlink:href="#DejaVuSans-48"/>
      </g>
     </g>
    </g>
    <g id="xtick_33">
     <g id="line2d_51">
      <g>
       <use style="stroke:#000000;stroke-width:0.8;" x="169.910298" xlink:href="#m164b3cadf1" y="464.155932"/>
      </g>
     </g>
     <g id="text_51">
      <!-- 100 -->
      <g transform="translate(160.366548 478.75437)scale(0.1 -0.1)">
       <use xlink:href="#DejaVuSans-49"/>
       <use x="63.623047" xlink:href="#DejaVuSans-48"/>
       <use x="127.246094" xlink:href="#DejaVuSans-48"/>
      </g>
     </g>
    </g>
    <g id="xtick_34">
     <g id="line2d_52">
      <g>
       <use style="stroke:#000000;stroke-width:0.8;" x="226.024537" xlink:href="#m164b3cadf1" y="464.155932"/>
      </g>
     </g>
     <g id="text_52">
      <!-- 150 -->
      <g transform="translate(216.480787 478.75437)scale(0.1 -0.1)">
       <use xlink:href="#DejaVuSans-49"/>
       <use x="63.623047" xlink:href="#DejaVuSans-53"/>
       <use x="127.246094" xlink:href="#DejaVuSans-48"/>
      </g>
     </g>
    </g>
    <g id="xtick_35">
     <g id="line2d_53">
      <g>
       <use style="stroke:#000000;stroke-width:0.8;" x="282.138777" xlink:href="#m164b3cadf1" y="464.155932"/>
      </g>
     </g>
     <g id="text_53">
      <!-- 200 -->
      <g transform="translate(272.595027 478.75437)scale(0.1 -0.1)">
       <use xlink:href="#DejaVuSans-50"/>
       <use x="63.623047" xlink:href="#DejaVuSans-48"/>
       <use x="127.246094" xlink:href="#DejaVuSans-48"/>
      </g>
     </g>
    </g>
   </g>
   <g id="matplotlib.axis_14">
    <g id="ytick_13">
     <g id="line2d_54">
      <g>
       <use style="stroke:#000000;stroke-width:0.8;" x="45" xlink:href="#m645cc205d1" y="462.061941"/>
      </g>
     </g>
     <g id="text_54">
      <!-- 0 -->
      <g transform="translate(31.6375 465.86116)scale(0.1 -0.1)">
       <use xlink:href="#DejaVuSans-48"/>
      </g>
     </g>
    </g>
    <g id="ytick_14">
     <g id="line2d_55">
      <g>
       <use style="stroke:#000000;stroke-width:0.8;" x="45" xlink:href="#m645cc205d1" y="432.177207"/>
      </g>
     </g>
     <g id="text_55">
      <!-- 5 -->
      <g transform="translate(31.6375 435.976426)scale(0.1 -0.1)">
       <use xlink:href="#DejaVuSans-53"/>
      </g>
     </g>
    </g>
    <g id="text_56">
     <!-- 1e6 -->
     <g transform="translate(45 415.088136)scale(0.1 -0.1)">
      <use xlink:href="#DejaVuSans-49"/>
      <use x="63.623047" xlink:href="#DejaVuSans-101"/>
      <use x="125.146484" xlink:href="#DejaVuSans-54"/>
     </g>
    </g>
   </g>
   <g id="line2d_56">
    <path clip-path="url(#p6a0e87f862)" d="M 57.681818 462.061941 
L 71.149236 462.053809 
L 72.271521 461.019819 
L 73.393805 458.993691 
L 74.51609 458.218738 
L 75.638375 457.609701 
L 76.76066 458.014107 
L 77.882944 458.191473 
L 79.005229 457.329785 
L 80.127514 457.429569 
L 81.249799 458.57862 
L 82.372084 458.645594 
L 83.494368 458.220814 
L 84.616653 458.82629 
L 86.861223 460.416642 
L 87.983508 460.967536 
L 89.105792 460.803621 
L 90.228077 458.732738 
L 91.350362 457.836145 
L 93.594932 458.312954 
L 94.717216 457.654942 
L 95.839501 457.535542 
L 96.961786 458.258096 
L 98.084071 458.612312 
L 99.206356 458.597002 
L 100.32864 458.291306 
L 101.450925 458.996655 
L 102.57321 459.964812 
L 103.695495 460.742135 
L 104.81778 461.056115 
L 105.940064 460.185103 
L 107.062349 458.70255 
L 108.184634 457.840408 
L 110.429204 458.111813 
L 111.551488 457.586329 
L 112.673773 457.392343 
L 113.796058 458.287876 
L 114.918343 458.585515 
L 116.040628 458.175709 
L 117.162912 458.477572 
L 118.285197 459.019075 
L 119.407482 459.895318 
L 120.529767 460.625418 
L 121.652051 460.893721 
L 122.774336 459.731297 
L 123.896621 457.90598 
L 125.018906 458.182286 
L 126.141191 458.876596 
L 127.263475 458.306882 
L 128.38576 457.395707 
L 130.63033 459.629034 
L 132.874899 459.807848 
L 133.997184 461.660389 
L 135.119469 462.045583 
L 138.486323 462.057064 
L 139.608608 461.295853 
L 140.730893 461.364696 
L 142.975463 460.234188 
L 144.097747 459.97997 
L 145.220032 461.170145 
L 146.342317 461.621788 
L 148.586887 461.905336 
L 150.831456 462.036466 
L 158.68745 462.053999 
L 160.932019 462.058847 
L 162.054304 461.601754 
L 163.176589 460.592611 
L 164.298874 457.953813 
L 165.421158 454.129686 
L 166.543443 458.943029 
L 167.665728 458.007729 
L 168.788013 456.749054 
L 169.910298 448.944731 
L 171.032582 452.539304 
L 172.154867 447.370538 
L 173.277152 448.386843 
L 174.399437 447.66452 
L 175.521722 456.213673 
L 176.644006 455.017839 
L 177.766291 461.337791 
L 178.888576 461.540042 
L 180.010861 461.967107 
L 183.377715 462.053198 
L 185.622285 462.009194 
L 187.866854 461.622777 
L 188.989139 461.220167 
L 190.111424 455.283392 
L 191.233709 420.182126 
L 192.355994 429.169473 
L 193.478278 420.694668 
L 194.600563 421.533113 
L 195.722848 450.302625 
L 197.967418 460.058815 
L 199.089702 461.79793 
L 200.211987 461.951062 
L 201.334272 461.860387 
L 202.456557 461.982198 
L 205.823411 461.989908 
L 208.067981 461.983367 
L 209.190265 460.05678 
L 210.31255 459.42076 
L 211.434835 458.086951 
L 212.55712 452.320006 
L 213.679405 458.64098 
L 214.801689 458.573937 
L 215.923974 454.743026 
L 217.046259 459.215832 
L 218.168544 460.804411 
L 219.290829 461.372025 
L 220.413113 461.739796 
L 221.535398 461.720384 
L 223.779968 461.887428 
L 226.024537 461.832495 
L 227.146822 461.460301 
L 228.269107 461.208478 
L 229.391392 461.224532 
L 231.635961 461.498595 
L 232.758246 461.130917 
L 233.880531 460.948813 
L 235.002816 460.639934 
L 236.125101 459.540086 
L 237.247385 459.354914 
L 238.36967 459.476871 
L 239.491955 457.468033 
L 241.736525 455.901798 
L 242.858809 459.790546 
L 243.981094 461.482729 
L 247.347949 462.056173 
L 249.592518 462.018895 
L 252.959372 461.515263 
L 255.203942 452.913584 
L 256.326227 447.574504 
L 257.448512 453.676181 
L 258.570796 455.600131 
L 259.693081 455.603116 
L 260.815366 452.433196 
L 261.937651 457.228878 
L 264.18222 461.764017 
L 265.304505 462.042389 
L 267.549075 462.056399 
L 269.793644 461.812458 
L 270.915929 462.029888 
L 272.038214 461.425319 
L 273.160499 458.290309 
L 274.282784 459.56704 
L 275.405068 460.283477 
L 276.527353 459.292817 
L 278.771923 460.441556 
L 281.016492 461.060802 
L 282.138777 461.192449 
L 283.261062 461.853675 
L 284.383347 461.936126 
L 286.627916 461.796174 
L 288.872486 461.861239 
L 291.117056 460.802325 
L 292.23934 460.719855 
L 293.361625 461.076635 
L 294.48391 460.913984 
L 295.606195 461.340134 
L 296.728479 460.513701 
L 297.850764 460.434599 
L 298.973049 459.649943 
L 300.095334 461.396916 
L 301.217619 461.946329 
L 303.462188 462.056064 
L 311.318182 462.061941 
L 311.318182 462.061941 
" style="fill:none;stroke:#1f77b4;stroke-linecap:square;stroke-width:1.5;"/>
   </g>
   <g id="patch_33">
    <path d="M 45 464.155932 
L 45 418.088136 
" style="fill:none;stroke:#000000;stroke-linecap:square;stroke-linejoin:miter;stroke-width:0.8;"/>
   </g>
   <g id="patch_34">
    <path d="M 324 464.155932 
L 324 418.088136 
" style="fill:none;stroke:#000000;stroke-linecap:square;stroke-linejoin:miter;stroke-width:0.8;"/>
   </g>
   <g id="patch_35">
    <path d="M 45 464.155932 
L 324 464.155932 
" style="fill:none;stroke:#000000;stroke-linecap:square;stroke-linejoin:miter;stroke-width:0.8;"/>
   </g>
   <g id="patch_36">
    <path d="M 45 418.088136 
L 324 418.088136 
" style="fill:none;stroke:#000000;stroke-linecap:square;stroke-linejoin:miter;stroke-width:0.8;"/>
   </g>
  </g>
  <g id="axes_8">
   <g id="patch_37">
    <path d="M 45 519.437288 
L 324 519.437288 
L 324 473.369492 
L 45 473.369492 
z
" style="fill:none;"/>
   </g>
   <g id="matplotlib.axis_15">
    <g id="xtick_36">
     <g id="line2d_57">
      <g>
       <use style="stroke:#000000;stroke-width:0.8;" x="57.681818" xlink:href="#m164b3cadf1" y="519.437288"/>
      </g>
     </g>
     <g id="text_57">
      <!-- 0 -->
      <g transform="translate(54.500568 534.035726)scale(0.1 -0.1)">
       <use xlink:href="#DejaVuSans-48"/>
      </g>
     </g>
    </g>
    <g id="xtick_37">
     <g id="line2d_58">
      <g>
       <use style="stroke:#000000;stroke-width:0.8;" x="113.796058" xlink:href="#m164b3cadf1" y="519.437288"/>
      </g>
     </g>
     <g id="text_58">
      <!-- 50 -->
      <g transform="translate(107.433558 534.035726)scale(0.1 -0.1)">
       <use xlink:href="#DejaVuSans-53"/>
       <use x="63.623047" xlink:href="#DejaVuSans-48"/>
      </g>
     </g>
    </g>
    <g id="xtick_38">
     <g id="line2d_59">
      <g>
       <use style="stroke:#000000;stroke-width:0.8;" x="169.910298" xlink:href="#m164b3cadf1" y="519.437288"/>
      </g>
     </g>
     <g id="text_59">
      <!-- 100 -->
      <g transform="translate(160.366548 534.035726)scale(0.1 -0.1)">
       <use xlink:href="#DejaVuSans-49"/>
       <use x="63.623047" xlink:href="#DejaVuSans-48"/>
       <use x="127.246094" xlink:href="#DejaVuSans-48"/>
      </g>
     </g>
    </g>
    <g id="xtick_39">
     <g id="line2d_60">
      <g>
       <use style="stroke:#000000;stroke-width:0.8;" x="226.024537" xlink:href="#m164b3cadf1" y="519.437288"/>
      </g>
     </g>
     <g id="text_60">
      <!-- 150 -->
      <g transform="translate(216.480787 534.035726)scale(0.1 -0.1)">
       <use xlink:href="#DejaVuSans-49"/>
       <use x="63.623047" xlink:href="#DejaVuSans-53"/>
       <use x="127.246094" xlink:href="#DejaVuSans-48"/>
      </g>
     </g>
    </g>
    <g id="xtick_40">
     <g id="line2d_61">
      <g>
       <use style="stroke:#000000;stroke-width:0.8;" x="282.138777" xlink:href="#m164b3cadf1" y="519.437288"/>
      </g>
     </g>
     <g id="text_61">
      <!-- 200 -->
      <g transform="translate(272.595027 534.035726)scale(0.1 -0.1)">
       <use xlink:href="#DejaVuSans-50"/>
       <use x="63.623047" xlink:href="#DejaVuSans-48"/>
       <use x="127.246094" xlink:href="#DejaVuSans-48"/>
      </g>
     </g>
    </g>
   </g>
   <g id="matplotlib.axis_16">
    <g id="ytick_15">
     <g id="line2d_62">
      <g>
       <use style="stroke:#000000;stroke-width:0.8;" x="45" xlink:href="#m645cc205d1" y="517.343297"/>
      </g>
     </g>
     <g id="text_62">
      <!-- 0 -->
      <g transform="translate(31.6375 521.142516)scale(0.1 -0.1)">
       <use xlink:href="#DejaVuSans-48"/>
      </g>
     </g>
    </g>
    <g id="ytick_16">
     <g id="line2d_63">
      <g>
       <use style="stroke:#000000;stroke-width:0.8;" x="45" xlink:href="#m645cc205d1" y="495.20573"/>
      </g>
     </g>
     <g id="text_63">
      <!-- 5 -->
      <g transform="translate(31.6375 499.004949)scale(0.1 -0.1)">
       <use xlink:href="#DejaVuSans-53"/>
      </g>
     </g>
    </g>
    <g id="text_64">
     <!-- 1e6 -->
     <g transform="translate(45 470.369492)scale(0.1 -0.1)">
      <use xlink:href="#DejaVuSans-49"/>
      <use x="63.623047" xlink:href="#DejaVuSans-101"/>
      <use x="125.146484" xlink:href="#DejaVuSans-54"/>
     </g>
    </g>
   </g>
   <g id="line2d_64">
    <path clip-path="url(#pecc7376a78)" d="M 57.681818 517.343297 
L 75.638375 517.286643 
L 77.882944 517.075099 
L 79.005229 517.058207 
L 80.127514 517.269925 
L 81.249799 516.443442 
L 82.372084 504.325933 
L 83.494368 496.92772 
L 84.616653 491.124457 
L 85.738938 488.64795 
L 86.861223 497.431843 
L 89.105792 505.215678 
L 90.228077 512.453369 
L 91.350362 514.65089 
L 92.472647 516.281285 
L 93.594932 516.402065 
L 94.717216 516.729118 
L 95.839501 516.709429 
L 96.961786 515.947284 
L 98.084071 515.438057 
L 99.206356 515.106145 
L 100.32864 507.854888 
L 101.450925 513.573928 
L 102.57321 513.475809 
L 104.81778 514.43132 
L 105.940064 515.922997 
L 107.062349 514.895506 
L 108.184634 515.023964 
L 109.306919 516.354747 
L 110.429204 517.17202 
L 111.551488 517.31612 
L 119.407482 517.342233 
L 121.652051 517.287116 
L 122.774336 517.027658 
L 123.896621 515.762758 
L 125.018906 514.008456 
L 126.141191 512.618255 
L 127.263475 513.20803 
L 128.38576 514.698343 
L 129.508045 515.40342 
L 130.63033 515.956974 
L 131.752615 515.545342 
L 132.874899 515.743637 
L 133.997184 516.5173 
L 135.119469 516.987313 
L 136.241754 517.229566 
L 138.486323 517.340596 
L 139.608608 517.301558 
L 140.730893 513.778028 
L 141.853178 513.426039 
L 142.975463 512.836471 
L 144.097747 511.166192 
L 145.220032 512.853481 
L 146.342317 515.431485 
L 147.464602 515.582125 
L 148.586887 515.920306 
L 149.709171 515.960244 
L 150.831456 516.601694 
L 151.953741 516.374591 
L 153.076026 515.566164 
L 154.198311 516.923533 
L 155.320595 516.890687 
L 156.44288 517.127002 
L 157.565165 517.239803 
L 159.809735 517.129748 
L 162.054304 517.165282 
L 164.298874 517.138364 
L 165.421158 517.286888 
L 166.543443 515.526641 
L 167.665728 497.821661 
L 168.788013 485.037397 
L 169.910298 485.817977 
L 171.032582 475.463482 
L 172.154867 502.245109 
L 173.277152 504.090139 
L 174.399437 511.662209 
L 175.521722 514.899668 
L 176.644006 516.786676 
L 177.766291 517.20846 
L 178.888576 517.317956 
L 180.010861 517.219745 
L 182.25543 517.296583 
L 186.74457 517.327584 
L 187.866854 514.469621 
L 188.989139 514.877448 
L 190.111424 513.994229 
L 191.233709 512.774956 
L 192.355994 513.169345 
L 193.478278 511.842712 
L 194.600563 511.122558 
L 195.722848 512.64014 
L 196.845133 516.341076 
L 197.967418 516.087423 
L 200.211987 515.747077 
L 201.334272 515.438736 
L 202.456557 509.917553 
L 203.578842 515.425157 
L 204.701126 514.709096 
L 205.823411 513.126478 
L 206.945696 506.674647 
L 208.067981 508.908326 
L 209.190265 511.96277 
L 210.31255 515.824386 
L 211.434835 515.703959 
L 212.55712 516.834896 
L 213.679405 517.265944 
L 217.046259 517.326339 
L 233.880531 517.342793 
L 235.002816 517.032469 
L 236.125101 512.060361 
L 237.247385 512.364106 
L 238.36967 509.797829 
L 239.491955 507.885768 
L 240.61424 507.528302 
L 241.736525 505.288325 
L 242.858809 500.483068 
L 243.981094 485.031664 
L 245.103379 480.253586 
L 246.225664 493.317665 
L 247.347949 511.083449 
L 248.470233 516.646904 
L 250.714803 517.329399 
L 255.203942 517.300302 
L 258.570796 517.144257 
L 259.693081 516.071229 
L 260.815366 508.806915 
L 261.937651 504.088732 
L 263.059936 502.429098 
L 264.18222 506.629434 
L 265.304505 507.279075 
L 267.549075 512.394868 
L 268.67136 516.409768 
L 269.793644 517.312762 
L 274.282784 517.292636 
L 278.771923 517.198266 
L 279.894208 517.11981 
L 282.138777 517.124525 
L 284.383347 516.879117 
L 285.505632 516.673495 
L 287.750201 515.983271 
L 288.872486 515.153693 
L 289.994771 515.340458 
L 292.23934 517.029508 
L 298.973049 517.342136 
L 311.318182 517.343297 
L 311.318182 517.343297 
" style="fill:none;stroke:#1f77b4;stroke-linecap:square;stroke-width:1.5;"/>
   </g>
   <g id="patch_38">
    <path d="M 45 519.437288 
L 45 473.369492 
" style="fill:none;stroke:#000000;stroke-linecap:square;stroke-linejoin:miter;stroke-width:0.8;"/>
   </g>
   <g id="patch_39">
    <path d="M 324 519.437288 
L 324 473.369492 
" style="fill:none;stroke:#000000;stroke-linecap:square;stroke-linejoin:miter;stroke-width:0.8;"/>
   </g>
   <g id="patch_40">
    <path d="M 45 519.437288 
L 324 519.437288 
" style="fill:none;stroke:#000000;stroke-linecap:square;stroke-linejoin:miter;stroke-width:0.8;"/>
   </g>
   <g id="patch_41">
    <path d="M 45 473.369492 
L 324 473.369492 
" style="fill:none;stroke:#000000;stroke-linecap:square;stroke-linejoin:miter;stroke-width:0.8;"/>
   </g>
  </g>
  <g id="axes_9">
   <g id="patch_42">
    <path d="M 45 574.718644 
L 324 574.718644 
L 324 528.650847 
L 45 528.650847 
z
" style="fill:none;"/>
   </g>
   <g id="matplotlib.axis_17">
    <g id="xtick_41">
     <g id="line2d_65">
      <g>
       <use style="stroke:#000000;stroke-width:0.8;" x="57.681818" xlink:href="#m164b3cadf1" y="574.718644"/>
      </g>
     </g>
     <g id="text_65">
      <!-- 0 -->
      <g transform="translate(54.500568 589.317082)scale(0.1 -0.1)">
       <use xlink:href="#DejaVuSans-48"/>
      </g>
     </g>
    </g>
    <g id="xtick_42">
     <g id="line2d_66">
      <g>
       <use style="stroke:#000000;stroke-width:0.8;" x="113.796058" xlink:href="#m164b3cadf1" y="574.718644"/>
      </g>
     </g>
     <g id="text_66">
      <!-- 50 -->
      <g transform="translate(107.433558 589.317082)scale(0.1 -0.1)">
       <use xlink:href="#DejaVuSans-53"/>
       <use x="63.623047" xlink:href="#DejaVuSans-48"/>
      </g>
     </g>
    </g>
    <g id="xtick_43">
     <g id="line2d_67">
      <g>
       <use style="stroke:#000000;stroke-width:0.8;" x="169.910298" xlink:href="#m164b3cadf1" y="574.718644"/>
      </g>
     </g>
     <g id="text_67">
      <!-- 100 -->
      <g transform="translate(160.366548 589.317082)scale(0.1 -0.1)">
       <use xlink:href="#DejaVuSans-49"/>
       <use x="63.623047" xlink:href="#DejaVuSans-48"/>
       <use x="127.246094" xlink:href="#DejaVuSans-48"/>
      </g>
     </g>
    </g>
    <g id="xtick_44">
     <g id="line2d_68">
      <g>
       <use style="stroke:#000000;stroke-width:0.8;" x="226.024537" xlink:href="#m164b3cadf1" y="574.718644"/>
      </g>
     </g>
     <g id="text_68">
      <!-- 150 -->
      <g transform="translate(216.480787 589.317082)scale(0.1 -0.1)">
       <use xlink:href="#DejaVuSans-49"/>
       <use x="63.623047" xlink:href="#DejaVuSans-53"/>
       <use x="127.246094" xlink:href="#DejaVuSans-48"/>
      </g>
     </g>
    </g>
    <g id="xtick_45">
     <g id="line2d_69">
      <g>
       <use style="stroke:#000000;stroke-width:0.8;" x="282.138777" xlink:href="#m164b3cadf1" y="574.718644"/>
      </g>
     </g>
     <g id="text_69">
      <!-- 200 -->
      <g transform="translate(272.595027 589.317082)scale(0.1 -0.1)">
       <use xlink:href="#DejaVuSans-50"/>
       <use x="63.623047" xlink:href="#DejaVuSans-48"/>
       <use x="127.246094" xlink:href="#DejaVuSans-48"/>
      </g>
     </g>
    </g>
   </g>
   <g id="matplotlib.axis_18">
    <g id="ytick_17">
     <g id="line2d_70">
      <g>
       <use style="stroke:#000000;stroke-width:0.8;" x="45" xlink:href="#m645cc205d1" y="572.624653"/>
      </g>
     </g>
     <g id="text_70">
      <!-- 0 -->
      <g transform="translate(31.6375 576.423872)scale(0.1 -0.1)">
       <use xlink:href="#DejaVuSans-48"/>
      </g>
     </g>
    </g>
    <g id="ytick_18">
     <g id="line2d_71">
      <g>
       <use style="stroke:#000000;stroke-width:0.8;" x="45" xlink:href="#m645cc205d1" y="531.821338"/>
      </g>
     </g>
     <g id="text_71">
      <!-- 2 -->
      <g transform="translate(31.6375 535.620557)scale(0.1 -0.1)">
       <use xlink:href="#DejaVuSans-50"/>
      </g>
     </g>
    </g>
    <g id="text_72">
     <!-- 1e6 -->
     <g transform="translate(45 525.650847)scale(0.1 -0.1)">
      <use xlink:href="#DejaVuSans-49"/>
      <use x="63.623047" xlink:href="#DejaVuSans-101"/>
      <use x="125.146484" xlink:href="#DejaVuSans-54"/>
     </g>
    </g>
   </g>
   <g id="line2d_72">
    <path clip-path="url(#p90c822d304)" d="M 57.681818 572.624653 
L 111.551488 572.603834 
L 112.673773 572.295345 
L 113.796058 570.345351 
L 114.918343 572.18667 
L 116.040628 552.046163 
L 118.285197 559.002702 
L 119.407482 543.186675 
L 120.529767 530.744838 
L 121.652051 535.22512 
L 122.774336 546.123462 
L 123.896621 567.459219 
L 125.018906 569.23942 
L 126.141191 569.982727 
L 127.263475 570.361455 
L 128.38576 571.014299 
L 129.508045 571.90393 
L 130.63033 572.557659 
L 131.752615 572.509647 
L 132.874899 570.355211 
L 133.997184 566.279059 
L 135.119469 565.920817 
L 136.241754 564.168661 
L 137.364039 560.365109 
L 138.486323 547.08589 
L 139.608608 545.590095 
L 141.853178 555.460795 
L 142.975463 562.352667 
L 144.097747 566.926895 
L 145.220032 570.630419 
L 146.342317 570.958781 
L 148.586887 571.117819 
L 150.831456 570.563941 
L 151.953741 570.486023 
L 153.076026 569.836194 
L 154.198311 569.968724 
L 155.320595 570.450782 
L 157.565165 565.101062 
L 158.68745 561.775555 
L 159.809735 562.879871 
L 160.932019 560.636697 
L 162.054304 565.711507 
L 163.176589 569.290889 
L 165.421158 570.999957 
L 166.543443 571.457435 
L 167.665728 571.577482 
L 171.032582 571.120872 
L 172.154867 569.918223 
L 173.277152 569.465726 
L 174.399437 569.67318 
L 175.521722 571.07753 
L 176.644006 571.045258 
L 177.766291 570.565821 
L 178.888576 567.444455 
L 180.010861 565.368235 
L 181.133146 560.366806 
L 182.25543 564.1754 
L 184.5 570.319817 
L 185.622285 571.962241 
L 186.74457 571.966215 
L 187.866854 571.739315 
L 188.989139 571.077215 
L 190.111424 570.849778 
L 191.233709 571.236791 
L 192.355994 571.318316 
L 193.478278 572.282925 
L 194.600563 569.161411 
L 195.722848 564.672412 
L 196.845133 564.082143 
L 197.967418 560.251037 
L 199.089702 548.134011 
L 200.211987 560.815073 
L 201.334272 562.093039 
L 202.456557 560.746175 
L 203.578842 557.237678 
L 204.701126 559.488727 
L 206.945696 568.292531 
L 208.067981 570.756663 
L 209.190265 571.119148 
L 210.31255 570.604664 
L 211.434835 571.859145 
L 212.55712 572.503964 
L 213.679405 572.430001 
L 218.168544 572.620746 
L 219.290829 572.611136 
L 220.413113 571.76713 
L 221.535398 571.41838 
L 222.657683 571.370574 
L 223.779968 571.152276 
L 224.902253 571.158111 
L 226.024537 570.502437 
L 227.146822 570.81662 
L 228.269107 569.59259 
L 229.391392 566.477851 
L 230.513677 556.283698 
L 231.635961 557.641752 
L 232.758246 571.296711 
L 233.880531 572.146208 
L 235.002816 572.562832 
L 236.125101 572.208933 
L 237.247385 572.332729 
L 238.36967 571.587325 
L 239.491955 570.19248 
L 240.61424 552.533476 
L 241.736525 549.769256 
L 242.858809 552.646184 
L 243.981094 558.411223 
L 245.103379 554.934042 
L 246.225664 555.794384 
L 247.347949 559.461858 
L 248.470233 564.20989 
L 249.592518 566.954853 
L 250.714803 567.114673 
L 252.959372 570.610944 
L 254.081657 571.08514 
L 255.203942 571.977302 
L 256.326227 572.448684 
L 257.448512 572.610858 
L 267.549075 572.624653 
L 311.318182 572.624653 
L 311.318182 572.624653 
" style="fill:none;stroke:#1f77b4;stroke-linecap:square;stroke-width:1.5;"/>
   </g>
   <g id="patch_43">
    <path d="M 45 574.718644 
L 45 528.650847 
" style="fill:none;stroke:#000000;stroke-linecap:square;stroke-linejoin:miter;stroke-width:0.8;"/>
   </g>
   <g id="patch_44">
    <path d="M 324 574.718644 
L 324 528.650847 
" style="fill:none;stroke:#000000;stroke-linecap:square;stroke-linejoin:miter;stroke-width:0.8;"/>
   </g>
   <g id="patch_45">
    <path d="M 45 574.718644 
L 324 574.718644 
" style="fill:none;stroke:#000000;stroke-linecap:square;stroke-linejoin:miter;stroke-width:0.8;"/>
   </g>
   <g id="patch_46">
    <path d="M 45 528.650847 
L 324 528.650847 
" style="fill:none;stroke:#000000;stroke-linecap:square;stroke-linejoin:miter;stroke-width:0.8;"/>
   </g>
  </g>
  <g id="axes_10">
   <g id="patch_47">
    <path d="M 45 630 
L 324 630 
L 324 583.932203 
L 45 583.932203 
z
" style="fill:none;"/>
   </g>
   <g id="matplotlib.axis_19">
    <g id="xtick_46">
     <g id="line2d_73">
      <g>
       <use style="stroke:#000000;stroke-width:0.8;" x="57.681818" xlink:href="#m164b3cadf1" y="630"/>
      </g>
     </g>
     <g id="text_73">
      <!-- 0 -->
      <g transform="translate(54.500568 644.598437)scale(0.1 -0.1)">
       <use xlink:href="#DejaVuSans-48"/>
      </g>
     </g>
    </g>
    <g id="xtick_47">
     <g id="line2d_74">
      <g>
       <use style="stroke:#000000;stroke-width:0.8;" x="113.796058" xlink:href="#m164b3cadf1" y="630"/>
      </g>
     </g>
     <g id="text_74">
      <!-- 50 -->
      <g transform="translate(107.433558 644.598437)scale(0.1 -0.1)">
       <use xlink:href="#DejaVuSans-53"/>
       <use x="63.623047" xlink:href="#DejaVuSans-48"/>
      </g>
     </g>
    </g>
    <g id="xtick_48">
     <g id="line2d_75">
      <g>
       <use style="stroke:#000000;stroke-width:0.8;" x="169.910298" xlink:href="#m164b3cadf1" y="630"/>
      </g>
     </g>
     <g id="text_75">
      <!-- 100 -->
      <g transform="translate(160.366548 644.598437)scale(0.1 -0.1)">
       <use xlink:href="#DejaVuSans-49"/>
       <use x="63.623047" xlink:href="#DejaVuSans-48"/>
       <use x="127.246094" xlink:href="#DejaVuSans-48"/>
      </g>
     </g>
    </g>
    <g id="xtick_49">
     <g id="line2d_76">
      <g>
       <use style="stroke:#000000;stroke-width:0.8;" x="226.024537" xlink:href="#m164b3cadf1" y="630"/>
      </g>
     </g>
     <g id="text_76">
      <!-- 150 -->
      <g transform="translate(216.480787 644.598437)scale(0.1 -0.1)">
       <use xlink:href="#DejaVuSans-49"/>
       <use x="63.623047" xlink:href="#DejaVuSans-53"/>
       <use x="127.246094" xlink:href="#DejaVuSans-48"/>
      </g>
     </g>
    </g>
    <g id="xtick_50">
     <g id="line2d_77">
      <g>
       <use style="stroke:#000000;stroke-width:0.8;" x="282.138777" xlink:href="#m164b3cadf1" y="630"/>
      </g>
     </g>
     <g id="text_77">
      <!-- 200 -->
      <g transform="translate(272.595027 644.598437)scale(0.1 -0.1)">
       <use xlink:href="#DejaVuSans-50"/>
       <use x="63.623047" xlink:href="#DejaVuSans-48"/>
       <use x="127.246094" xlink:href="#DejaVuSans-48"/>
      </g>
     </g>
    </g>
   </g>
   <g id="matplotlib.axis_20">
    <g id="ytick_19">
     <g id="line2d_78">
      <g>
       <use style="stroke:#000000;stroke-width:0.8;" x="45" xlink:href="#m645cc205d1" y="627.906009"/>
      </g>
     </g>
     <g id="text_78">
      <!-- 0 -->
      <g transform="translate(31.6375 631.705228)scale(0.1 -0.1)">
       <use xlink:href="#DejaVuSans-48"/>
      </g>
     </g>
    </g>
    <g id="ytick_20">
     <g id="line2d_79">
      <g>
       <use style="stroke:#000000;stroke-width:0.8;" x="45" xlink:href="#m645cc205d1" y="601.659284"/>
      </g>
     </g>
     <g id="text_79">
      <!-- 5 -->
      <g transform="translate(31.6375 605.458502)scale(0.1 -0.1)">
       <use xlink:href="#DejaVuSans-53"/>
      </g>
     </g>
    </g>
    <g id="text_80">
     <!-- 1e6 -->
     <g transform="translate(45 580.932203)scale(0.1 -0.1)">
      <use xlink:href="#DejaVuSans-49"/>
      <use x="63.623047" xlink:href="#DejaVuSans-101"/>
      <use x="125.146484" xlink:href="#DejaVuSans-54"/>
     </g>
    </g>
   </g>
   <g id="line2d_80">
    <path clip-path="url(#pa73eb124c8)" d="M 57.681818 627.906009 
L 105.940064 627.903758 
L 107.062349 616.704437 
L 109.306919 587.022353 
L 110.429204 608.397789 
L 111.551488 620.757704 
L 112.673773 619.279199 
L 113.796058 622.241179 
L 114.918343 623.384963 
L 116.040628 625.780647 
L 117.162912 626.515871 
L 118.285197 627.764473 
L 120.529767 627.81856 
L 123.896621 627.856378 
L 128.38576 627.905954 
L 129.508045 627.897494 
L 130.63033 623.607467 
L 131.752615 615.304121 
L 132.874899 618.369641 
L 133.997184 617.979177 
L 135.119469 622.27286 
L 136.241754 622.526956 
L 137.364039 620.590559 
L 138.486323 622.988352 
L 139.608608 619.916564 
L 141.853178 624.937338 
L 142.975463 625.400741 
L 144.097747 627.376876 
L 147.464602 627.274135 
L 148.586887 622.109748 
L 149.709171 600.106017 
L 150.831456 591.632597 
L 151.953741 586.026194 
L 153.076026 608.754642 
L 154.198311 613.677497 
L 156.44288 624.40845 
L 157.565165 626.805791 
L 158.68745 626.303255 
L 159.809735 627.49766 
L 160.932019 627.885674 
L 169.910298 627.90073 
L 173.277152 627.895469 
L 174.399437 625.782268 
L 175.521722 625.747637 
L 176.644006 626.243298 
L 177.766291 626.212871 
L 178.888576 626.337268 
L 180.010861 626.118078 
L 181.133146 627.422212 
L 182.25543 627.84568 
L 185.622285 627.905861 
L 187.866854 627.900127 
L 188.989139 627.591529 
L 190.111424 625.395896 
L 191.233709 615.679836 
L 192.355994 611.503369 
L 193.478278 621.835837 
L 194.600563 619.341857 
L 195.722848 613.893996 
L 196.845133 614.646059 
L 197.967418 616.552873 
L 199.089702 614.993397 
L 200.211987 622.034418 
L 201.334272 626.594096 
L 202.456557 627.670359 
L 203.578842 627.890224 
L 205.823411 627.858652 
L 206.945696 626.641592 
L 208.067981 613.47436 
L 209.190265 594.310297 
L 210.31255 599.43672 
L 211.434835 610.155352 
L 212.55712 617.287322 
L 213.679405 621.507942 
L 214.801689 621.576744 
L 217.046259 627.568359 
L 218.168544 627.691332 
L 220.413113 627.707932 
L 224.902253 627.744998 
L 227.146822 627.68678 
L 232.758246 627.733183 
L 233.880531 627.493727 
L 236.125101 625.415122 
L 237.247385 625.140676 
L 238.36967 626.147631 
L 239.491955 627.603456 
L 240.61424 627.777256 
L 241.736525 627.812778 
L 242.858809 627.667767 
L 245.103379 624.542225 
L 246.225664 625.881222 
L 247.347949 621.009915 
L 248.470233 621.768138 
L 249.592518 623.631503 
L 250.714803 624.384906 
L 251.837088 623.188384 
L 254.081657 624.277584 
L 255.203942 625.809703 
L 256.326227 626.50638 
L 257.448512 626.654604 
L 258.570796 627.101832 
L 261.937651 627.786396 
L 264.18222 627.90438 
L 311.318182 627.906009 
L 311.318182 627.906009 
" style="fill:none;stroke:#1f77b4;stroke-linecap:square;stroke-width:1.5;"/>
   </g>
   <g id="patch_48">
    <path d="M 45 630 
L 45 583.932203 
" style="fill:none;stroke:#000000;stroke-linecap:square;stroke-linejoin:miter;stroke-width:0.8;"/>
   </g>
   <g id="patch_49">
    <path d="M 324 630 
L 324 583.932203 
" style="fill:none;stroke:#000000;stroke-linecap:square;stroke-linejoin:miter;stroke-width:0.8;"/>
   </g>
   <g id="patch_50">
    <path d="M 45 630 
L 324 630 
" style="fill:none;stroke:#000000;stroke-linecap:square;stroke-linejoin:miter;stroke-width:0.8;"/>
   </g>
   <g id="patch_51">
    <path d="M 45 583.932203 
L 324 583.932203 
" style="fill:none;stroke:#000000;stroke-linecap:square;stroke-linejoin:miter;stroke-width:0.8;"/>
   </g>
  </g>
 </g>
 <defs>
  <clipPath id="p97610b9824">
   <rect height="46.067797" width="279" x="45" y="86.4"/>
  </clipPath>
  <clipPath id="p3a18132cbe">
   <rect height="46.067797" width="279" x="45" y="141.681356"/>
  </clipPath>
  <clipPath id="paf20a33d8f">
   <rect height="46.067797" width="279" x="45" y="196.962712"/>
  </clipPath>
  <clipPath id="p82419641ce">
   <rect height="46.067797" width="279" x="45" y="252.244068"/>
  </clipPath>
  <clipPath id="p9f6e853849">
   <rect height="46.067797" width="279" x="45" y="307.525424"/>
  </clipPath>
  <clipPath id="pdfb6fc6492">
   <rect height="46.067797" width="279" x="45" y="362.80678"/>
  </clipPath>
  <clipPath id="p6a0e87f862">
   <rect height="46.067797" width="279" x="45" y="418.088136"/>
  </clipPath>
  <clipPath id="pecc7376a78">
   <rect height="46.067797" width="279" x="45" y="473.369492"/>
  </clipPath>
  <clipPath id="p90c822d304">
   <rect height="46.067797" width="279" x="45" y="528.650847"/>
  </clipPath>
  <clipPath id="pa73eb124c8">
   <rect height="46.067797" width="279" x="45" y="583.932203"/>
  </clipPath>
 </defs>
</svg>
