<?xml version="1.0" encoding="utf-8" standalone="no"?>
<!DOCTYPE svg PUBLIC "-//W3C//DTD SVG 1.1//EN"
  "http://www.w3.org/Graphics/SVG/1.1/DTD/svg11.dtd">
<!-- Created with matplotlib (https://matplotlib.org/) -->
<svg height="504pt" version="1.1" viewBox="0 0 360 504" width="360pt" xmlns="http://www.w3.org/2000/svg" xmlns:xlink="http://www.w3.org/1999/xlink">
 <metadata>
  <rdf:RDF xmlns:cc="http://creativecommons.org/ns#" xmlns:dc="http://purl.org/dc/elements/1.1/" xmlns:rdf="http://www.w3.org/1999/02/22-rdf-syntax-ns#">
   <cc:Work>
    <dc:type rdf:resource="http://purl.org/dc/dcmitype/StillImage"/>
    <dc:date>2020-09-19T23:28:00.475651</dc:date>
    <dc:format>image/svg+xml</dc:format>
    <dc:creator>
     <cc:Agent>
      <dc:title>Matplotlib v3.3.1, https://matplotlib.org/</dc:title>
     </cc:Agent>
    </dc:creator>
   </cc:Work>
  </rdf:RDF>
 </metadata>
 <defs>
  <style type="text/css">*{stroke-linecap:butt;stroke-linejoin:round;}</style>
 </defs>
 <g id="figure_1">
  <g id="patch_1">
   <path d="M 0 504 
L 360 504 
L 360 0 
L 0 0 
z
" style="fill:none;"/>
  </g>
  <g id="axes_1">
   <g id="patch_2">
    <path d="M 45 106.884878 
L 324 106.884878 
L 324 60.48 
L 45 60.48 
z
" style="fill:none;"/>
   </g>
   <g id="matplotlib.axis_1">
    <g id="xtick_1">
     <g id="line2d_1">
      <defs>
       <path d="M 0 0 
L 0 3.5 
" id="m78bf62584c" style="stroke:#000000;stroke-width:0.8;"/>
      </defs>
      <g>
       <use style="stroke:#000000;stroke-width:0.8;" x="57.681818" xlink:href="#m78bf62584c" y="106.884878"/>
      </g>
     </g>
     <g id="text_1">
      <!-- 0 -->
      <g transform="translate(54.500568 121.483316)scale(0.1 -0.1)">
       <defs>
        <path d="M 31.78125 66.40625 
Q 24.171875 66.40625 20.328125 58.90625 
Q 16.5 51.421875 16.5 36.375 
Q 16.5 21.390625 20.328125 13.890625 
Q 24.171875 6.390625 31.78125 6.390625 
Q 39.453125 6.390625 43.28125 13.890625 
Q 47.125 21.390625 47.125 36.375 
Q 47.125 51.421875 43.28125 58.90625 
Q 39.453125 66.40625 31.78125 66.40625 
z
M 31.78125 74.21875 
Q 44.046875 74.21875 50.515625 64.515625 
Q 56.984375 54.828125 56.984375 36.375 
Q 56.984375 17.96875 50.515625 8.265625 
Q 44.046875 -1.421875 31.78125 -1.421875 
Q 19.53125 -1.421875 13.0625 8.265625 
Q 6.59375 17.96875 6.59375 36.375 
Q 6.59375 54.828125 13.0625 64.515625 
Q 19.53125 74.21875 31.78125 74.21875 
z
" id="DejaVuSans-48"/>
       </defs>
       <use xlink:href="#DejaVuSans-48"/>
      </g>
     </g>
    </g>
    <g id="xtick_2">
     <g id="line2d_2">
      <g>
       <use style="stroke:#000000;stroke-width:0.8;" x="106.27116" xlink:href="#m78bf62584c" y="106.884878"/>
      </g>
     </g>
     <g id="text_2">
      <!-- 50 -->
      <g transform="translate(99.90866 121.483316)scale(0.1 -0.1)">
       <defs>
        <path d="M 10.796875 72.90625 
L 49.515625 72.90625 
L 49.515625 64.59375 
L 19.828125 64.59375 
L 19.828125 46.734375 
Q 21.96875 47.46875 24.109375 47.828125 
Q 26.265625 48.1875 28.421875 48.1875 
Q 40.625 48.1875 47.75 41.5 
Q 54.890625 34.8125 54.890625 23.390625 
Q 54.890625 11.625 47.5625 5.09375 
Q 40.234375 -1.421875 26.90625 -1.421875 
Q 22.3125 -1.421875 17.546875 -0.640625 
Q 12.796875 0.140625 7.71875 1.703125 
L 7.71875 11.625 
Q 12.109375 9.234375 16.796875 8.0625 
Q 21.484375 6.890625 26.703125 6.890625 
Q 35.15625 6.890625 40.078125 11.328125 
Q 45.015625 15.765625 45.015625 23.390625 
Q 45.015625 31 40.078125 35.4375 
Q 35.15625 39.890625 26.703125 39.890625 
Q 22.75 39.890625 18.8125 39.015625 
Q 14.890625 38.140625 10.796875 36.28125 
z
" id="DejaVuSans-53"/>
       </defs>
       <use xlink:href="#DejaVuSans-53"/>
       <use x="63.623047" xlink:href="#DejaVuSans-48"/>
      </g>
     </g>
    </g>
    <g id="xtick_3">
     <g id="line2d_3">
      <g>
       <use style="stroke:#000000;stroke-width:0.8;" x="154.860502" xlink:href="#m78bf62584c" y="106.884878"/>
      </g>
     </g>
     <g id="text_3">
      <!-- 100 -->
      <g transform="translate(145.316752 121.483316)scale(0.1 -0.1)">
       <defs>
        <path d="M 12.40625 8.296875 
L 28.515625 8.296875 
L 28.515625 63.921875 
L 10.984375 60.40625 
L 10.984375 69.390625 
L 28.421875 72.90625 
L 38.28125 72.90625 
L 38.28125 8.296875 
L 54.390625 8.296875 
L 54.390625 0 
L 12.40625 0 
z
" id="DejaVuSans-49"/>
       </defs>
       <use xlink:href="#DejaVuSans-49"/>
       <use x="63.623047" xlink:href="#DejaVuSans-48"/>
       <use x="127.246094" xlink:href="#DejaVuSans-48"/>
      </g>
     </g>
    </g>
    <g id="xtick_4">
     <g id="line2d_4">
      <g>
       <use style="stroke:#000000;stroke-width:0.8;" x="203.449843" xlink:href="#m78bf62584c" y="106.884878"/>
      </g>
     </g>
     <g id="text_4">
      <!-- 150 -->
      <g transform="translate(193.906093 121.483316)scale(0.1 -0.1)">
       <use xlink:href="#DejaVuSans-49"/>
       <use x="63.623047" xlink:href="#DejaVuSans-53"/>
       <use x="127.246094" xlink:href="#DejaVuSans-48"/>
      </g>
     </g>
    </g>
    <g id="xtick_5">
     <g id="line2d_5">
      <g>
       <use style="stroke:#000000;stroke-width:0.8;" x="252.039185" xlink:href="#m78bf62584c" y="106.884878"/>
      </g>
     </g>
     <g id="text_5">
      <!-- 200 -->
      <g transform="translate(242.495435 121.483316)scale(0.1 -0.1)">
       <defs>
        <path d="M 19.1875 8.296875 
L 53.609375 8.296875 
L 53.609375 0 
L 7.328125 0 
L 7.328125 8.296875 
Q 12.9375 14.109375 22.625 23.890625 
Q 32.328125 33.6875 34.8125 36.53125 
Q 39.546875 41.84375 41.421875 45.53125 
Q 43.3125 49.21875 43.3125 52.78125 
Q 43.3125 58.59375 39.234375 62.25 
Q 35.15625 65.921875 28.609375 65.921875 
Q 23.96875 65.921875 18.8125 64.3125 
Q 13.671875 62.703125 7.8125 59.421875 
L 7.8125 69.390625 
Q 13.765625 71.78125 18.9375 73 
Q 24.125 74.21875 28.421875 74.21875 
Q 39.75 74.21875 46.484375 68.546875 
Q 53.21875 62.890625 53.21875 53.421875 
Q 53.21875 48.921875 51.53125 44.890625 
Q 49.859375 40.875 45.40625 35.40625 
Q 44.1875 33.984375 37.640625 27.21875 
Q 31.109375 20.453125 19.1875 8.296875 
z
" id="DejaVuSans-50"/>
       </defs>
       <use xlink:href="#DejaVuSans-50"/>
       <use x="63.623047" xlink:href="#DejaVuSans-48"/>
       <use x="127.246094" xlink:href="#DejaVuSans-48"/>
      </g>
     </g>
    </g>
    <g id="xtick_6">
     <g id="line2d_6">
      <g>
       <use style="stroke:#000000;stroke-width:0.8;" x="300.628527" xlink:href="#m78bf62584c" y="106.884878"/>
      </g>
     </g>
     <g id="text_6">
      <!-- 250 -->
      <g transform="translate(291.084777 121.483316)scale(0.1 -0.1)">
       <use xlink:href="#DejaVuSans-50"/>
       <use x="63.623047" xlink:href="#DejaVuSans-53"/>
       <use x="127.246094" xlink:href="#DejaVuSans-48"/>
      </g>
     </g>
    </g>
   </g>
   <g id="matplotlib.axis_2">
    <g id="ytick_1">
     <g id="line2d_7">
      <defs>
       <path d="M 0 0 
L -3.5 0 
" id="m5f76351bbc" style="stroke:#000000;stroke-width:0.8;"/>
      </defs>
      <g>
       <use style="stroke:#000000;stroke-width:0.8;" x="45" xlink:href="#m5f76351bbc" y="104.78294"/>
      </g>
     </g>
     <g id="text_7">
      <!-- 0 -->
      <g transform="translate(31.6375 108.582158)scale(0.1 -0.1)">
       <use xlink:href="#DejaVuSans-48"/>
      </g>
     </g>
    </g>
    <g id="ytick_2">
     <g id="line2d_8">
      <g>
       <use style="stroke:#000000;stroke-width:0.8;" x="45" xlink:href="#m5f76351bbc" y="75.336283"/>
      </g>
     </g>
     <g id="text_8">
      <!-- 500000 -->
      <g transform="translate(-0.175 79.135502)scale(0.1 -0.1)">
       <use xlink:href="#DejaVuSans-53"/>
       <use x="63.623047" xlink:href="#DejaVuSans-48"/>
       <use x="127.246094" xlink:href="#DejaVuSans-48"/>
       <use x="190.869141" xlink:href="#DejaVuSans-48"/>
       <use x="254.492188" xlink:href="#DejaVuSans-48"/>
       <use x="318.115234" xlink:href="#DejaVuSans-48"/>
      </g>
     </g>
    </g>
   </g>
   <g id="line2d_9">
    <path clip-path="url(#pb05b7c7feb)" d="M 57.681818 104.764622 
L 60.597179 104.677037 
L 62.540752 104.442603 
L 63.512539 104.202231 
L 64.484326 103.825149 
L 65.456113 103.25648 
L 66.4279 102.432939 
L 67.399687 101.289056 
L 68.371473 99.767525 
L 69.34326 97.83319 
L 70.315047 95.488518 
L 72.258621 89.843485 
L 74.202194 83.956277 
L 75.173981 81.462205 
L 76.145768 79.56343 
L 77.117555 78.425536 
L 78.089342 78.132189 
L 79.061129 78.668897 
L 80.032915 79.924505 
L 81.004702 81.71048 
L 83.920063 87.931225 
L 84.89185 89.629951 
L 85.863636 90.955189 
L 86.835423 91.899101 
L 87.80721 92.509514 
L 88.778997 92.868858 
L 90.722571 93.199532 
L 95.581505 93.782108 
L 96.553292 93.748576 
L 97.525078 93.581037 
L 98.496865 93.266846 
L 100.440439 92.272292 
L 103.355799 90.637222 
L 104.327586 90.295124 
L 105.299373 90.125104 
L 106.27116 90.13511 
L 108.214734 90.583225 
L 110.158307 91.134885 
L 111.130094 91.178389 
L 112.101881 90.885479 
L 113.073668 90.115232 
L 114.045455 88.74499 
L 115.017241 86.69473 
L 115.989028 83.953479 
L 116.960815 80.601487 
L 119.876176 69.15211 
L 120.847962 65.98016 
L 121.819749 63.709907 
L 122.791536 62.589313 
L 123.763323 62.735595 
L 124.73511 64.114992 
L 125.706897 66.552327 
L 126.678683 69.76506 
L 129.594044 80.719837 
L 130.565831 83.879384 
L 131.537618 86.529843 
L 132.509404 88.649228 
L 133.481191 90.285509 
L 134.452978 91.53007 
L 135.424765 92.490603 
L 137.368339 93.946808 
L 141.255486 96.366224 
L 143.19906 97.401744 
L 145.142633 98.210097 
L 147.086207 98.792701 
L 150.001567 99.363826 
L 151.945141 99.568165 
L 153.888715 99.558076 
L 155.832288 99.216968 
L 157.775862 98.462244 
L 159.719436 97.339429 
L 163.606583 94.837625 
L 167.49373 92.701986 
L 168.465517 91.980681 
L 169.437304 91.068697 
L 170.409091 89.939306 
L 172.352665 87.141147 
L 174.296238 84.285587 
L 175.268025 83.204064 
L 176.239812 82.552158 
L 177.211599 82.436376 
L 178.183386 82.90597 
L 179.155172 83.945137 
L 180.126959 85.477114 
L 182.070533 89.498857 
L 184.014107 93.799434 
L 184.985893 95.728899 
L 185.95768 97.395924 
L 186.929467 98.754309 
L 187.901254 99.783802 
L 188.873041 100.481783 
L 189.844828 100.854859 
L 190.816614 100.912709 
L 191.788401 100.665056 
L 192.760188 100.122162 
L 193.731975 99.298313 
L 194.703762 98.217082 
L 196.647335 95.455633 
L 199.562696 90.957411 
L 200.534483 89.757593 
L 201.50627 88.864063 
L 202.478056 88.336679 
L 203.449843 88.197829 
L 204.42163 88.428476 
L 205.393417 88.96919 
L 207.336991 90.588318 
L 209.280564 92.143016 
L 210.252351 92.629096 
L 211.224138 92.82591 
L 212.195925 92.705044 
L 213.167712 92.27488 
L 214.139498 91.578194 
L 216.083072 89.690453 
L 218.026646 87.793866 
L 218.998433 87.087075 
L 219.970219 86.647036 
L 220.942006 86.525591 
L 221.913793 86.74734 
L 222.88558 87.309284 
L 223.857367 88.180886 
L 224.829154 89.310409 
L 226.772727 92.046414 
L 228.716301 94.853688 
L 229.688088 96.081502 
L 230.659875 97.102602 
L 231.631661 97.865024 
L 232.603448 98.32804 
L 233.575235 98.460446 
L 234.547022 98.240486 
L 235.518809 97.657841 
L 236.490596 96.718501 
L 237.462382 95.451234 
L 239.405956 92.19336 
L 241.34953 88.691189 
L 242.321317 87.17998 
L 243.293103 85.993774 
L 244.26489 85.216079 
L 245.236677 84.881905 
L 246.208464 84.972421 
L 247.180251 85.417205 
L 249.123824 86.901569 
L 250.095611 87.663606 
L 251.067398 88.259916 
L 252.039185 88.584491 
L 253.010972 88.568009 
L 253.982759 88.184515 
L 254.954545 87.453472 
L 255.926332 86.437307 
L 259.81348 81.763716 
L 260.785266 81.070002 
L 261.757053 80.767735 
L 262.72884 80.904418 
L 263.700627 81.489799 
L 264.672414 82.495069 
L 265.644201 83.86186 
L 267.587774 87.329422 
L 270.503135 92.847971 
L 271.474922 94.422492 
L 272.446708 95.778661 
L 273.418495 96.905274 
L 274.390282 97.815636 
L 275.362069 98.541705 
L 277.305643 99.613429 
L 281.19279 101.226058 
L 284.10815 102.317876 
L 287.023511 103.145612 
L 289.938871 103.681878 
L 293.826019 104.151397 
L 298.684953 104.517445 
L 304.515674 104.7165 
L 311.318182 104.775565 
L 311.318182 104.775565 
" style="fill:none;stroke:#1f77b4;stroke-linecap:square;stroke-width:1.5;"/>
   </g>
   <g id="patch_3">
    <path d="M 45 106.884878 
L 45 60.48 
" style="fill:none;stroke:#000000;stroke-linecap:square;stroke-linejoin:miter;stroke-width:0.8;"/>
   </g>
   <g id="patch_4">
    <path d="M 324 106.884878 
L 324 60.48 
" style="fill:none;stroke:#000000;stroke-linecap:square;stroke-linejoin:miter;stroke-width:0.8;"/>
   </g>
   <g id="patch_5">
    <path d="M 45 106.884878 
L 324 106.884878 
" style="fill:none;stroke:#000000;stroke-linecap:square;stroke-linejoin:miter;stroke-width:0.8;"/>
   </g>
   <g id="patch_6">
    <path d="M 45 60.48 
L 324 60.48 
" style="fill:none;stroke:#000000;stroke-linecap:square;stroke-linejoin:miter;stroke-width:0.8;"/>
   </g>
  </g>
  <g id="axes_2">
   <g id="patch_7">
    <path d="M 45 162.570732 
L 324 162.570732 
L 324 116.165854 
L 45 116.165854 
z
" style="fill:none;"/>
   </g>
   <g id="matplotlib.axis_3">
    <g id="xtick_7">
     <g id="line2d_10">
      <g>
       <use style="stroke:#000000;stroke-width:0.8;" x="57.681818" xlink:href="#m78bf62584c" y="162.570732"/>
      </g>
     </g>
     <g id="text_9">
      <!-- 0 -->
      <g transform="translate(54.500568 177.169169)scale(0.1 -0.1)">
       <use xlink:href="#DejaVuSans-48"/>
      </g>
     </g>
    </g>
    <g id="xtick_8">
     <g id="line2d_11">
      <g>
       <use style="stroke:#000000;stroke-width:0.8;" x="106.27116" xlink:href="#m78bf62584c" y="162.570732"/>
      </g>
     </g>
     <g id="text_10">
      <!-- 50 -->
      <g transform="translate(99.90866 177.169169)scale(0.1 -0.1)">
       <use xlink:href="#DejaVuSans-53"/>
       <use x="63.623047" xlink:href="#DejaVuSans-48"/>
      </g>
     </g>
    </g>
    <g id="xtick_9">
     <g id="line2d_12">
      <g>
       <use style="stroke:#000000;stroke-width:0.8;" x="154.860502" xlink:href="#m78bf62584c" y="162.570732"/>
      </g>
     </g>
     <g id="text_11">
      <!-- 100 -->
      <g transform="translate(145.316752 177.169169)scale(0.1 -0.1)">
       <use xlink:href="#DejaVuSans-49"/>
       <use x="63.623047" xlink:href="#DejaVuSans-48"/>
       <use x="127.246094" xlink:href="#DejaVuSans-48"/>
      </g>
     </g>
    </g>
    <g id="xtick_10">
     <g id="line2d_13">
      <g>
       <use style="stroke:#000000;stroke-width:0.8;" x="203.449843" xlink:href="#m78bf62584c" y="162.570732"/>
      </g>
     </g>
     <g id="text_12">
      <!-- 150 -->
      <g transform="translate(193.906093 177.169169)scale(0.1 -0.1)">
       <use xlink:href="#DejaVuSans-49"/>
       <use x="63.623047" xlink:href="#DejaVuSans-53"/>
       <use x="127.246094" xlink:href="#DejaVuSans-48"/>
      </g>
     </g>
    </g>
    <g id="xtick_11">
     <g id="line2d_14">
      <g>
       <use style="stroke:#000000;stroke-width:0.8;" x="252.039185" xlink:href="#m78bf62584c" y="162.570732"/>
      </g>
     </g>
     <g id="text_13">
      <!-- 200 -->
      <g transform="translate(242.495435 177.169169)scale(0.1 -0.1)">
       <use xlink:href="#DejaVuSans-50"/>
       <use x="63.623047" xlink:href="#DejaVuSans-48"/>
       <use x="127.246094" xlink:href="#DejaVuSans-48"/>
      </g>
     </g>
    </g>
    <g id="xtick_12">
     <g id="line2d_15">
      <g>
       <use style="stroke:#000000;stroke-width:0.8;" x="300.628527" xlink:href="#m78bf62584c" y="162.570732"/>
      </g>
     </g>
     <g id="text_14">
      <!-- 250 -->
      <g transform="translate(291.084777 177.169169)scale(0.1 -0.1)">
       <use xlink:href="#DejaVuSans-50"/>
       <use x="63.623047" xlink:href="#DejaVuSans-53"/>
       <use x="127.246094" xlink:href="#DejaVuSans-48"/>
      </g>
     </g>
    </g>
   </g>
   <g id="matplotlib.axis_4">
    <g id="ytick_3">
     <g id="line2d_16">
      <g>
       <use style="stroke:#000000;stroke-width:0.8;" x="45" xlink:href="#m5f76351bbc" y="160.468578"/>
      </g>
     </g>
     <g id="text_15">
      <!-- 0 -->
      <g transform="translate(31.6375 164.267797)scale(0.1 -0.1)">
       <use xlink:href="#DejaVuSans-48"/>
      </g>
     </g>
    </g>
    <g id="ytick_4">
     <g id="line2d_17">
      <g>
       <use style="stroke:#000000;stroke-width:0.8;" x="45" xlink:href="#m5f76351bbc" y="126.171401"/>
      </g>
     </g>
     <g id="text_16">
      <!-- 500000 -->
      <g transform="translate(-0.175 129.97062)scale(0.1 -0.1)">
       <use xlink:href="#DejaVuSans-53"/>
       <use x="63.623047" xlink:href="#DejaVuSans-48"/>
       <use x="127.246094" xlink:href="#DejaVuSans-48"/>
       <use x="190.869141" xlink:href="#DejaVuSans-48"/>
       <use x="254.492188" xlink:href="#DejaVuSans-48"/>
       <use x="318.115234" xlink:href="#DejaVuSans-48"/>
      </g>
     </g>
    </g>
   </g>
   <g id="line2d_18">
    <path clip-path="url(#pfde60acca7)" d="M 57.681818 160.450796 
L 60.597179 160.36577 
L 62.540752 160.138184 
L 63.512539 159.904832 
L 64.484326 159.538746 
L 65.456113 158.986631 
L 66.4279 158.187019 
L 67.399687 157.076221 
L 68.371473 155.598338 
L 69.34326 153.71884 
L 70.315047 151.43954 
L 72.258621 145.94351 
L 74.202194 140.181683 
L 75.173981 137.713959 
L 76.145768 135.798911 
L 77.117555 134.587519 
L 78.089342 134.149674 
L 79.061129 134.459337 
L 80.032915 135.397447 
L 81.004702 136.77259 
L 82.948276 139.918193 
L 83.920063 141.273512 
L 84.89185 142.299644 
L 85.863636 142.952641 
L 86.835423 143.262182 
L 87.80721 143.314152 
L 90.722571 143.085586 
L 91.694357 143.194492 
L 92.666144 143.457006 
L 96.553292 144.983497 
L 97.525078 145.076567 
L 98.496865 144.924582 
L 99.468652 144.51508 
L 100.440439 143.873442 
L 102.384013 142.149756 
L 104.327586 140.43427 
L 105.299373 139.804224 
L 106.27116 139.41385 
L 107.242947 139.291817 
L 108.214734 139.429815 
L 110.158307 140.240115 
L 111.130094 140.683552 
L 112.101881 140.941966 
L 113.073668 140.835696 
L 114.045455 140.196431 
L 115.017241 138.89771 
L 115.989028 136.886442 
L 116.960815 134.208706 
L 118.904389 127.587984 
L 119.876176 124.246353 
L 120.847962 121.366489 
L 121.819749 119.290339 
L 122.791536 118.275166 
L 123.763323 118.450995 
L 124.73511 119.799371 
L 125.706897 122.162129 
L 126.678683 125.274231 
L 130.565831 139.015177 
L 131.537618 141.621718 
L 132.509404 143.719172 
L 133.481191 145.34991 
L 134.452978 146.59704 
L 135.424765 147.558479 
L 137.368339 148.97164 
L 139.311912 150.057542 
L 141.255486 150.928114 
L 143.19906 151.521284 
L 145.142633 151.807662 
L 149.029781 151.914114 
L 151.945141 152.12443 
L 154.860502 152.371005 
L 156.804075 152.241931 
L 158.747649 151.698705 
L 160.691223 150.786542 
L 165.550157 148.259439 
L 167.49373 147.171756 
L 168.465517 146.432693 
L 169.437304 145.487649 
L 170.409091 144.311252 
L 172.352665 141.390393 
L 174.296238 138.413501 
L 175.268025 137.290721 
L 176.239812 136.620001 
L 177.211599 136.512634 
L 178.183386 137.019769 
L 179.155172 138.124287 
L 180.126959 139.745111 
L 182.070533 143.987441 
L 184.014107 148.513612 
L 184.985893 150.539885 
L 185.95768 152.285462 
L 186.929467 153.699377 
L 187.901254 154.75674 
L 188.873041 155.449983 
L 189.844828 155.780187 
L 190.816614 155.751168 
L 191.788401 155.367118 
L 192.760188 154.634257 
L 193.731975 153.565635 
L 194.703762 152.187785 
L 196.647335 148.716094 
L 199.562696 143.131023 
L 200.534483 141.649446 
L 201.50627 140.542992 
L 202.478056 139.878481 
L 203.449843 139.676347 
L 204.42163 139.907875 
L 205.393417 140.498062 
L 207.336991 142.288651 
L 209.280564 144.006241 
L 210.252351 144.544229 
L 211.224138 144.764995 
L 212.195925 144.634883 
L 213.167712 144.156129 
L 214.139498 143.364396 
L 216.083072 141.123204 
L 218.026646 138.663455 
L 218.998433 137.630794 
L 219.970219 136.872164 
L 220.942006 136.474614 
L 221.913793 136.498041 
L 222.88558 136.968983 
L 223.857367 137.875447 
L 224.829154 139.169698 
L 226.772727 142.568093 
L 229.688088 147.988014 
L 230.659875 149.455323 
L 231.631661 150.625555 
L 232.603448 151.453339 
L 233.575235 151.910197 
L 234.547022 151.981359 
L 235.518809 151.664565 
L 236.490596 150.972414 
L 237.462382 149.936998 
L 238.434169 148.615144 
L 242.321317 142.478604 
L 243.293103 141.339018 
L 244.26489 140.556306 
L 245.236677 140.164807 
L 246.208464 140.148196 
L 247.180251 140.441393 
L 251.067398 142.39611 
L 252.039185 142.471593 
L 253.010972 142.21096 
L 253.982759 141.595734 
L 254.954545 140.6535 
L 256.898119 138.11071 
L 258.841693 135.517889 
L 259.81348 134.546999 
L 260.785266 133.950457 
L 261.757053 133.806429 
L 262.72884 134.151801 
L 263.700627 134.980504 
L 264.672414 136.244379 
L 265.644201 137.86423 
L 267.587774 141.744767 
L 269.531348 145.709964 
L 270.503135 147.472277 
L 271.474922 148.9986 
L 272.446708 150.260298 
L 273.418495 151.260181 
L 274.390282 152.028049 
L 276.333856 153.074237 
L 281.19279 155.16221 
L 286.051724 157.656477 
L 287.995298 158.42854 
L 289.938871 159.012787 
L 292.854232 159.611282 
L 295.769592 159.981093 
L 299.65674 160.251505 
L 305.487461 160.420473 
L 311.318182 160.461419 
L 311.318182 160.461419 
" style="fill:none;stroke:#1f77b4;stroke-linecap:square;stroke-width:1.5;"/>
   </g>
   <g id="patch_8">
    <path d="M 45 162.570732 
L 45 116.165854 
" style="fill:none;stroke:#000000;stroke-linecap:square;stroke-linejoin:miter;stroke-width:0.8;"/>
   </g>
   <g id="patch_9">
    <path d="M 324 162.570732 
L 324 116.165854 
" style="fill:none;stroke:#000000;stroke-linecap:square;stroke-linejoin:miter;stroke-width:0.8;"/>
   </g>
   <g id="patch_10">
    <path d="M 45 162.570732 
L 324 162.570732 
" style="fill:none;stroke:#000000;stroke-linecap:square;stroke-linejoin:miter;stroke-width:0.8;"/>
   </g>
   <g id="patch_11">
    <path d="M 45 116.165854 
L 324 116.165854 
" style="fill:none;stroke:#000000;stroke-linecap:square;stroke-linejoin:miter;stroke-width:0.8;"/>
   </g>
  </g>
  <g id="axes_3">
   <g id="patch_12">
    <path d="M 45 218.256585 
L 324 218.256585 
L 324 171.851707 
L 45 171.851707 
z
" style="fill:none;"/>
   </g>
   <g id="matplotlib.axis_5">
    <g id="xtick_13">
     <g id="line2d_19">
      <g>
       <use style="stroke:#000000;stroke-width:0.8;" x="57.681818" xlink:href="#m78bf62584c" y="218.256585"/>
      </g>
     </g>
     <g id="text_17">
      <!-- 0 -->
      <g transform="translate(54.500568 232.855023)scale(0.1 -0.1)">
       <use xlink:href="#DejaVuSans-48"/>
      </g>
     </g>
    </g>
    <g id="xtick_14">
     <g id="line2d_20">
      <g>
       <use style="stroke:#000000;stroke-width:0.8;" x="106.27116" xlink:href="#m78bf62584c" y="218.256585"/>
      </g>
     </g>
     <g id="text_18">
      <!-- 50 -->
      <g transform="translate(99.90866 232.855023)scale(0.1 -0.1)">
       <use xlink:href="#DejaVuSans-53"/>
       <use x="63.623047" xlink:href="#DejaVuSans-48"/>
      </g>
     </g>
    </g>
    <g id="xtick_15">
     <g id="line2d_21">
      <g>
       <use style="stroke:#000000;stroke-width:0.8;" x="154.860502" xlink:href="#m78bf62584c" y="218.256585"/>
      </g>
     </g>
     <g id="text_19">
      <!-- 100 -->
      <g transform="translate(145.316752 232.855023)scale(0.1 -0.1)">
       <use xlink:href="#DejaVuSans-49"/>
       <use x="63.623047" xlink:href="#DejaVuSans-48"/>
       <use x="127.246094" xlink:href="#DejaVuSans-48"/>
      </g>
     </g>
    </g>
    <g id="xtick_16">
     <g id="line2d_22">
      <g>
       <use style="stroke:#000000;stroke-width:0.8;" x="203.449843" xlink:href="#m78bf62584c" y="218.256585"/>
      </g>
     </g>
     <g id="text_20">
      <!-- 150 -->
      <g transform="translate(193.906093 232.855023)scale(0.1 -0.1)">
       <use xlink:href="#DejaVuSans-49"/>
       <use x="63.623047" xlink:href="#DejaVuSans-53"/>
       <use x="127.246094" xlink:href="#DejaVuSans-48"/>
      </g>
     </g>
    </g>
    <g id="xtick_17">
     <g id="line2d_23">
      <g>
       <use style="stroke:#000000;stroke-width:0.8;" x="252.039185" xlink:href="#m78bf62584c" y="218.256585"/>
      </g>
     </g>
     <g id="text_21">
      <!-- 200 -->
      <g transform="translate(242.495435 232.855023)scale(0.1 -0.1)">
       <use xlink:href="#DejaVuSans-50"/>
       <use x="63.623047" xlink:href="#DejaVuSans-48"/>
       <use x="127.246094" xlink:href="#DejaVuSans-48"/>
      </g>
     </g>
    </g>
    <g id="xtick_18">
     <g id="line2d_24">
      <g>
       <use style="stroke:#000000;stroke-width:0.8;" x="300.628527" xlink:href="#m78bf62584c" y="218.256585"/>
      </g>
     </g>
     <g id="text_22">
      <!-- 250 -->
      <g transform="translate(291.084777 232.855023)scale(0.1 -0.1)">
       <use xlink:href="#DejaVuSans-50"/>
       <use x="63.623047" xlink:href="#DejaVuSans-53"/>
       <use x="127.246094" xlink:href="#DejaVuSans-48"/>
      </g>
     </g>
    </g>
   </g>
   <g id="matplotlib.axis_6">
    <g id="ytick_5">
     <g id="line2d_25">
      <g>
       <use style="stroke:#000000;stroke-width:0.8;" x="45" xlink:href="#m5f76351bbc" y="216.153967"/>
      </g>
     </g>
     <g id="text_23">
      <!-- 0 -->
      <g transform="translate(31.6375 219.953186)scale(0.1 -0.1)">
       <use xlink:href="#DejaVuSans-48"/>
      </g>
     </g>
    </g>
    <g id="ytick_6">
     <g id="line2d_26">
      <g>
       <use style="stroke:#000000;stroke-width:0.8;" x="45" xlink:href="#m5f76351bbc" y="193.884434"/>
      </g>
     </g>
     <g id="text_24">
      <!-- 250000 -->
      <g transform="translate(-0.175 197.683653)scale(0.1 -0.1)">
       <use xlink:href="#DejaVuSans-50"/>
       <use x="63.623047" xlink:href="#DejaVuSans-53"/>
       <use x="127.246094" xlink:href="#DejaVuSans-48"/>
       <use x="190.869141" xlink:href="#DejaVuSans-48"/>
       <use x="254.492188" xlink:href="#DejaVuSans-48"/>
       <use x="318.115234" xlink:href="#DejaVuSans-48"/>
      </g>
     </g>
    </g>
   </g>
   <g id="line2d_27">
    <path clip-path="url(#p67b76acbb6)" d="M 57.681818 216.137339 
L 60.597179 216.057826 
L 62.540752 215.844994 
L 63.512539 215.626769 
L 64.484326 215.284372 
L 65.456113 214.767918 
L 66.4279 214.01985 
L 67.399687 212.980311 
L 68.371473 211.596419 
L 69.34326 209.834977 
L 70.315047 207.696381 
L 72.258621 202.520728 
L 74.202194 197.027405 
L 75.173981 194.615038 
L 76.145768 192.662985 
L 77.117555 191.290664 
L 78.089342 190.53827 
L 79.061129 190.354937 
L 80.032915 190.604753 
L 81.976489 191.590285 
L 82.948276 191.901668 
L 83.920063 191.877902 
L 84.89185 191.45613 
L 85.863636 190.66509 
L 88.778997 187.439315 
L 89.750784 186.680366 
L 90.722571 186.331881 
L 91.694357 186.455896 
L 92.666144 187.035331 
L 93.637931 187.977617 
L 96.553292 191.299405 
L 97.525078 191.938677 
L 98.496865 192.082923 
L 99.468652 191.65259 
L 100.440439 190.635518 
L 101.412226 189.0872 
L 103.355799 184.915043 
L 105.299373 180.584581 
L 106.27116 178.891892 
L 107.242947 177.760108 
L 108.214734 177.306633 
L 109.18652 177.567591 
L 110.158307 178.483897 
L 111.130094 179.900309 
L 113.073668 183.227567 
L 114.045455 184.544839 
L 115.017241 185.267698 
L 115.989028 185.220114 
L 116.960815 184.350112 
L 117.932602 182.74666 
L 120.847962 176.227759 
L 121.819749 174.674053 
L 122.791536 173.96102 
L 123.763323 174.255233 
L 124.73511 175.578432 
L 125.706897 177.814181 
L 126.678683 180.738255 
L 130.565831 193.753496 
L 131.537618 196.272901 
L 132.509404 198.324223 
L 133.481191 199.937577 
L 134.452978 201.178313 
L 135.424765 202.123563 
L 136.396552 202.843469 
L 137.368339 203.389464 
L 138.340125 203.789966 
L 139.311912 204.052831 
L 140.283699 204.172023 
L 141.255486 204.136695 
L 142.227273 203.939114 
L 143.19906 203.581474 
L 145.142633 202.47156 
L 148.057994 200.522329 
L 149.029781 200.035236 
L 150.001567 199.71839 
L 150.973354 199.602395 
L 151.945141 199.69515 
L 152.916928 199.97952 
L 154.860502 200.942398 
L 156.804075 202.000351 
L 157.775862 202.406105 
L 158.747649 202.67299 
L 159.719436 202.786836 
L 160.691223 202.756516 
L 162.634796 202.378981 
L 165.550157 201.432273 
L 166.521944 201.008526 
L 167.49373 200.462371 
L 168.465517 199.734264 
L 169.437304 198.774198 
L 170.409091 197.561386 
L 172.352665 194.527384 
L 174.296238 191.440469 
L 175.268025 190.288849 
L 176.239812 189.618852 
L 177.211599 189.547718 
L 178.183386 190.128829 
L 179.155172 191.343144 
L 180.126959 193.10378 
L 182.070533 197.678838 
L 184.014107 202.537542 
L 184.985893 204.704356 
L 185.95768 206.561102 
L 186.929467 208.047947 
L 187.901254 209.13041 
L 188.873041 209.790101 
L 189.844828 210.015884 
L 190.816614 209.798727 
L 191.788401 209.130926 
L 192.760188 208.010148 
L 193.731975 206.446749 
L 194.703762 204.473027 
L 196.647335 199.581494 
L 199.562696 191.81321 
L 200.534483 189.749501 
L 201.50627 188.184091 
L 202.478056 187.194197 
L 203.449843 186.794178 
L 204.42163 186.935983 
L 205.393417 187.516112 
L 207.336991 189.403388 
L 208.308777 190.39295 
L 209.280564 191.222674 
L 210.252351 191.784186 
L 211.224138 192.002606 
L 212.195925 191.835867 
L 213.167712 191.271592 
L 214.139498 190.324794 
L 215.111285 189.03709 
L 217.054859 185.745632 
L 218.998433 182.296052 
L 219.970219 180.894576 
L 220.942006 179.924766 
L 221.913793 179.523363 
L 222.88558 179.783078 
L 223.857367 180.735438 
L 224.829154 182.345286 
L 225.80094 184.510425 
L 227.744514 189.861473 
L 229.688088 195.348859 
L 230.659875 197.745995 
L 231.631661 199.772576 
L 232.603448 201.374298 
L 233.575235 202.52897 
L 234.547022 203.236452 
L 235.518809 203.5106 
L 236.490596 203.376302 
L 237.462382 202.87037 
L 238.434169 202.045992 
L 240.377743 199.755958 
L 242.321317 197.296223 
L 243.293103 196.268515 
L 244.26489 195.480512 
L 245.236677 194.966255 
L 246.208464 194.716612 
L 247.180251 194.680328 
L 250.095611 194.914796 
L 251.067398 194.749319 
L 252.039185 194.310156 
L 253.010972 193.549475 
L 253.982759 192.461609 
L 254.954545 191.087678 
L 258.841693 184.985536 
L 259.81348 184.056276 
L 260.785266 183.637419 
L 261.757053 183.801425 
L 262.72884 184.566407 
L 263.700627 185.895438 
L 264.672414 187.700494 
L 266.615987 192.219534 
L 268.559561 196.945468 
L 269.531348 199.038441 
L 270.503135 200.818651 
L 271.474922 202.235109 
L 272.446708 203.279768 
L 273.418495 203.985262 
L 274.390282 204.417544 
L 276.333856 204.822329 
L 278.277429 205.217364 
L 279.249216 205.57862 
L 280.221003 206.088362 
L 282.164577 207.522202 
L 287.995298 212.624379 
L 289.938871 213.820815 
L 291.882445 214.669783 
L 293.826019 215.233175 
L 295.769592 215.588354 
L 298.684953 215.878858 
L 303.543887 216.073292 
L 311.318182 216.147273 
L 311.318182 216.147273 
" style="fill:none;stroke:#1f77b4;stroke-linecap:square;stroke-width:1.5;"/>
   </g>
   <g id="patch_13">
    <path d="M 45 218.256585 
L 45 171.851707 
" style="fill:none;stroke:#000000;stroke-linecap:square;stroke-linejoin:miter;stroke-width:0.8;"/>
   </g>
   <g id="patch_14">
    <path d="M 324 218.256585 
L 324 171.851707 
" style="fill:none;stroke:#000000;stroke-linecap:square;stroke-linejoin:miter;stroke-width:0.8;"/>
   </g>
   <g id="patch_15">
    <path d="M 45 218.256585 
L 324 218.256585 
" style="fill:none;stroke:#000000;stroke-linecap:square;stroke-linejoin:miter;stroke-width:0.8;"/>
   </g>
   <g id="patch_16">
    <path d="M 45 171.851707 
L 324 171.851707 
" style="fill:none;stroke:#000000;stroke-linecap:square;stroke-linejoin:miter;stroke-width:0.8;"/>
   </g>
  </g>
  <g id="axes_4">
   <g id="patch_17">
    <path d="M 45 273.942439 
L 324 273.942439 
L 324 227.537561 
L 45 227.537561 
z
" style="fill:none;"/>
   </g>
   <g id="matplotlib.axis_7">
    <g id="xtick_19">
     <g id="line2d_28">
      <g>
       <use style="stroke:#000000;stroke-width:0.8;" x="57.681818" xlink:href="#m78bf62584c" y="273.942439"/>
      </g>
     </g>
     <g id="text_25">
      <!-- 0 -->
      <g transform="translate(54.500568 288.540877)scale(0.1 -0.1)">
       <use xlink:href="#DejaVuSans-48"/>
      </g>
     </g>
    </g>
    <g id="xtick_20">
     <g id="line2d_29">
      <g>
       <use style="stroke:#000000;stroke-width:0.8;" x="106.27116" xlink:href="#m78bf62584c" y="273.942439"/>
      </g>
     </g>
     <g id="text_26">
      <!-- 50 -->
      <g transform="translate(99.90866 288.540877)scale(0.1 -0.1)">
       <use xlink:href="#DejaVuSans-53"/>
       <use x="63.623047" xlink:href="#DejaVuSans-48"/>
      </g>
     </g>
    </g>
    <g id="xtick_21">
     <g id="line2d_30">
      <g>
       <use style="stroke:#000000;stroke-width:0.8;" x="154.860502" xlink:href="#m78bf62584c" y="273.942439"/>
      </g>
     </g>
     <g id="text_27">
      <!-- 100 -->
      <g transform="translate(145.316752 288.540877)scale(0.1 -0.1)">
       <use xlink:href="#DejaVuSans-49"/>
       <use x="63.623047" xlink:href="#DejaVuSans-48"/>
       <use x="127.246094" xlink:href="#DejaVuSans-48"/>
      </g>
     </g>
    </g>
    <g id="xtick_22">
     <g id="line2d_31">
      <g>
       <use style="stroke:#000000;stroke-width:0.8;" x="203.449843" xlink:href="#m78bf62584c" y="273.942439"/>
      </g>
     </g>
     <g id="text_28">
      <!-- 150 -->
      <g transform="translate(193.906093 288.540877)scale(0.1 -0.1)">
       <use xlink:href="#DejaVuSans-49"/>
       <use x="63.623047" xlink:href="#DejaVuSans-53"/>
       <use x="127.246094" xlink:href="#DejaVuSans-48"/>
      </g>
     </g>
    </g>
    <g id="xtick_23">
     <g id="line2d_32">
      <g>
       <use style="stroke:#000000;stroke-width:0.8;" x="252.039185" xlink:href="#m78bf62584c" y="273.942439"/>
      </g>
     </g>
     <g id="text_29">
      <!-- 200 -->
      <g transform="translate(242.495435 288.540877)scale(0.1 -0.1)">
       <use xlink:href="#DejaVuSans-50"/>
       <use x="63.623047" xlink:href="#DejaVuSans-48"/>
       <use x="127.246094" xlink:href="#DejaVuSans-48"/>
      </g>
     </g>
    </g>
    <g id="xtick_24">
     <g id="line2d_33">
      <g>
       <use style="stroke:#000000;stroke-width:0.8;" x="300.628527" xlink:href="#m78bf62584c" y="273.942439"/>
      </g>
     </g>
     <g id="text_30">
      <!-- 250 -->
      <g transform="translate(291.084777 288.540877)scale(0.1 -0.1)">
       <use xlink:href="#DejaVuSans-50"/>
       <use x="63.623047" xlink:href="#DejaVuSans-53"/>
       <use x="127.246094" xlink:href="#DejaVuSans-48"/>
      </g>
     </g>
    </g>
   </g>
   <g id="matplotlib.axis_8">
    <g id="ytick_7">
     <g id="line2d_34">
      <g>
       <use style="stroke:#000000;stroke-width:0.8;" x="45" xlink:href="#m5f76351bbc" y="271.836207"/>
      </g>
     </g>
     <g id="text_31">
      <!-- 0 -->
      <g transform="translate(31.6375 275.635426)scale(0.1 -0.1)">
       <use xlink:href="#DejaVuSans-48"/>
      </g>
     </g>
    </g>
    <g id="ytick_8">
     <g id="line2d_35">
      <g>
       <use style="stroke:#000000;stroke-width:0.8;" x="45" xlink:href="#m5f76351bbc" y="238.858001"/>
      </g>
     </g>
     <g id="text_32">
      <!-- 500000 -->
      <g transform="translate(-0.175 242.65722)scale(0.1 -0.1)">
       <use xlink:href="#DejaVuSans-53"/>
       <use x="63.623047" xlink:href="#DejaVuSans-48"/>
       <use x="127.246094" xlink:href="#DejaVuSans-48"/>
       <use x="190.869141" xlink:href="#DejaVuSans-48"/>
       <use x="254.492188" xlink:href="#DejaVuSans-48"/>
       <use x="318.115234" xlink:href="#DejaVuSans-48"/>
      </g>
     </g>
    </g>
   </g>
   <g id="line2d_36">
    <path clip-path="url(#p33750cab63)" d="M 57.681818 271.828554 
L 62.540752 271.693982 
L 64.484326 271.435866 
L 66.4279 270.853329 
L 67.399687 270.374025 
L 68.371473 269.735117 
L 69.34326 268.920398 
L 71.286834 266.778427 
L 76.145768 260.597178 
L 77.117555 259.724228 
L 79.061129 258.473662 
L 81.004702 257.381865 
L 81.976489 256.632323 
L 82.948276 255.627754 
L 83.920063 254.330601 
L 85.863636 251.008977 
L 87.80721 247.509746 
L 88.778997 246.100561 
L 89.750784 245.12069 
L 90.722571 244.669637 
L 91.694357 244.780461 
L 92.666144 245.413373 
L 93.637931 246.459173 
L 96.553292 250.254198 
L 97.525078 251.040488 
L 98.496865 251.273701 
L 99.468652 250.830129 
L 100.440439 249.65089 
L 101.412226 247.751071 
L 102.384013 245.223735 
L 104.327586 239.033983 
L 106.27116 233.127987 
L 107.242947 231.023435 
L 108.214734 229.815847 
L 109.18652 229.646874 
L 110.158307 230.539286 
L 111.130094 232.389193 
L 112.101881 234.977659 
L 115.017241 244.028586 
L 115.989028 246.451539 
L 116.960815 248.239409 
L 117.932602 249.352029 
L 118.904389 249.861176 
L 119.876176 249.927401 
L 121.819749 249.594668 
L 122.791536 249.613692 
L 123.763323 249.956771 
L 124.73511 250.684413 
L 125.706897 251.782907 
L 127.65047 254.758209 
L 129.594044 257.98624 
L 131.537618 260.68602 
L 132.509404 261.724471 
L 133.481191 262.552046 
L 134.452978 263.186122 
L 135.424765 263.647579 
L 136.396552 263.952628 
L 137.368339 264.108173 
L 138.340125 264.110631 
L 139.311912 263.94829 
L 140.283699 263.605809 
L 141.255486 263.070079 
L 142.227273 262.335789 
L 143.19906 261.41078 
L 145.142633 259.107911 
L 148.057994 255.441847 
L 149.029781 254.490198 
L 150.001567 253.807782 
L 150.973354 253.450316 
L 151.945141 253.444804 
L 152.916928 253.784492 
L 153.888715 254.42886 
L 155.832288 256.336773 
L 157.775862 258.464814 
L 159.719436 260.199004 
L 160.691223 260.820376 
L 161.663009 261.274583 
L 162.634796 261.580803 
L 164.57837 261.848806 
L 166.521944 261.752903 
L 167.49373 261.557332 
L 168.465517 261.238446 
L 169.437304 260.778716 
L 171.380878 259.443373 
L 174.296238 257.067477 
L 175.268025 256.501145 
L 176.239812 256.196699 
L 177.211599 256.216428 
L 178.183386 256.588198 
L 179.155172 257.300882 
L 180.126959 258.306832 
L 182.070533 260.879588 
L 184.014107 263.587707 
L 184.985893 264.788204 
L 185.95768 265.80834 
L 186.929467 266.609945 
L 187.901254 267.166466 
L 188.873041 267.458142 
L 189.844828 267.467606 
L 190.816614 267.178193 
L 191.788401 266.575098 
L 192.760188 265.649603 
L 193.731975 264.404852 
L 194.703762 262.862639 
L 196.647335 259.097571 
L 199.562696 253.161797 
L 200.534483 251.559875 
L 201.50627 250.303015 
L 202.478056 249.435712 
L 203.449843 248.957488 
L 204.42163 248.826932 
L 205.393417 248.969434 
L 207.336991 249.695701 
L 209.280564 250.421396 
L 210.252351 250.622564 
L 211.224138 250.663721 
L 212.195925 250.518941 
L 213.167712 250.166712 
L 214.139498 249.589246 
L 215.111285 248.776655 
L 216.083072 247.735588 
L 218.026646 245.137175 
L 219.970219 242.485088 
L 220.942006 241.482275 
L 221.913793 240.888897 
L 222.88558 240.817813 
L 223.857367 241.330126 
L 224.829154 242.423857 
L 225.80094 244.031781 
L 227.744514 248.276699 
L 229.688088 252.860066 
L 231.631661 256.774355 
L 232.603448 258.320593 
L 233.575235 259.576116 
L 234.547022 260.553973 
L 235.518809 261.274727 
L 236.490596 261.760147 
L 237.462382 262.030465 
L 238.434169 262.106386 
L 239.405956 262.012295 
L 241.34953 261.442797 
L 247.180251 259.132786 
L 249.123824 258.41709 
L 251.067398 257.410373 
L 252.039185 256.71635 
L 253.982759 254.880355 
L 257.869906 250.433105 
L 258.841693 249.629907 
L 259.81348 249.146067 
L 260.785266 249.054346 
L 261.757053 249.39291 
L 262.72884 250.158621 
L 263.700627 251.306698 
L 265.644201 254.396483 
L 267.587774 257.773245 
L 268.559561 259.278747 
L 269.531348 260.540284 
L 270.503135 261.502411 
L 271.474922 262.143998 
L 272.446708 262.478419 
L 273.418495 262.550321 
L 275.362069 262.199212 
L 277.305643 261.761271 
L 278.277429 261.701372 
L 279.249216 261.81392 
L 280.221003 262.118572 
L 281.19279 262.611659 
L 283.136364 264.053716 
L 287.995298 268.348309 
L 289.938871 269.63725 
L 291.882445 270.542483 
L 293.826019 271.115621 
L 295.769592 271.447187 
L 298.684953 271.680233 
L 304.515674 271.807545 
L 311.318182 271.833126 
L 311.318182 271.833126 
" style="fill:none;stroke:#1f77b4;stroke-linecap:square;stroke-width:1.5;"/>
   </g>
   <g id="patch_18">
    <path d="M 45 273.942439 
L 45 227.537561 
" style="fill:none;stroke:#000000;stroke-linecap:square;stroke-linejoin:miter;stroke-width:0.8;"/>
   </g>
   <g id="patch_19">
    <path d="M 324 273.942439 
L 324 227.537561 
" style="fill:none;stroke:#000000;stroke-linecap:square;stroke-linejoin:miter;stroke-width:0.8;"/>
   </g>
   <g id="patch_20">
    <path d="M 45 273.942439 
L 324 273.942439 
" style="fill:none;stroke:#000000;stroke-linecap:square;stroke-linejoin:miter;stroke-width:0.8;"/>
   </g>
   <g id="patch_21">
    <path d="M 45 227.537561 
L 324 227.537561 
" style="fill:none;stroke:#000000;stroke-linecap:square;stroke-linejoin:miter;stroke-width:0.8;"/>
   </g>
  </g>
  <g id="axes_5">
   <g id="patch_22">
    <path d="M 45 329.628293 
L 324 329.628293 
L 324 283.223415 
L 45 283.223415 
z
" style="fill:none;"/>
   </g>
   <g id="matplotlib.axis_9">
    <g id="xtick_25">
     <g id="line2d_37">
      <g>
       <use style="stroke:#000000;stroke-width:0.8;" x="57.681818" xlink:href="#m78bf62584c" y="329.628293"/>
      </g>
     </g>
     <g id="text_33">
      <!-- 0 -->
      <g transform="translate(54.500568 344.22673)scale(0.1 -0.1)">
       <use xlink:href="#DejaVuSans-48"/>
      </g>
     </g>
    </g>
    <g id="xtick_26">
     <g id="line2d_38">
      <g>
       <use style="stroke:#000000;stroke-width:0.8;" x="106.27116" xlink:href="#m78bf62584c" y="329.628293"/>
      </g>
     </g>
     <g id="text_34">
      <!-- 50 -->
      <g transform="translate(99.90866 344.22673)scale(0.1 -0.1)">
       <use xlink:href="#DejaVuSans-53"/>
       <use x="63.623047" xlink:href="#DejaVuSans-48"/>
      </g>
     </g>
    </g>
    <g id="xtick_27">
     <g id="line2d_39">
      <g>
       <use style="stroke:#000000;stroke-width:0.8;" x="154.860502" xlink:href="#m78bf62584c" y="329.628293"/>
      </g>
     </g>
     <g id="text_35">
      <!-- 100 -->
      <g transform="translate(145.316752 344.22673)scale(0.1 -0.1)">
       <use xlink:href="#DejaVuSans-49"/>
       <use x="63.623047" xlink:href="#DejaVuSans-48"/>
       <use x="127.246094" xlink:href="#DejaVuSans-48"/>
      </g>
     </g>
    </g>
    <g id="xtick_28">
     <g id="line2d_40">
      <g>
       <use style="stroke:#000000;stroke-width:0.8;" x="203.449843" xlink:href="#m78bf62584c" y="329.628293"/>
      </g>
     </g>
     <g id="text_36">
      <!-- 150 -->
      <g transform="translate(193.906093 344.22673)scale(0.1 -0.1)">
       <use xlink:href="#DejaVuSans-49"/>
       <use x="63.623047" xlink:href="#DejaVuSans-53"/>
       <use x="127.246094" xlink:href="#DejaVuSans-48"/>
      </g>
     </g>
    </g>
    <g id="xtick_29">
     <g id="line2d_41">
      <g>
       <use style="stroke:#000000;stroke-width:0.8;" x="252.039185" xlink:href="#m78bf62584c" y="329.628293"/>
      </g>
     </g>
     <g id="text_37">
      <!-- 200 -->
      <g transform="translate(242.495435 344.22673)scale(0.1 -0.1)">
       <use xlink:href="#DejaVuSans-50"/>
       <use x="63.623047" xlink:href="#DejaVuSans-48"/>
       <use x="127.246094" xlink:href="#DejaVuSans-48"/>
      </g>
     </g>
    </g>
    <g id="xtick_30">
     <g id="line2d_42">
      <g>
       <use style="stroke:#000000;stroke-width:0.8;" x="300.628527" xlink:href="#m78bf62584c" y="329.628293"/>
      </g>
     </g>
     <g id="text_38">
      <!-- 250 -->
      <g transform="translate(291.084777 344.22673)scale(0.1 -0.1)">
       <use xlink:href="#DejaVuSans-50"/>
       <use x="63.623047" xlink:href="#DejaVuSans-53"/>
       <use x="127.246094" xlink:href="#DejaVuSans-48"/>
      </g>
     </g>
    </g>
   </g>
   <g id="matplotlib.axis_10">
    <g id="ytick_9">
     <g id="line2d_43">
      <g>
       <use style="stroke:#000000;stroke-width:0.8;" x="45" xlink:href="#m5f76351bbc" y="327.520148"/>
      </g>
     </g>
     <g id="text_39">
      <!-- 0 -->
      <g transform="translate(31.6375 331.319366)scale(0.1 -0.1)">
       <use xlink:href="#DejaVuSans-48"/>
      </g>
     </g>
    </g>
    <g id="ytick_10">
     <g id="line2d_44">
      <g>
       <use style="stroke:#000000;stroke-width:0.8;" x="45" xlink:href="#m5f76351bbc" y="304.253178"/>
      </g>
     </g>
     <g id="text_40">
      <!-- 500000 -->
      <g transform="translate(-0.175 308.052397)scale(0.1 -0.1)">
       <use xlink:href="#DejaVuSans-53"/>
       <use x="63.623047" xlink:href="#DejaVuSans-48"/>
       <use x="127.246094" xlink:href="#DejaVuSans-48"/>
       <use x="190.869141" xlink:href="#DejaVuSans-48"/>
       <use x="254.492188" xlink:href="#DejaVuSans-48"/>
       <use x="318.115234" xlink:href="#DejaVuSans-48"/>
      </g>
     </g>
    </g>
   </g>
   <g id="line2d_45">
    <path clip-path="url(#p4c751d3f51)" d="M 57.681818 327.517247 
L 63.512539 327.428153 
L 66.4279 327.147132 
L 68.371473 326.720972 
L 70.315047 326.026787 
L 72.258621 325.078808 
L 79.061129 321.206225 
L 80.032915 320.48528 
L 81.004702 319.597339 
L 81.976489 318.496429 
L 82.948276 317.159927 
L 84.89185 313.865302 
L 86.835423 310.271921 
L 87.80721 308.6693 
L 88.778997 307.374565 
L 89.750784 306.495992 
L 90.722571 306.103323 
L 91.694357 306.211813 
L 92.666144 306.777699 
L 93.637931 307.700447 
L 96.553292 310.974712 
L 97.525078 311.59041 
L 98.496865 311.659619 
L 99.468652 311.043671 
L 100.440439 309.659052 
L 101.412226 307.492526 
L 102.384013 304.612978 
L 104.327586 297.42898 
L 106.27116 290.274988 
L 107.242947 287.567745 
L 108.214734 285.853414 
L 109.18652 285.332727 
L 110.158307 286.076643 
L 111.130094 288.013922 
L 112.101881 290.941238 
L 114.045455 298.506946 
L 115.989028 306.073081 
L 116.960815 309.182708 
L 117.932602 311.665967 
L 118.904389 313.514436 
L 119.876176 314.800451 
L 120.847962 315.64949 
L 121.819749 316.209339 
L 125.706897 317.945674 
L 127.65047 319.211249 
L 130.565831 321.222917 
L 132.509404 322.26749 
L 134.452978 322.939392 
L 136.396552 323.192926 
L 137.368339 323.138584 
L 138.340125 322.941426 
L 139.311912 322.580721 
L 140.283699 322.035755 
L 141.255486 321.289888 
L 142.227273 320.335042 
L 143.19906 319.176695 
L 145.142633 316.362998 
L 148.057994 311.865362 
L 149.029781 310.658324 
L 150.001567 309.75777 
L 150.973354 309.236573 
L 151.945141 309.136544 
L 152.916928 309.461329 
L 153.888715 310.175042 
L 154.860502 311.206985 
L 156.804075 313.831939 
L 158.747649 316.519569 
L 159.719436 317.683462 
L 160.691223 318.668285 
L 161.663009 319.462212 
L 162.634796 320.073634 
L 163.606583 320.523366 
L 165.550157 321.036187 
L 167.49373 321.153598 
L 169.437304 320.935648 
L 171.380878 320.42859 
L 174.296238 319.508751 
L 175.268025 319.311662 
L 176.239812 319.235845 
L 177.211599 319.308248 
L 178.183386 319.540292 
L 179.155172 319.925896 
L 181.098746 321.055362 
L 184.985893 323.626126 
L 186.929467 324.484454 
L 187.901254 324.721138 
L 188.873041 324.806534 
L 189.844828 324.723968 
L 190.816614 324.457 
L 191.788401 323.991176 
L 192.760188 323.317478 
L 193.731975 322.43615 
L 195.675549 320.122556 
L 199.562696 314.68255 
L 200.534483 313.545017 
L 201.50627 312.607735 
L 202.478056 311.890125 
L 203.449843 311.384074 
L 204.42163 311.05936 
L 206.365204 310.768008 
L 211.224138 310.423059 
L 213.167712 310.101162 
L 214.139498 309.822826 
L 215.111285 309.418451 
L 216.083072 308.858379 
L 217.054859 308.133711 
L 220.942006 304.591875 
L 221.913793 304.047734 
L 222.88558 303.860563 
L 223.857367 304.095412 
L 224.829154 304.767344 
L 225.80094 305.838442 
L 226.772727 307.226343 
L 231.631661 315.147828 
L 233.575235 317.472053 
L 235.518809 319.19457 
L 237.462382 320.433905 
L 239.405956 321.22531 
L 240.377743 321.448595 
L 242.321317 321.555042 
L 244.26489 321.2555 
L 246.208464 320.632755 
L 248.152038 319.76373 
L 250.095611 318.689047 
L 252.039185 317.404234 
L 254.954545 315.084365 
L 256.898119 313.494245 
L 257.869906 312.826155 
L 258.841693 312.329547 
L 259.81348 312.066914 
L 260.785266 312.085867 
L 261.757053 312.409752 
L 262.72884 313.031754 
L 263.700627 313.914027 
L 265.644201 316.178509 
L 267.587774 318.511054 
L 268.559561 319.483936 
L 269.531348 320.240359 
L 270.503135 320.744417 
L 271.474922 320.98746 
L 272.446708 320.987429 
L 273.418495 320.785873 
L 275.362069 320.029481 
L 277.305643 319.281861 
L 278.277429 319.072438 
L 279.249216 319.030207 
L 280.221003 319.174026 
L 281.19279 319.503101 
L 282.164577 319.998933 
L 284.10815 321.357073 
L 287.995298 324.407357 
L 289.938871 325.598178 
L 291.882445 326.436158 
L 293.826019 326.957509 
L 295.769592 327.246857 
L 298.684953 327.432253 
L 305.487461 327.511913 
L 311.318182 327.51898 
L 311.318182 327.51898 
" style="fill:none;stroke:#1f77b4;stroke-linecap:square;stroke-width:1.5;"/>
   </g>
   <g id="patch_23">
    <path d="M 45 329.628293 
L 45 283.223415 
" style="fill:none;stroke:#000000;stroke-linecap:square;stroke-linejoin:miter;stroke-width:0.8;"/>
   </g>
   <g id="patch_24">
    <path d="M 324 329.628293 
L 324 283.223415 
" style="fill:none;stroke:#000000;stroke-linecap:square;stroke-linejoin:miter;stroke-width:0.8;"/>
   </g>
   <g id="patch_25">
    <path d="M 45 329.628293 
L 324 329.628293 
" style="fill:none;stroke:#000000;stroke-linecap:square;stroke-linejoin:miter;stroke-width:0.8;"/>
   </g>
   <g id="patch_26">
    <path d="M 45 283.223415 
L 324 283.223415 
" style="fill:none;stroke:#000000;stroke-linecap:square;stroke-linejoin:miter;stroke-width:0.8;"/>
   </g>
  </g>
  <g id="axes_6">
   <g id="patch_27">
    <path d="M 45 385.314146 
L 324 385.314146 
L 324 338.909268 
L 45 338.909268 
z
" style="fill:none;"/>
   </g>
   <g id="matplotlib.axis_11">
    <g id="xtick_31">
     <g id="line2d_46">
      <g>
       <use style="stroke:#000000;stroke-width:0.8;" x="57.681818" xlink:href="#m78bf62584c" y="385.314146"/>
      </g>
     </g>
     <g id="text_41">
      <!-- 0 -->
      <g transform="translate(54.500568 399.912584)scale(0.1 -0.1)">
       <use xlink:href="#DejaVuSans-48"/>
      </g>
     </g>
    </g>
    <g id="xtick_32">
     <g id="line2d_47">
      <g>
       <use style="stroke:#000000;stroke-width:0.8;" x="106.27116" xlink:href="#m78bf62584c" y="385.314146"/>
      </g>
     </g>
     <g id="text_42">
      <!-- 50 -->
      <g transform="translate(99.90866 399.912584)scale(0.1 -0.1)">
       <use xlink:href="#DejaVuSans-53"/>
       <use x="63.623047" xlink:href="#DejaVuSans-48"/>
      </g>
     </g>
    </g>
    <g id="xtick_33">
     <g id="line2d_48">
      <g>
       <use style="stroke:#000000;stroke-width:0.8;" x="154.860502" xlink:href="#m78bf62584c" y="385.314146"/>
      </g>
     </g>
     <g id="text_43">
      <!-- 100 -->
      <g transform="translate(145.316752 399.912584)scale(0.1 -0.1)">
       <use xlink:href="#DejaVuSans-49"/>
       <use x="63.623047" xlink:href="#DejaVuSans-48"/>
       <use x="127.246094" xlink:href="#DejaVuSans-48"/>
      </g>
     </g>
    </g>
    <g id="xtick_34">
     <g id="line2d_49">
      <g>
       <use style="stroke:#000000;stroke-width:0.8;" x="203.449843" xlink:href="#m78bf62584c" y="385.314146"/>
      </g>
     </g>
     <g id="text_44">
      <!-- 150 -->
      <g transform="translate(193.906093 399.912584)scale(0.1 -0.1)">
       <use xlink:href="#DejaVuSans-49"/>
       <use x="63.623047" xlink:href="#DejaVuSans-53"/>
       <use x="127.246094" xlink:href="#DejaVuSans-48"/>
      </g>
     </g>
    </g>
    <g id="xtick_35">
     <g id="line2d_50">
      <g>
       <use style="stroke:#000000;stroke-width:0.8;" x="252.039185" xlink:href="#m78bf62584c" y="385.314146"/>
      </g>
     </g>
     <g id="text_45">
      <!-- 200 -->
      <g transform="translate(242.495435 399.912584)scale(0.1 -0.1)">
       <use xlink:href="#DejaVuSans-50"/>
       <use x="63.623047" xlink:href="#DejaVuSans-48"/>
       <use x="127.246094" xlink:href="#DejaVuSans-48"/>
      </g>
     </g>
    </g>
    <g id="xtick_36">
     <g id="line2d_51">
      <g>
       <use style="stroke:#000000;stroke-width:0.8;" x="300.628527" xlink:href="#m78bf62584c" y="385.314146"/>
      </g>
     </g>
     <g id="text_46">
      <!-- 250 -->
      <g transform="translate(291.084777 399.912584)scale(0.1 -0.1)">
       <use xlink:href="#DejaVuSans-50"/>
       <use x="63.623047" xlink:href="#DejaVuSans-53"/>
       <use x="127.246094" xlink:href="#DejaVuSans-48"/>
      </g>
     </g>
    </g>
   </g>
   <g id="matplotlib.axis_12">
    <g id="ytick_11">
     <g id="line2d_52">
      <g>
       <use style="stroke:#000000;stroke-width:0.8;" x="45" xlink:href="#m5f76351bbc" y="383.205256"/>
      </g>
     </g>
     <g id="text_47">
      <!-- 0 -->
      <g transform="translate(31.6375 387.004474)scale(0.1 -0.1)">
       <use xlink:href="#DejaVuSans-48"/>
      </g>
     </g>
    </g>
    <g id="ytick_12">
     <g id="line2d_53">
      <g>
       <use style="stroke:#000000;stroke-width:0.8;" x="45" xlink:href="#m5f76351bbc" y="347.433845"/>
      </g>
     </g>
     <g id="text_48">
      <!-- 1 -->
      <g transform="translate(31.6375 351.233063)scale(0.1 -0.1)">
       <use xlink:href="#DejaVuSans-49"/>
      </g>
     </g>
    </g>
    <g id="text_49">
     <!-- 1e6 -->
     <g transform="translate(45 335.909268)scale(0.1 -0.1)">
      <defs>
       <path d="M 56.203125 29.59375 
L 56.203125 25.203125 
L 14.890625 25.203125 
Q 15.484375 15.921875 20.484375 11.0625 
Q 25.484375 6.203125 34.421875 6.203125 
Q 39.59375 6.203125 44.453125 7.46875 
Q 49.3125 8.734375 54.109375 11.28125 
L 54.109375 2.78125 
Q 49.265625 0.734375 44.1875 -0.34375 
Q 39.109375 -1.421875 33.890625 -1.421875 
Q 20.796875 -1.421875 13.15625 6.1875 
Q 5.515625 13.8125 5.515625 26.8125 
Q 5.515625 40.234375 12.765625 48.109375 
Q 20.015625 56 32.328125 56 
Q 43.359375 56 49.78125 48.890625 
Q 56.203125 41.796875 56.203125 29.59375 
z
M 47.21875 32.234375 
Q 47.125 39.59375 43.09375 43.984375 
Q 39.0625 48.390625 32.421875 48.390625 
Q 24.90625 48.390625 20.390625 44.140625 
Q 15.875 39.890625 15.1875 32.171875 
z
" id="DejaVuSans-101"/>
       <path d="M 33.015625 40.375 
Q 26.375 40.375 22.484375 35.828125 
Q 18.609375 31.296875 18.609375 23.390625 
Q 18.609375 15.53125 22.484375 10.953125 
Q 26.375 6.390625 33.015625 6.390625 
Q 39.65625 6.390625 43.53125 10.953125 
Q 47.40625 15.53125 47.40625 23.390625 
Q 47.40625 31.296875 43.53125 35.828125 
Q 39.65625 40.375 33.015625 40.375 
z
M 52.59375 71.296875 
L 52.59375 62.3125 
Q 48.875 64.0625 45.09375 64.984375 
Q 41.3125 65.921875 37.59375 65.921875 
Q 27.828125 65.921875 22.671875 59.328125 
Q 17.53125 52.734375 16.796875 39.40625 
Q 19.671875 43.65625 24.015625 45.921875 
Q 28.375 48.1875 33.59375 48.1875 
Q 44.578125 48.1875 50.953125 41.515625 
Q 57.328125 34.859375 57.328125 23.390625 
Q 57.328125 12.15625 50.6875 5.359375 
Q 44.046875 -1.421875 33.015625 -1.421875 
Q 20.359375 -1.421875 13.671875 8.265625 
Q 6.984375 17.96875 6.984375 36.375 
Q 6.984375 53.65625 15.1875 63.9375 
Q 23.390625 74.21875 37.203125 74.21875 
Q 40.921875 74.21875 44.703125 73.484375 
Q 48.484375 72.75 52.59375 71.296875 
z
" id="DejaVuSans-54"/>
      </defs>
      <use xlink:href="#DejaVuSans-49"/>
      <use x="63.623047" xlink:href="#DejaVuSans-101"/>
      <use x="125.146484" xlink:href="#DejaVuSans-54"/>
     </g>
    </g>
   </g>
   <g id="line2d_54">
    <path clip-path="url(#pc1310f0144)" d="M 57.681818 383.204207 
L 65.456113 383.117546 
L 68.371473 382.913863 
L 71.286834 382.483532 
L 74.202194 381.815983 
L 76.145768 381.232176 
L 78.089342 380.42761 
L 79.061129 379.874431 
L 80.032915 379.174096 
L 81.004702 378.294526 
L 81.976489 377.215262 
L 83.920063 374.481561 
L 87.80721 368.374685 
L 88.778997 367.281701 
L 89.750784 366.551856 
L 90.722571 366.23682 
L 91.694357 366.343423 
L 92.666144 366.830019 
L 93.637931 367.607645 
L 95.581505 369.484338 
L 96.553292 370.242372 
L 97.525078 370.636657 
L 98.496865 370.495616 
L 99.468652 369.677017 
L 100.440439 368.086342 
L 101.412226 365.695389 
L 102.384013 362.558818 
L 104.327586 354.736749 
L 106.27116 346.836465 
L 107.242947 343.77374 
L 108.214734 341.757577 
L 109.18652 341.018581 
L 110.158307 341.651026 
L 111.130094 343.597711 
L 112.101881 346.659401 
L 114.045455 354.842204 
L 115.989028 363.383679 
L 116.960815 367.058795 
L 117.932602 370.121597 
L 118.904389 372.531029 
L 119.876176 374.324957 
L 120.847962 375.595337 
L 121.819749 376.461397 
L 122.791536 377.045932 
L 124.73511 377.783152 
L 133.481191 380.408322 
L 135.424765 380.612897 
L 136.396552 380.585497 
L 137.368339 380.446814 
L 138.340125 380.174351 
L 139.311912 379.743831 
L 140.283699 379.131465 
L 141.255486 378.317303 
L 142.227273 377.2895 
L 143.19906 376.049513 
L 145.142633 373.03284 
L 148.057994 368.131836 
L 149.029781 366.784547 
L 150.001567 365.75707 
L 150.973354 365.133444 
L 151.945141 364.965424 
L 152.916928 365.264007 
L 153.888715 365.997109 
L 154.860502 367.093895 
L 156.804075 369.966394 
L 158.747649 373.00249 
L 160.691223 375.519656 
L 161.663009 376.482408 
L 162.634796 377.243992 
L 163.606583 377.822667 
L 164.57837 378.244813 
L 166.521944 378.729226 
L 168.465517 378.879833 
L 170.409091 378.815987 
L 175.268025 378.451592 
L 177.211599 378.577336 
L 179.155172 378.977923 
L 182.070533 379.945198 
L 184.985893 380.917947 
L 186.929467 381.334217 
L 188.873041 381.431701 
L 189.844828 381.326202 
L 190.816614 381.099089 
L 191.788401 380.73828 
L 192.760188 380.236351 
L 194.703762 378.817803 
L 196.647335 376.96747 
L 199.562696 374.033703 
L 201.50627 372.444153 
L 203.449843 371.305541 
L 205.393417 370.497916 
L 208.308777 369.531231 
L 210.252351 369.024945 
L 212.195925 368.717693 
L 215.111285 368.353412 
L 216.083072 368.092876 
L 217.054859 367.702139 
L 218.998433 366.557098 
L 220.942006 365.30405 
L 221.913793 364.862365 
L 222.88558 364.664866 
L 223.857367 364.772019 
L 224.829154 365.205265 
L 225.80094 365.943762 
L 226.772727 366.930492 
L 229.688088 370.559403 
L 231.631661 372.832466 
L 233.575235 374.715463 
L 235.518809 376.271238 
L 237.462382 377.577218 
L 239.405956 378.599332 
L 241.34953 379.230819 
L 242.321317 379.371317 
L 243.293103 379.389232 
L 244.26489 379.286932 
L 246.208464 378.760017 
L 248.152038 377.904503 
L 251.067398 376.286841 
L 257.869906 372.142713 
L 258.841693 371.77736 
L 259.81348 371.59125 
L 260.785266 371.62214 
L 261.757053 371.889493 
L 262.72884 372.388833 
L 263.700627 373.09028 
L 265.644201 374.871942 
L 267.587774 376.66763 
L 268.559561 377.391138 
L 269.531348 377.927321 
L 270.503135 378.247836 
L 271.474922 378.347037 
L 272.446708 378.241187 
L 273.418495 377.965945 
L 278.277429 376.024127 
L 279.249216 375.906634 
L 280.221003 375.958762 
L 281.19279 376.182929 
L 282.164577 376.565781 
L 284.10815 377.696471 
L 288.967085 380.977326 
L 290.910658 381.906471 
L 292.854232 382.521133 
L 294.797806 382.878345 
L 297.713166 383.112698 
L 302.5721 383.194947 
L 311.318182 383.204834 
L 311.318182 383.204834 
" style="fill:none;stroke:#1f77b4;stroke-linecap:square;stroke-width:1.5;"/>
   </g>
   <g id="patch_28">
    <path d="M 45 385.314146 
L 45 338.909268 
" style="fill:none;stroke:#000000;stroke-linecap:square;stroke-linejoin:miter;stroke-width:0.8;"/>
   </g>
   <g id="patch_29">
    <path d="M 324 385.314146 
L 324 338.909268 
" style="fill:none;stroke:#000000;stroke-linecap:square;stroke-linejoin:miter;stroke-width:0.8;"/>
   </g>
   <g id="patch_30">
    <path d="M 45 385.314146 
L 324 385.314146 
" style="fill:none;stroke:#000000;stroke-linecap:square;stroke-linejoin:miter;stroke-width:0.8;"/>
   </g>
   <g id="patch_31">
    <path d="M 45 338.909268 
L 324 338.909268 
" style="fill:none;stroke:#000000;stroke-linecap:square;stroke-linejoin:miter;stroke-width:0.8;"/>
   </g>
  </g>
  <g id="axes_7">
   <g id="patch_32">
    <path d="M 45 441 
L 324 441 
L 324 394.595122 
L 45 394.595122 
z
" style="fill:none;"/>
   </g>
   <g id="matplotlib.axis_13">
    <g id="xtick_37">
     <g id="line2d_55">
      <g>
       <use style="stroke:#000000;stroke-width:0.8;" x="57.681818" xlink:href="#m78bf62584c" y="441"/>
      </g>
     </g>
     <g id="text_50">
      <!-- 0 -->
      <g transform="translate(54.500568 455.598438)scale(0.1 -0.1)">
       <use xlink:href="#DejaVuSans-48"/>
      </g>
     </g>
    </g>
    <g id="xtick_38">
     <g id="line2d_56">
      <g>
       <use style="stroke:#000000;stroke-width:0.8;" x="106.27116" xlink:href="#m78bf62584c" y="441"/>
      </g>
     </g>
     <g id="text_51">
      <!-- 50 -->
      <g transform="translate(99.90866 455.598438)scale(0.1 -0.1)">
       <use xlink:href="#DejaVuSans-53"/>
       <use x="63.623047" xlink:href="#DejaVuSans-48"/>
      </g>
     </g>
    </g>
    <g id="xtick_39">
     <g id="line2d_57">
      <g>
       <use style="stroke:#000000;stroke-width:0.8;" x="154.860502" xlink:href="#m78bf62584c" y="441"/>
      </g>
     </g>
     <g id="text_52">
      <!-- 100 -->
      <g transform="translate(145.316752 455.598438)scale(0.1 -0.1)">
       <use xlink:href="#DejaVuSans-49"/>
       <use x="63.623047" xlink:href="#DejaVuSans-48"/>
       <use x="127.246094" xlink:href="#DejaVuSans-48"/>
      </g>
     </g>
    </g>
    <g id="xtick_40">
     <g id="line2d_58">
      <g>
       <use style="stroke:#000000;stroke-width:0.8;" x="203.449843" xlink:href="#m78bf62584c" y="441"/>
      </g>
     </g>
     <g id="text_53">
      <!-- 150 -->
      <g transform="translate(193.906093 455.598438)scale(0.1 -0.1)">
       <use xlink:href="#DejaVuSans-49"/>
       <use x="63.623047" xlink:href="#DejaVuSans-53"/>
       <use x="127.246094" xlink:href="#DejaVuSans-48"/>
      </g>
     </g>
    </g>
    <g id="xtick_41">
     <g id="line2d_59">
      <g>
       <use style="stroke:#000000;stroke-width:0.8;" x="252.039185" xlink:href="#m78bf62584c" y="441"/>
      </g>
     </g>
     <g id="text_54">
      <!-- 200 -->
      <g transform="translate(242.495435 455.598438)scale(0.1 -0.1)">
       <use xlink:href="#DejaVuSans-50"/>
       <use x="63.623047" xlink:href="#DejaVuSans-48"/>
       <use x="127.246094" xlink:href="#DejaVuSans-48"/>
      </g>
     </g>
    </g>
    <g id="xtick_42">
     <g id="line2d_60">
      <g>
       <use style="stroke:#000000;stroke-width:0.8;" x="300.628527" xlink:href="#m78bf62584c" y="441"/>
      </g>
     </g>
     <g id="text_55">
      <!-- 250 -->
      <g transform="translate(291.084777 455.598438)scale(0.1 -0.1)">
       <use xlink:href="#DejaVuSans-50"/>
       <use x="63.623047" xlink:href="#DejaVuSans-53"/>
       <use x="127.246094" xlink:href="#DejaVuSans-48"/>
      </g>
     </g>
    </g>
   </g>
   <g id="matplotlib.axis_14">
    <g id="ytick_13">
     <g id="line2d_61">
      <g>
       <use style="stroke:#000000;stroke-width:0.8;" x="45" xlink:href="#m5f76351bbc" y="438.890855"/>
      </g>
     </g>
     <g id="text_56">
      <!-- 0 -->
      <g transform="translate(31.6375 442.690074)scale(0.1 -0.1)">
       <use xlink:href="#DejaVuSans-48"/>
      </g>
     </g>
    </g>
    <g id="ytick_14">
     <g id="line2d_62">
      <g>
       <use style="stroke:#000000;stroke-width:0.8;" x="45" xlink:href="#m5f76351bbc" y="408.185667"/>
      </g>
     </g>
     <g id="text_57">
      <!-- 1 -->
      <g transform="translate(31.6375 411.984886)scale(0.1 -0.1)">
       <use xlink:href="#DejaVuSans-49"/>
      </g>
     </g>
    </g>
    <g id="text_58">
     <!-- 1e6 -->
     <g transform="translate(45 391.595122)scale(0.1 -0.1)">
      <use xlink:href="#DejaVuSans-49"/>
      <use x="63.623047" xlink:href="#DejaVuSans-101"/>
      <use x="125.146484" xlink:href="#DejaVuSans-54"/>
     </g>
    </g>
   </g>
   <g id="line2d_63">
    <path clip-path="url(#p6b0f4e46b5)" d="M 57.681818 438.890439 
L 67.399687 438.80973 
L 71.286834 438.586995 
L 74.202194 438.243611 
L 76.145768 437.852192 
L 78.089342 437.187084 
L 79.061129 436.688836 
L 80.032915 436.042881 
L 81.004702 435.226594 
L 81.976489 434.228743 
L 83.920063 431.735333 
L 86.835423 427.515204 
L 87.80721 426.310201 
L 88.778997 425.358125 
L 89.750784 424.728516 
L 90.722571 424.46384 
L 91.694357 424.567345 
L 92.666144 424.999785 
L 94.609718 426.489183 
L 95.581505 427.279312 
L 96.553292 427.882889 
L 97.525078 428.125672 
L 98.496865 427.841109 
L 99.468652 426.887143 
L 100.440439 425.165232 
L 101.412226 422.640612 
L 102.384013 419.361139 
L 104.327586 411.210789 
L 106.27116 402.946137 
L 107.242947 399.712328 
L 108.214734 397.550615 
L 109.18652 396.704435 
L 110.158307 397.277735 
L 111.130094 399.218528 
L 112.101881 402.328075 
L 113.073668 406.29569 
L 115.989028 419.667999 
L 116.960815 423.557511 
L 117.932602 426.837362 
L 118.904389 429.454775 
L 119.876176 431.435793 
L 120.847962 432.861192 
L 121.819749 433.840848 
L 122.791536 434.491371 
L 123.763323 434.91992 
L 125.706897 435.439299 
L 133.481191 436.946389 
L 135.424765 437.053 
L 137.368339 436.822959 
L 138.340125 436.527312 
L 139.311912 436.077772 
L 140.283699 435.449031 
L 141.255486 434.619132 
L 142.227273 433.573724 
L 143.19906 432.311486 
L 145.142633 429.226485 
L 148.057994 424.155087 
L 149.029781 422.742068 
L 150.001567 421.652541 
L 150.973354 420.976352 
L 151.945141 420.770546 
L 152.916928 421.050147 
L 153.888715 421.785331 
L 154.860502 422.905527 
L 156.804075 425.880712 
L 158.747649 429.067567 
L 160.691223 431.745176 
L 161.663009 432.781005 
L 162.634796 433.606976 
L 163.606583 434.240106 
L 164.57837 434.70719 
L 166.521944 435.263031 
L 168.465517 435.489724 
L 171.380878 435.537559 
L 175.268025 435.578827 
L 178.183386 435.895601 
L 181.098746 436.481899 
L 184.985893 437.303746 
L 186.929467 437.54511 
L 188.873041 437.560665 
L 190.816614 437.255134 
L 192.760188 436.543026 
L 194.703762 435.402947 
L 196.647335 433.931253 
L 200.534483 430.875845 
L 202.478056 429.665761 
L 205.393417 428.207828 
L 209.280564 426.522974 
L 211.224138 426.004411 
L 213.167712 425.822724 
L 216.083072 425.650171 
L 217.054859 425.432582 
L 218.998433 424.651054 
L 220.942006 423.682206 
L 221.913793 423.314639 
L 222.88558 423.130999 
L 223.857367 423.187157 
L 224.829154 423.506421 
L 225.80094 424.076242 
L 226.772727 424.853018 
L 228.716301 426.76678 
L 231.631661 429.646124 
L 233.575235 431.260899 
L 236.490596 433.332035 
L 238.434169 434.511966 
L 240.377743 435.413855 
L 241.34953 435.71511 
L 242.321317 435.897967 
L 243.293103 435.956008 
L 244.26489 435.889251 
L 246.208464 435.4174 
L 248.152038 434.606919 
L 252.039185 432.571019 
L 256.898119 429.941926 
L 258.841693 429.202408 
L 259.81348 429.038858 
L 260.785266 429.060964 
L 261.757053 429.287558 
L 262.72884 429.716487 
L 263.700627 430.32282 
L 265.644201 431.8693 
L 267.587774 433.424774 
L 268.559561 434.045055 
L 269.531348 434.496362 
L 270.503135 434.753003 
L 271.474922 434.809575 
L 272.446708 434.680234 
L 274.390282 434.003727 
L 277.305643 432.721146 
L 278.277429 432.434852 
L 279.249216 432.285912 
L 280.221003 432.29412 
L 281.19279 432.463907 
L 282.164577 432.785041 
L 284.10815 433.784406 
L 288.967085 436.80877 
L 290.910658 437.68106 
L 292.854232 438.259492 
L 294.797806 438.594835 
L 297.713166 438.81233 
L 303.543887 438.88704 
L 311.318182 438.890687 
L 311.318182 438.890687 
" style="fill:none;stroke:#1f77b4;stroke-linecap:square;stroke-width:1.5;"/>
   </g>
   <g id="patch_33">
    <path d="M 45 441 
L 45 394.595122 
" style="fill:none;stroke:#000000;stroke-linecap:square;stroke-linejoin:miter;stroke-width:0.8;"/>
   </g>
   <g id="patch_34">
    <path d="M 324 441 
L 324 394.595122 
" style="fill:none;stroke:#000000;stroke-linecap:square;stroke-linejoin:miter;stroke-width:0.8;"/>
   </g>
   <g id="patch_35">
    <path d="M 45 441 
L 324 441 
" style="fill:none;stroke:#000000;stroke-linecap:square;stroke-linejoin:miter;stroke-width:0.8;"/>
   </g>
   <g id="patch_36">
    <path d="M 45 394.595122 
L 324 394.595122 
" style="fill:none;stroke:#000000;stroke-linecap:square;stroke-linejoin:miter;stroke-width:0.8;"/>
   </g>
  </g>
 </g>
 <defs>
  <clipPath id="pb05b7c7feb">
   <rect height="46.404878" width="279" x="45" y="60.48"/>
  </clipPath>
  <clipPath id="pfde60acca7">
   <rect height="46.404878" width="279" x="45" y="116.165854"/>
  </clipPath>
  <clipPath id="p67b76acbb6">
   <rect height="46.404878" width="279" x="45" y="171.851707"/>
  </clipPath>
  <clipPath id="p33750cab63">
   <rect height="46.404878" width="279" x="45" y="227.537561"/>
  </clipPath>
  <clipPath id="p4c751d3f51">
   <rect height="46.404878" width="279" x="45" y="283.223415"/>
  </clipPath>
  <clipPath id="pc1310f0144">
   <rect height="46.404878" width="279" x="45" y="338.909268"/>
  </clipPath>
  <clipPath id="p6b0f4e46b5">
   <rect height="46.404878" width="279" x="45" y="394.595122"/>
  </clipPath>
 </defs>
</svg>
