<?xml version="1.0" encoding="utf-8" standalone="no"?>
<!DOCTYPE svg PUBLIC "-//W3C//DTD SVG 1.1//EN"
  "http://www.w3.org/Graphics/SVG/1.1/DTD/svg11.dtd">
<!-- Created with matplotlib (https://matplotlib.org/) -->
<svg height="504pt" version="1.1" viewBox="0 0 360 504" width="360pt" xmlns="http://www.w3.org/2000/svg" xmlns:xlink="http://www.w3.org/1999/xlink">
 <metadata>
  <rdf:RDF xmlns:cc="http://creativecommons.org/ns#" xmlns:dc="http://purl.org/dc/elements/1.1/" xmlns:rdf="http://www.w3.org/1999/02/22-rdf-syntax-ns#">
   <cc:Work>
    <dc:type rdf:resource="http://purl.org/dc/dcmitype/StillImage"/>
    <dc:date>2020-09-19T23:27:58.972057</dc:date>
    <dc:format>image/svg+xml</dc:format>
    <dc:creator>
     <cc:Agent>
      <dc:title>Matplotlib v3.3.1, https://matplotlib.org/</dc:title>
     </cc:Agent>
    </dc:creator>
   </cc:Work>
  </rdf:RDF>
 </metadata>
 <defs>
  <style type="text/css">*{stroke-linecap:butt;stroke-linejoin:round;}</style>
 </defs>
 <g id="figure_1">
  <g id="patch_1">
   <path d="M 0 504 
L 360 504 
L 360 0 
L 0 0 
z
" style="fill:none;"/>
  </g>
  <g id="axes_1">
   <g id="patch_2">
    <path d="M 45 106.884878 
L 324 106.884878 
L 324 60.48 
L 45 60.48 
z
" style="fill:none;"/>
   </g>
   <g id="matplotlib.axis_1">
    <g id="xtick_1">
     <g id="line2d_1">
      <defs>
       <path d="M 0 0 
L 0 3.5 
" id="m47e710b617" style="stroke:#000000;stroke-width:0.8;"/>
      </defs>
      <g>
       <use style="stroke:#000000;stroke-width:0.8;" x="57.681818" xlink:href="#m47e710b617" y="106.884878"/>
      </g>
     </g>
     <g id="text_1">
      <!-- 0 -->
      <g transform="translate(54.500568 121.483316)scale(0.1 -0.1)">
       <defs>
        <path d="M 31.78125 66.40625 
Q 24.171875 66.40625 20.328125 58.90625 
Q 16.5 51.421875 16.5 36.375 
Q 16.5 21.390625 20.328125 13.890625 
Q 24.171875 6.390625 31.78125 6.390625 
Q 39.453125 6.390625 43.28125 13.890625 
Q 47.125 21.390625 47.125 36.375 
Q 47.125 51.421875 43.28125 58.90625 
Q 39.453125 66.40625 31.78125 66.40625 
z
M 31.78125 74.21875 
Q 44.046875 74.21875 50.515625 64.515625 
Q 56.984375 54.828125 56.984375 36.375 
Q 56.984375 17.96875 50.515625 8.265625 
Q 44.046875 -1.421875 31.78125 -1.421875 
Q 19.53125 -1.421875 13.0625 8.265625 
Q 6.59375 17.96875 6.59375 36.375 
Q 6.59375 54.828125 13.0625 64.515625 
Q 19.53125 74.21875 31.78125 74.21875 
z
" id="DejaVuSans-48"/>
       </defs>
       <use xlink:href="#DejaVuSans-48"/>
      </g>
     </g>
    </g>
    <g id="xtick_2">
     <g id="line2d_2">
      <g>
       <use style="stroke:#000000;stroke-width:0.8;" x="106.458042" xlink:href="#m47e710b617" y="106.884878"/>
      </g>
     </g>
     <g id="text_2">
      <!-- 50 -->
      <g transform="translate(100.095542 121.483316)scale(0.1 -0.1)">
       <defs>
        <path d="M 10.796875 72.90625 
L 49.515625 72.90625 
L 49.515625 64.59375 
L 19.828125 64.59375 
L 19.828125 46.734375 
Q 21.96875 47.46875 24.109375 47.828125 
Q 26.265625 48.1875 28.421875 48.1875 
Q 40.625 48.1875 47.75 41.5 
Q 54.890625 34.8125 54.890625 23.390625 
Q 54.890625 11.625 47.5625 5.09375 
Q 40.234375 -1.421875 26.90625 -1.421875 
Q 22.3125 -1.421875 17.546875 -0.640625 
Q 12.796875 0.140625 7.71875 1.703125 
L 7.71875 11.625 
Q 12.109375 9.234375 16.796875 8.0625 
Q 21.484375 6.890625 26.703125 6.890625 
Q 35.15625 6.890625 40.078125 11.328125 
Q 45.015625 15.765625 45.015625 23.390625 
Q 45.015625 31 40.078125 35.4375 
Q 35.15625 39.890625 26.703125 39.890625 
Q 22.75 39.890625 18.8125 39.015625 
Q 14.890625 38.140625 10.796875 36.28125 
z
" id="DejaVuSans-53"/>
       </defs>
       <use xlink:href="#DejaVuSans-53"/>
       <use x="63.623047" xlink:href="#DejaVuSans-48"/>
      </g>
     </g>
    </g>
    <g id="xtick_3">
     <g id="line2d_3">
      <g>
       <use style="stroke:#000000;stroke-width:0.8;" x="155.234266" xlink:href="#m47e710b617" y="106.884878"/>
      </g>
     </g>
     <g id="text_3">
      <!-- 100 -->
      <g transform="translate(145.690516 121.483316)scale(0.1 -0.1)">
       <defs>
        <path d="M 12.40625 8.296875 
L 28.515625 8.296875 
L 28.515625 63.921875 
L 10.984375 60.40625 
L 10.984375 69.390625 
L 28.421875 72.90625 
L 38.28125 72.90625 
L 38.28125 8.296875 
L 54.390625 8.296875 
L 54.390625 0 
L 12.40625 0 
z
" id="DejaVuSans-49"/>
       </defs>
       <use xlink:href="#DejaVuSans-49"/>
       <use x="63.623047" xlink:href="#DejaVuSans-48"/>
       <use x="127.246094" xlink:href="#DejaVuSans-48"/>
      </g>
     </g>
    </g>
    <g id="xtick_4">
     <g id="line2d_4">
      <g>
       <use style="stroke:#000000;stroke-width:0.8;" x="204.01049" xlink:href="#m47e710b617" y="106.884878"/>
      </g>
     </g>
     <g id="text_4">
      <!-- 150 -->
      <g transform="translate(194.46674 121.483316)scale(0.1 -0.1)">
       <use xlink:href="#DejaVuSans-49"/>
       <use x="63.623047" xlink:href="#DejaVuSans-53"/>
       <use x="127.246094" xlink:href="#DejaVuSans-48"/>
      </g>
     </g>
    </g>
    <g id="xtick_5">
     <g id="line2d_5">
      <g>
       <use style="stroke:#000000;stroke-width:0.8;" x="252.786713" xlink:href="#m47e710b617" y="106.884878"/>
      </g>
     </g>
     <g id="text_5">
      <!-- 200 -->
      <g transform="translate(243.242963 121.483316)scale(0.1 -0.1)">
       <defs>
        <path d="M 19.1875 8.296875 
L 53.609375 8.296875 
L 53.609375 0 
L 7.328125 0 
L 7.328125 8.296875 
Q 12.9375 14.109375 22.625 23.890625 
Q 32.328125 33.6875 34.8125 36.53125 
Q 39.546875 41.84375 41.421875 45.53125 
Q 43.3125 49.21875 43.3125 52.78125 
Q 43.3125 58.59375 39.234375 62.25 
Q 35.15625 65.921875 28.609375 65.921875 
Q 23.96875 65.921875 18.8125 64.3125 
Q 13.671875 62.703125 7.8125 59.421875 
L 7.8125 69.390625 
Q 13.765625 71.78125 18.9375 73 
Q 24.125 74.21875 28.421875 74.21875 
Q 39.75 74.21875 46.484375 68.546875 
Q 53.21875 62.890625 53.21875 53.421875 
Q 53.21875 48.921875 51.53125 44.890625 
Q 49.859375 40.875 45.40625 35.40625 
Q 44.1875 33.984375 37.640625 27.21875 
Q 31.109375 20.453125 19.1875 8.296875 
z
" id="DejaVuSans-50"/>
       </defs>
       <use xlink:href="#DejaVuSans-50"/>
       <use x="63.623047" xlink:href="#DejaVuSans-48"/>
       <use x="127.246094" xlink:href="#DejaVuSans-48"/>
      </g>
     </g>
    </g>
    <g id="xtick_6">
     <g id="line2d_6">
      <g>
       <use style="stroke:#000000;stroke-width:0.8;" x="301.562937" xlink:href="#m47e710b617" y="106.884878"/>
      </g>
     </g>
     <g id="text_6">
      <!-- 250 -->
      <g transform="translate(292.019187 121.483316)scale(0.1 -0.1)">
       <use xlink:href="#DejaVuSans-50"/>
       <use x="63.623047" xlink:href="#DejaVuSans-53"/>
       <use x="127.246094" xlink:href="#DejaVuSans-48"/>
      </g>
     </g>
    </g>
   </g>
   <g id="matplotlib.axis_2">
    <g id="ytick_1">
     <g id="line2d_7">
      <defs>
       <path d="M 0 0 
L -3.5 0 
" id="m21599e1e14" style="stroke:#000000;stroke-width:0.8;"/>
      </defs>
      <g>
       <use style="stroke:#000000;stroke-width:0.8;" x="45" xlink:href="#m21599e1e14" y="104.775565"/>
      </g>
     </g>
     <g id="text_7">
      <!-- 0 -->
      <g transform="translate(31.6375 108.574784)scale(0.1 -0.1)">
       <use xlink:href="#DejaVuSans-48"/>
      </g>
     </g>
    </g>
    <g id="ytick_2">
     <g id="line2d_8">
      <g>
       <use style="stroke:#000000;stroke-width:0.8;" x="45" xlink:href="#m21599e1e14" y="77.325495"/>
      </g>
     </g>
     <g id="text_8">
      <!-- 1 -->
      <g transform="translate(31.6375 81.124714)scale(0.1 -0.1)">
       <use xlink:href="#DejaVuSans-49"/>
      </g>
     </g>
    </g>
    <g id="text_9">
     <!-- 1e7 -->
     <g transform="translate(45 57.48)scale(0.1 -0.1)">
      <defs>
       <path d="M 56.203125 29.59375 
L 56.203125 25.203125 
L 14.890625 25.203125 
Q 15.484375 15.921875 20.484375 11.0625 
Q 25.484375 6.203125 34.421875 6.203125 
Q 39.59375 6.203125 44.453125 7.46875 
Q 49.3125 8.734375 54.109375 11.28125 
L 54.109375 2.78125 
Q 49.265625 0.734375 44.1875 -0.34375 
Q 39.109375 -1.421875 33.890625 -1.421875 
Q 20.796875 -1.421875 13.15625 6.1875 
Q 5.515625 13.8125 5.515625 26.8125 
Q 5.515625 40.234375 12.765625 48.109375 
Q 20.015625 56 32.328125 56 
Q 43.359375 56 49.78125 48.890625 
Q 56.203125 41.796875 56.203125 29.59375 
z
M 47.21875 32.234375 
Q 47.125 39.59375 43.09375 43.984375 
Q 39.0625 48.390625 32.421875 48.390625 
Q 24.90625 48.390625 20.390625 44.140625 
Q 15.875 39.890625 15.1875 32.171875 
z
" id="DejaVuSans-101"/>
       <path d="M 8.203125 72.90625 
L 55.078125 72.90625 
L 55.078125 68.703125 
L 28.609375 0 
L 18.3125 0 
L 43.21875 64.59375 
L 8.203125 64.59375 
z
" id="DejaVuSans-55"/>
      </defs>
      <use xlink:href="#DejaVuSans-49"/>
      <use x="63.623047" xlink:href="#DejaVuSans-101"/>
      <use x="125.146484" xlink:href="#DejaVuSans-55"/>
     </g>
    </g>
   </g>
   <g id="line2d_9">
    <path clip-path="url(#p901a3d1365)" d="M 57.681818 104.775565 
L 70.363636 104.77483 
L 71.339161 104.38748 
L 73.29021 104.266353 
L 74.265734 103.17957 
L 75.241259 98.629682 
L 76.216783 87.256942 
L 77.192308 77.862769 
L 78.167832 77.192465 
L 79.143357 86.700219 
L 80.118881 99.143827 
L 81.094406 102.399142 
L 82.06993 103.877811 
L 83.045455 103.60023 
L 84.020979 104.376775 
L 85.972028 104.684615 
L 95.727273 104.590006 
L 96.702797 104.178965 
L 97.678322 103.91102 
L 102.555944 104.342614 
L 103.531469 104.107183 
L 104.506993 104.143617 
L 105.482517 104.317166 
L 106.458042 104.189717 
L 108.409091 104.514753 
L 109.384615 104.750342 
L 117.188811 104.765837 
L 119.13986 104.773626 
L 120.115385 103.393654 
L 121.090909 90.493958 
L 122.066434 68.861883 
L 123.041958 62.589313 
L 124.017483 65.94185 
L 125.968531 102.440098 
L 126.944056 103.982823 
L 127.91958 104.193832 
L 130.846154 104.277475 
L 132.797203 104.284646 
L 133.772727 103.763296 
L 134.748252 101.247514 
L 135.723776 99.908152 
L 136.699301 100.30945 
L 137.674825 99.813091 
L 138.65035 101.838932 
L 139.625874 101.680498 
L 140.601399 103.95446 
L 141.576923 104.362341 
L 143.527972 104.480366 
L 144.503497 104.725082 
L 156.20979 104.775542 
L 160.111888 104.740076 
L 161.087413 104.200652 
L 162.062937 103.820964 
L 163.038462 103.747125 
L 164.013986 103.008108 
L 164.98951 102.540182 
L 165.965035 100.586756 
L 166.940559 101.144659 
L 167.916084 101.912646 
L 168.891608 103.672709 
L 169.867133 104.417542 
L 170.842657 104.557657 
L 174.744755 104.523695 
L 175.72028 104.418479 
L 176.695804 104.534567 
L 177.671329 104.358423 
L 178.646853 103.834008 
L 179.622378 104.408608 
L 180.597902 104.227467 
L 181.573427 103.420776 
L 182.548951 103.35378 
L 183.524476 104.434288 
L 184.5 104.529634 
L 186.451049 104.525367 
L 188.402098 104.737512 
L 193.27972 104.753731 
L 199.132867 104.773468 
L 200.108392 103.937214 
L 201.083916 101.468432 
L 202.059441 102.909107 
L 203.034965 103.168592 
L 204.01049 101.987756 
L 204.986014 101.601131 
L 205.961538 100.600674 
L 206.937063 101.849727 
L 207.912587 102.514623 
L 208.888112 104.102655 
L 209.863636 104.52346 
L 212.79021 104.562447 
L 214.741259 104.49182 
L 216.692308 103.753743 
L 217.667832 103.072772 
L 218.643357 103.495499 
L 221.56993 104.354855 
L 223.520979 104.300435 
L 224.496503 104.496496 
L 225.472028 104.498443 
L 226.447552 104.655725 
L 241.08042 104.711933 
L 242.055944 104.136496 
L 243.031469 99.039997 
L 244.006993 79.65636 
L 244.982517 91.91357 
L 245.958042 96.457925 
L 246.933566 99.784908 
L 247.909091 100.135629 
L 248.884615 101.199743 
L 249.86014 100.933267 
L 250.835664 100.003762 
L 251.811189 101.149528 
L 252.786713 104.191832 
L 253.762238 104.748815 
L 258.63986 104.755687 
L 259.615385 104.285871 
L 260.590909 102.460235 
L 261.566434 96.193864 
L 262.541958 97.052841 
L 263.517483 101.302455 
L 264.493007 99.122273 
L 265.468531 96.573852 
L 266.444056 96.776211 
L 267.41958 96.411329 
L 268.395105 96.995041 
L 269.370629 101.605614 
L 270.346154 103.115782 
L 271.321678 104.151853 
L 274.248252 104.359635 
L 275.223776 103.797626 
L 276.199301 104.128746 
L 277.174825 104.093159 
L 278.15035 103.840119 
L 279.125874 103.972393 
L 280.101399 104.319736 
L 281.076923 104.451717 
L 282.052448 104.456793 
L 283.027972 104.724328 
L 285.954545 104.77242 
L 287.905594 104.703627 
L 289.856643 103.980022 
L 291.807692 104.470572 
L 293.758741 104.71959 
L 296.685315 104.690487 
L 311.318182 104.775565 
L 311.318182 104.775565 
" style="fill:none;stroke:#1f77b4;stroke-linecap:square;stroke-width:1.5;"/>
   </g>
   <g id="patch_3">
    <path d="M 45 106.884878 
L 45 60.48 
" style="fill:none;stroke:#000000;stroke-linecap:square;stroke-linejoin:miter;stroke-width:0.8;"/>
   </g>
   <g id="patch_4">
    <path d="M 324 106.884878 
L 324 60.48 
" style="fill:none;stroke:#000000;stroke-linecap:square;stroke-linejoin:miter;stroke-width:0.8;"/>
   </g>
   <g id="patch_5">
    <path d="M 45 106.884878 
L 324 106.884878 
" style="fill:none;stroke:#000000;stroke-linecap:square;stroke-linejoin:miter;stroke-width:0.8;"/>
   </g>
   <g id="patch_6">
    <path d="M 45 60.48 
L 324 60.48 
" style="fill:none;stroke:#000000;stroke-linecap:square;stroke-linejoin:miter;stroke-width:0.8;"/>
   </g>
  </g>
  <g id="axes_2">
   <g id="patch_7">
    <path d="M 45 162.570732 
L 324 162.570732 
L 324 116.165854 
L 45 116.165854 
z
" style="fill:none;"/>
   </g>
   <g id="matplotlib.axis_3">
    <g id="xtick_7">
     <g id="line2d_10">
      <g>
       <use style="stroke:#000000;stroke-width:0.8;" x="57.681818" xlink:href="#m47e710b617" y="162.570732"/>
      </g>
     </g>
     <g id="text_10">
      <!-- 0 -->
      <g transform="translate(54.500568 177.169169)scale(0.1 -0.1)">
       <use xlink:href="#DejaVuSans-48"/>
      </g>
     </g>
    </g>
    <g id="xtick_8">
     <g id="line2d_11">
      <g>
       <use style="stroke:#000000;stroke-width:0.8;" x="106.646367" xlink:href="#m47e710b617" y="162.570732"/>
      </g>
     </g>
     <g id="text_11">
      <!-- 50 -->
      <g transform="translate(100.283867 177.169169)scale(0.1 -0.1)">
       <use xlink:href="#DejaVuSans-53"/>
       <use x="63.623047" xlink:href="#DejaVuSans-48"/>
      </g>
     </g>
    </g>
    <g id="xtick_9">
     <g id="line2d_12">
      <g>
       <use style="stroke:#000000;stroke-width:0.8;" x="155.610916" xlink:href="#m47e710b617" y="162.570732"/>
      </g>
     </g>
     <g id="text_12">
      <!-- 100 -->
      <g transform="translate(146.067166 177.169169)scale(0.1 -0.1)">
       <use xlink:href="#DejaVuSans-49"/>
       <use x="63.623047" xlink:href="#DejaVuSans-48"/>
       <use x="127.246094" xlink:href="#DejaVuSans-48"/>
      </g>
     </g>
    </g>
    <g id="xtick_10">
     <g id="line2d_13">
      <g>
       <use style="stroke:#000000;stroke-width:0.8;" x="204.575465" xlink:href="#m47e710b617" y="162.570732"/>
      </g>
     </g>
     <g id="text_13">
      <!-- 150 -->
      <g transform="translate(195.031715 177.169169)scale(0.1 -0.1)">
       <use xlink:href="#DejaVuSans-49"/>
       <use x="63.623047" xlink:href="#DejaVuSans-53"/>
       <use x="127.246094" xlink:href="#DejaVuSans-48"/>
      </g>
     </g>
    </g>
    <g id="xtick_11">
     <g id="line2d_14">
      <g>
       <use style="stroke:#000000;stroke-width:0.8;" x="253.540014" xlink:href="#m47e710b617" y="162.570732"/>
      </g>
     </g>
     <g id="text_14">
      <!-- 200 -->
      <g transform="translate(243.996264 177.169169)scale(0.1 -0.1)">
       <use xlink:href="#DejaVuSans-50"/>
       <use x="63.623047" xlink:href="#DejaVuSans-48"/>
       <use x="127.246094" xlink:href="#DejaVuSans-48"/>
      </g>
     </g>
    </g>
    <g id="xtick_12">
     <g id="line2d_15">
      <g>
       <use style="stroke:#000000;stroke-width:0.8;" x="302.504563" xlink:href="#m47e710b617" y="162.570732"/>
      </g>
     </g>
     <g id="text_15">
      <!-- 250 -->
      <g transform="translate(292.960813 177.169169)scale(0.1 -0.1)">
       <use xlink:href="#DejaVuSans-50"/>
       <use x="63.623047" xlink:href="#DejaVuSans-53"/>
       <use x="127.246094" xlink:href="#DejaVuSans-48"/>
      </g>
     </g>
    </g>
   </g>
   <g id="matplotlib.axis_4">
    <g id="ytick_3">
     <g id="line2d_16">
      <g>
       <use style="stroke:#000000;stroke-width:0.8;" x="45" xlink:href="#m21599e1e14" y="160.461419"/>
      </g>
     </g>
     <g id="text_16">
      <!-- 0 -->
      <g transform="translate(31.6375 164.260638)scale(0.1 -0.1)">
       <use xlink:href="#DejaVuSans-48"/>
      </g>
     </g>
    </g>
    <g id="ytick_4">
     <g id="line2d_17">
      <g>
       <use style="stroke:#000000;stroke-width:0.8;" x="45" xlink:href="#m21599e1e14" y="136.552247"/>
      </g>
     </g>
     <g id="text_17">
      <!-- 5 -->
      <g transform="translate(31.6375 140.351466)scale(0.1 -0.1)">
       <use xlink:href="#DejaVuSans-53"/>
      </g>
     </g>
    </g>
    <g id="text_18">
     <!-- 1e6 -->
     <g transform="translate(45 113.165854)scale(0.1 -0.1)">
      <defs>
       <path d="M 33.015625 40.375 
Q 26.375 40.375 22.484375 35.828125 
Q 18.609375 31.296875 18.609375 23.390625 
Q 18.609375 15.53125 22.484375 10.953125 
Q 26.375 6.390625 33.015625 6.390625 
Q 39.65625 6.390625 43.53125 10.953125 
Q 47.40625 15.53125 47.40625 23.390625 
Q 47.40625 31.296875 43.53125 35.828125 
Q 39.65625 40.375 33.015625 40.375 
z
M 52.59375 71.296875 
L 52.59375 62.3125 
Q 48.875 64.0625 45.09375 64.984375 
Q 41.3125 65.921875 37.59375 65.921875 
Q 27.828125 65.921875 22.671875 59.328125 
Q 17.53125 52.734375 16.796875 39.40625 
Q 19.671875 43.65625 24.015625 45.921875 
Q 28.375 48.1875 33.59375 48.1875 
Q 44.578125 48.1875 50.953125 41.515625 
Q 57.328125 34.859375 57.328125 23.390625 
Q 57.328125 12.15625 50.6875 5.359375 
Q 44.046875 -1.421875 33.015625 -1.421875 
Q 20.359375 -1.421875 13.671875 8.265625 
Q 6.984375 17.96875 6.984375 36.375 
Q 6.984375 53.65625 15.1875 63.9375 
Q 23.390625 74.21875 37.203125 74.21875 
Q 40.921875 74.21875 44.703125 73.484375 
Q 48.484375 72.75 52.59375 71.296875 
z
" id="DejaVuSans-54"/>
      </defs>
      <use xlink:href="#DejaVuSans-49"/>
      <use x="63.623047" xlink:href="#DejaVuSans-101"/>
      <use x="125.146484" xlink:href="#DejaVuSans-54"/>
     </g>
    </g>
   </g>
   <g id="line2d_18">
    <path clip-path="url(#p6630401b0d)" d="M 57.681818 160.461419 
L 108.604949 160.440119 
L 109.58424 159.199635 
L 110.563531 158.972722 
L 111.542822 156.49223 
L 112.522113 155.427582 
L 113.501404 157.162489 
L 114.480695 156.331877 
L 115.459986 157.655866 
L 116.439277 159.481877 
L 117.418568 160.223118 
L 118.397859 160.452098 
L 121.335732 160.394962 
L 122.315023 160.369434 
L 123.294314 159.302867 
L 124.273605 159.324887 
L 126.232187 158.857915 
L 127.211478 157.839574 
L 128.190769 156.53368 
L 129.17006 156.101179 
L 130.149351 155.064975 
L 131.128642 157.261152 
L 132.107933 158.571806 
L 133.087224 159.139973 
L 134.066515 160.154803 
L 135.045806 160.292254 
L 136.025097 160.167621 
L 138.962969 160.326063 
L 139.94226 160.4446 
L 140.921551 160.317555 
L 141.900842 158.2503 
L 142.880133 157.93114 
L 143.859424 158.054791 
L 144.838715 158.505457 
L 145.818006 158.63553 
L 146.797297 158.535969 
L 147.776588 159.935667 
L 148.755879 160.294182 
L 151.693752 160.450114 
L 159.52808 160.441059 
L 160.507371 158.482285 
L 161.486662 158.17991 
L 162.465953 157.352213 
L 163.445244 158.398231 
L 164.424535 157.094213 
L 166.383117 156.675452 
L 167.362408 157.651342 
L 168.341699 159.532439 
L 169.32099 159.7874 
L 170.300281 159.762717 
L 171.279572 160.113296 
L 173.238154 160.080714 
L 174.217445 157.131934 
L 176.176027 142.549603 
L 177.155318 118.275166 
L 178.134609 128.967959 
L 179.1139 137.55893 
L 180.093191 144.491777 
L 181.072482 152.512281 
L 182.051773 155.310127 
L 183.031064 156.847671 
L 184.010355 158.848243 
L 184.989645 159.959462 
L 185.968936 160.39594 
L 189.8861 160.455807 
L 194.782555 160.390042 
L 197.720428 160.212612 
L 198.699719 159.891314 
L 199.67901 159.224633 
L 200.658301 159.010575 
L 201.637592 156.565471 
L 202.616883 156.910581 
L 203.596174 158.29422 
L 204.575465 157.968781 
L 205.554756 159.542179 
L 206.534047 160.000727 
L 207.513338 160.292236 
L 209.47192 160.213621 
L 210.451211 160.162206 
L 211.430502 160.280815 
L 213.389084 160.278571 
L 214.368375 160.396856 
L 216.326957 160.398366 
L 217.306248 159.301751 
L 218.285539 149.561403 
L 219.26483 146.882256 
L 220.244121 143.092509 
L 221.223412 152.666442 
L 222.202703 157.286424 
L 223.181994 157.038055 
L 224.161285 158.350447 
L 225.140576 155.73394 
L 226.119867 158.06578 
L 227.099158 156.121447 
L 228.078449 156.84558 
L 229.05774 159.778754 
L 230.037031 160.337747 
L 233.954194 160.447834 
L 235.912776 160.185667 
L 238.850649 160.408937 
L 239.82994 159.931202 
L 240.809231 159.883283 
L 241.788522 160.203066 
L 243.747104 160.085467 
L 244.726395 160.15713 
L 245.705686 160.404245 
L 248.643559 160.460549 
L 252.560723 160.341996 
L 253.540014 160.251581 
L 255.498596 160.314497 
L 256.477887 159.889728 
L 257.457178 155.333012 
L 259.41576 152.412492 
L 260.395051 148.92617 
L 261.374342 153.989568 
L 262.353633 153.16211 
L 263.332924 156.424684 
L 264.312215 157.664606 
L 265.291506 159.775774 
L 267.250088 160.292256 
L 269.20867 160.455073 
L 290.753071 160.461419 
L 311.318182 160.461419 
L 311.318182 160.461419 
" style="fill:none;stroke:#1f77b4;stroke-linecap:square;stroke-width:1.5;"/>
   </g>
   <g id="patch_8">
    <path d="M 45 162.570732 
L 45 116.165854 
" style="fill:none;stroke:#000000;stroke-linecap:square;stroke-linejoin:miter;stroke-width:0.8;"/>
   </g>
   <g id="patch_9">
    <path d="M 324 162.570732 
L 324 116.165854 
" style="fill:none;stroke:#000000;stroke-linecap:square;stroke-linejoin:miter;stroke-width:0.8;"/>
   </g>
   <g id="patch_10">
    <path d="M 45 162.570732 
L 324 162.570732 
" style="fill:none;stroke:#000000;stroke-linecap:square;stroke-linejoin:miter;stroke-width:0.8;"/>
   </g>
   <g id="patch_11">
    <path d="M 45 116.165854 
L 324 116.165854 
" style="fill:none;stroke:#000000;stroke-linecap:square;stroke-linejoin:miter;stroke-width:0.8;"/>
   </g>
  </g>
  <g id="axes_3">
   <g id="patch_12">
    <path d="M 45 218.256585 
L 324 218.256585 
L 324 171.851707 
L 45 171.851707 
z
" style="fill:none;"/>
   </g>
   <g id="matplotlib.axis_5">
    <g id="xtick_13">
     <g id="line2d_19">
      <g>
       <use style="stroke:#000000;stroke-width:0.8;" x="57.681818" xlink:href="#m47e710b617" y="218.256585"/>
      </g>
     </g>
     <g id="text_19">
      <!-- 0 -->
      <g transform="translate(54.500568 232.855023)scale(0.1 -0.1)">
       <use xlink:href="#DejaVuSans-48"/>
      </g>
     </g>
    </g>
    <g id="xtick_14">
     <g id="line2d_20">
      <g>
       <use style="stroke:#000000;stroke-width:0.8;" x="106.27116" xlink:href="#m47e710b617" y="218.256585"/>
      </g>
     </g>
     <g id="text_20">
      <!-- 50 -->
      <g transform="translate(99.90866 232.855023)scale(0.1 -0.1)">
       <use xlink:href="#DejaVuSans-53"/>
       <use x="63.623047" xlink:href="#DejaVuSans-48"/>
      </g>
     </g>
    </g>
    <g id="xtick_15">
     <g id="line2d_21">
      <g>
       <use style="stroke:#000000;stroke-width:0.8;" x="154.860502" xlink:href="#m47e710b617" y="218.256585"/>
      </g>
     </g>
     <g id="text_21">
      <!-- 100 -->
      <g transform="translate(145.316752 232.855023)scale(0.1 -0.1)">
       <use xlink:href="#DejaVuSans-49"/>
       <use x="63.623047" xlink:href="#DejaVuSans-48"/>
       <use x="127.246094" xlink:href="#DejaVuSans-48"/>
      </g>
     </g>
    </g>
    <g id="xtick_16">
     <g id="line2d_22">
      <g>
       <use style="stroke:#000000;stroke-width:0.8;" x="203.449843" xlink:href="#m47e710b617" y="218.256585"/>
      </g>
     </g>
     <g id="text_22">
      <!-- 150 -->
      <g transform="translate(193.906093 232.855023)scale(0.1 -0.1)">
       <use xlink:href="#DejaVuSans-49"/>
       <use x="63.623047" xlink:href="#DejaVuSans-53"/>
       <use x="127.246094" xlink:href="#DejaVuSans-48"/>
      </g>
     </g>
    </g>
    <g id="xtick_17">
     <g id="line2d_23">
      <g>
       <use style="stroke:#000000;stroke-width:0.8;" x="252.039185" xlink:href="#m47e710b617" y="218.256585"/>
      </g>
     </g>
     <g id="text_23">
      <!-- 200 -->
      <g transform="translate(242.495435 232.855023)scale(0.1 -0.1)">
       <use xlink:href="#DejaVuSans-50"/>
       <use x="63.623047" xlink:href="#DejaVuSans-48"/>
       <use x="127.246094" xlink:href="#DejaVuSans-48"/>
      </g>
     </g>
    </g>
    <g id="xtick_18">
     <g id="line2d_24">
      <g>
       <use style="stroke:#000000;stroke-width:0.8;" x="300.628527" xlink:href="#m47e710b617" y="218.256585"/>
      </g>
     </g>
     <g id="text_24">
      <!-- 250 -->
      <g transform="translate(291.084777 232.855023)scale(0.1 -0.1)">
       <use xlink:href="#DejaVuSans-50"/>
       <use x="63.623047" xlink:href="#DejaVuSans-53"/>
       <use x="127.246094" xlink:href="#DejaVuSans-48"/>
      </g>
     </g>
    </g>
   </g>
   <g id="matplotlib.axis_6">
    <g id="ytick_5">
     <g id="line2d_25">
      <g>
       <use style="stroke:#000000;stroke-width:0.8;" x="45" xlink:href="#m21599e1e14" y="216.147273"/>
      </g>
     </g>
     <g id="text_25">
      <!-- 0 -->
      <g transform="translate(31.6375 219.946491)scale(0.1 -0.1)">
       <use xlink:href="#DejaVuSans-48"/>
      </g>
     </g>
    </g>
    <g id="ytick_6">
     <g id="line2d_26">
      <g>
       <use style="stroke:#000000;stroke-width:0.8;" x="45" xlink:href="#m21599e1e14" y="176.875871"/>
      </g>
     </g>
     <g id="text_26">
      <!-- 5 -->
      <g transform="translate(31.6375 180.67509)scale(0.1 -0.1)">
       <use xlink:href="#DejaVuSans-53"/>
      </g>
     </g>
    </g>
    <g id="text_27">
     <!-- 1e6 -->
     <g transform="translate(45 168.851707)scale(0.1 -0.1)">
      <use xlink:href="#DejaVuSans-49"/>
      <use x="63.623047" xlink:href="#DejaVuSans-101"/>
      <use x="125.146484" xlink:href="#DejaVuSans-54"/>
     </g>
    </g>
   </g>
   <g id="line2d_27">
    <path clip-path="url(#pb1339f438f)" d="M 57.681818 216.147273 
L 99.468652 216.147232 
L 100.440439 214.493974 
L 101.412226 193.93674 
L 102.384013 194.445467 
L 103.355799 173.96102 
L 105.299373 191.217537 
L 106.27116 203.087351 
L 107.242947 209.186364 
L 108.214734 209.17557 
L 109.18652 211.040413 
L 111.130094 215.619153 
L 112.101881 216.016696 
L 115.017241 216.120551 
L 120.847962 216.139595 
L 121.819749 216.086372 
L 122.791536 215.860061 
L 125.706897 215.779989 
L 127.65047 215.94029 
L 128.622257 216.081095 
L 129.594044 216.107658 
L 130.565831 214.463006 
L 131.537618 212.035287 
L 132.509404 212.204785 
L 133.481191 210.246438 
L 134.452978 210.048417 
L 135.424765 212.092314 
L 136.396552 215.470967 
L 137.368339 216.016378 
L 138.340125 216.042151 
L 140.283699 215.348436 
L 141.255486 215.489692 
L 142.227273 215.464889 
L 146.11442 216.117193 
L 147.086207 213.965142 
L 148.057994 213.901317 
L 150.001567 214.091987 
L 150.973354 213.722097 
L 151.945141 213.780667 
L 154.860502 213.557898 
L 155.832288 213.210934 
L 157.775862 211.743895 
L 158.747649 212.102921 
L 159.719436 213.561035 
L 160.691223 215.873205 
L 161.663009 216.121236 
L 163.606583 216.128599 
L 164.57837 215.744391 
L 165.550157 214.689953 
L 166.521944 214.873929 
L 168.465517 215.777612 
L 172.352665 216.119394 
L 173.324451 215.723137 
L 174.296238 211.852841 
L 175.268025 212.643186 
L 177.211599 213.131041 
L 178.183386 213.22111 
L 179.155172 213.864022 
L 180.126959 214.196917 
L 181.098746 215.798678 
L 182.070533 215.917127 
L 184.014107 215.348294 
L 185.95768 215.148418 
L 188.873041 216.057822 
L 189.844828 214.474917 
L 190.816614 214.949643 
L 191.788401 214.282395 
L 192.760188 215.24603 
L 193.731975 213.459939 
L 194.703762 213.348421 
L 195.675549 211.92426 
L 196.647335 210.708675 
L 197.619122 215.259827 
L 199.562696 215.832944 
L 204.42163 216.142109 
L 207.336991 216.138972 
L 208.308777 215.929382 
L 209.280564 215.522266 
L 210.252351 215.551681 
L 211.224138 215.845411 
L 212.195925 215.818325 
L 214.139498 216.054646 
L 215.111285 215.624639 
L 216.083072 210.932435 
L 217.054859 210.846765 
L 218.026646 213.064063 
L 218.998433 213.90248 
L 219.970219 214.335489 
L 220.942006 214.363241 
L 221.913793 215.105654 
L 222.88558 215.704793 
L 223.857367 215.416357 
L 224.829154 214.719571 
L 225.80094 214.244608 
L 226.772727 214.616038 
L 227.744514 214.272036 
L 228.716301 216.090693 
L 229.688088 214.578097 
L 230.659875 214.724237 
L 231.631661 215.49254 
L 232.603448 214.522826 
L 233.575235 211.827344 
L 234.547022 213.099636 
L 235.518809 214.677429 
L 236.490596 215.900614 
L 237.462382 215.924753 
L 238.434169 216.112911 
L 239.405956 216.027531 
L 240.377743 216.086845 
L 241.34953 215.871589 
L 243.293103 214.790435 
L 244.26489 213.522779 
L 245.236677 213.196233 
L 246.208464 214.874494 
L 247.180251 215.162045 
L 248.152038 215.11378 
L 249.123824 213.77176 
L 250.095611 210.835211 
L 251.067398 211.621107 
L 252.039185 213.110357 
L 253.010972 213.954384 
L 253.982759 215.580602 
L 254.954545 214.396607 
L 255.926332 214.154424 
L 256.898119 205.144403 
L 258.841693 209.828824 
L 259.81348 209.696161 
L 260.785266 208.255244 
L 262.72884 210.298577 
L 263.700627 214.11182 
L 264.672414 214.48868 
L 266.615987 215.811275 
L 269.531348 216.143035 
L 295.769592 216.147273 
L 311.318182 216.147273 
L 311.318182 216.147273 
" style="fill:none;stroke:#1f77b4;stroke-linecap:square;stroke-width:1.5;"/>
   </g>
   <g id="patch_13">
    <path d="M 45 218.256585 
L 45 171.851707 
" style="fill:none;stroke:#000000;stroke-linecap:square;stroke-linejoin:miter;stroke-width:0.8;"/>
   </g>
   <g id="patch_14">
    <path d="M 324 218.256585 
L 324 171.851707 
" style="fill:none;stroke:#000000;stroke-linecap:square;stroke-linejoin:miter;stroke-width:0.8;"/>
   </g>
   <g id="patch_15">
    <path d="M 45 218.256585 
L 324 218.256585 
" style="fill:none;stroke:#000000;stroke-linecap:square;stroke-linejoin:miter;stroke-width:0.8;"/>
   </g>
   <g id="patch_16">
    <path d="M 45 171.851707 
L 324 171.851707 
" style="fill:none;stroke:#000000;stroke-linecap:square;stroke-linejoin:miter;stroke-width:0.8;"/>
   </g>
  </g>
  <g id="axes_4">
   <g id="patch_17">
    <path d="M 45 273.942439 
L 324 273.942439 
L 324 227.537561 
L 45 227.537561 
z
" style="fill:none;"/>
   </g>
   <g id="matplotlib.axis_7">
    <g id="xtick_19">
     <g id="line2d_28">
      <g>
       <use style="stroke:#000000;stroke-width:0.8;" x="57.681818" xlink:href="#m47e710b617" y="273.942439"/>
      </g>
     </g>
     <g id="text_28">
      <!-- 0 -->
      <g transform="translate(54.500568 288.540877)scale(0.1 -0.1)">
       <use xlink:href="#DejaVuSans-48"/>
      </g>
     </g>
    </g>
    <g id="xtick_20">
     <g id="line2d_29">
      <g>
       <use style="stroke:#000000;stroke-width:0.8;" x="106.27116" xlink:href="#m47e710b617" y="273.942439"/>
      </g>
     </g>
     <g id="text_29">
      <!-- 50 -->
      <g transform="translate(99.90866 288.540877)scale(0.1 -0.1)">
       <use xlink:href="#DejaVuSans-53"/>
       <use x="63.623047" xlink:href="#DejaVuSans-48"/>
      </g>
     </g>
    </g>
    <g id="xtick_21">
     <g id="line2d_30">
      <g>
       <use style="stroke:#000000;stroke-width:0.8;" x="154.860502" xlink:href="#m47e710b617" y="273.942439"/>
      </g>
     </g>
     <g id="text_30">
      <!-- 100 -->
      <g transform="translate(145.316752 288.540877)scale(0.1 -0.1)">
       <use xlink:href="#DejaVuSans-49"/>
       <use x="63.623047" xlink:href="#DejaVuSans-48"/>
       <use x="127.246094" xlink:href="#DejaVuSans-48"/>
      </g>
     </g>
    </g>
    <g id="xtick_22">
     <g id="line2d_31">
      <g>
       <use style="stroke:#000000;stroke-width:0.8;" x="203.449843" xlink:href="#m47e710b617" y="273.942439"/>
      </g>
     </g>
     <g id="text_31">
      <!-- 150 -->
      <g transform="translate(193.906093 288.540877)scale(0.1 -0.1)">
       <use xlink:href="#DejaVuSans-49"/>
       <use x="63.623047" xlink:href="#DejaVuSans-53"/>
       <use x="127.246094" xlink:href="#DejaVuSans-48"/>
      </g>
     </g>
    </g>
    <g id="xtick_23">
     <g id="line2d_32">
      <g>
       <use style="stroke:#000000;stroke-width:0.8;" x="252.039185" xlink:href="#m47e710b617" y="273.942439"/>
      </g>
     </g>
     <g id="text_32">
      <!-- 200 -->
      <g transform="translate(242.495435 288.540877)scale(0.1 -0.1)">
       <use xlink:href="#DejaVuSans-50"/>
       <use x="63.623047" xlink:href="#DejaVuSans-48"/>
       <use x="127.246094" xlink:href="#DejaVuSans-48"/>
      </g>
     </g>
    </g>
    <g id="xtick_24">
     <g id="line2d_33">
      <g>
       <use style="stroke:#000000;stroke-width:0.8;" x="300.628527" xlink:href="#m47e710b617" y="273.942439"/>
      </g>
     </g>
     <g id="text_33">
      <!-- 250 -->
      <g transform="translate(291.084777 288.540877)scale(0.1 -0.1)">
       <use xlink:href="#DejaVuSans-50"/>
       <use x="63.623047" xlink:href="#DejaVuSans-53"/>
       <use x="127.246094" xlink:href="#DejaVuSans-48"/>
      </g>
     </g>
    </g>
   </g>
   <g id="matplotlib.axis_8">
    <g id="ytick_7">
     <g id="line2d_34">
      <g>
       <use style="stroke:#000000;stroke-width:0.8;" x="45" xlink:href="#m21599e1e14" y="271.833126"/>
      </g>
     </g>
     <g id="text_34">
      <!-- 0 -->
      <g transform="translate(31.6375 275.632345)scale(0.1 -0.1)">
       <use xlink:href="#DejaVuSans-48"/>
      </g>
     </g>
    </g>
    <g id="ytick_8">
     <g id="line2d_35">
      <g>
       <use style="stroke:#000000;stroke-width:0.8;" x="45" xlink:href="#m21599e1e14" y="233.938818"/>
      </g>
     </g>
     <g id="text_35">
      <!-- 5 -->
      <g transform="translate(31.6375 237.738037)scale(0.1 -0.1)">
       <use xlink:href="#DejaVuSans-53"/>
      </g>
     </g>
    </g>
    <g id="text_36">
     <!-- 1e6 -->
     <g transform="translate(45 224.537561)scale(0.1 -0.1)">
      <use xlink:href="#DejaVuSans-49"/>
      <use x="63.623047" xlink:href="#DejaVuSans-101"/>
      <use x="125.146484" xlink:href="#DejaVuSans-54"/>
     </g>
    </g>
   </g>
   <g id="line2d_36">
    <path clip-path="url(#p278fa8ab54)" d="M 57.681818 271.833126 
L 86.835423 271.804713 
L 87.80721 271.624198 
L 88.778997 271.585002 
L 89.750784 245.841625 
L 90.722571 255.646508 
L 91.694357 259.133431 
L 92.666144 263.294227 
L 93.637931 262.734015 
L 94.609718 259.465703 
L 95.581505 259.230064 
L 96.553292 267.416055 
L 97.525078 265.988076 
L 98.496865 266.361891 
L 99.468652 270.777404 
L 100.440439 271.031854 
L 101.412226 271.120692 
L 102.384013 271.363221 
L 105.299373 271.518922 
L 106.27116 271.56299 
L 110.158307 270.922444 
L 111.130094 270.361035 
L 112.101881 270.405133 
L 113.073668 269.609268 
L 114.045455 268.335736 
L 115.017241 267.970142 
L 115.989028 267.42918 
L 116.960815 267.278662 
L 118.904389 269.626215 
L 119.876176 269.857736 
L 120.847962 271.012357 
L 121.819749 270.876686 
L 122.791536 270.572013 
L 123.763323 269.699144 
L 124.73511 269.598926 
L 125.706897 269.692392 
L 126.678683 270.014775 
L 129.594044 269.69733 
L 130.565831 268.962177 
L 131.537618 269.578977 
L 132.509404 267.458583 
L 133.481191 269.89939 
L 134.452978 269.987836 
L 135.424765 270.80591 
L 136.396552 271.025021 
L 137.368339 271.596892 
L 138.340125 271.581082 
L 140.283699 271.822572 
L 144.170846 271.734119 
L 145.142633 266.966386 
L 146.11442 266.644005 
L 147.086207 266.96583 
L 148.057994 268.126338 
L 149.029781 268.448382 
L 150.001567 269.874799 
L 150.973354 269.373421 
L 151.945141 270.543554 
L 153.888715 270.873737 
L 154.860502 270.88873 
L 155.832288 271.272462 
L 156.804075 271.45252 
L 159.719436 271.528715 
L 161.663009 270.976337 
L 162.634796 270.874358 
L 163.606583 269.639977 
L 164.57837 269.655825 
L 165.550157 267.936031 
L 166.521944 267.593393 
L 167.49373 267.502742 
L 168.465517 267.21478 
L 169.437304 269.519882 
L 170.409091 268.139341 
L 172.352665 270.552359 
L 173.324451 270.714231 
L 174.296238 271.332022 
L 175.268025 271.241113 
L 176.239812 271.031335 
L 177.211599 269.902899 
L 179.155172 269.427631 
L 180.126959 269.450814 
L 182.070533 270.2853 
L 184.014107 270.055317 
L 184.985893 269.738334 
L 185.95768 268.406826 
L 186.929467 268.805329 
L 187.901254 268.139823 
L 188.873041 268.573769 
L 189.844828 270.41531 
L 190.816614 271.759883 
L 192.760188 271.832276 
L 197.619122 271.789209 
L 198.590909 271.205581 
L 199.562696 257.00789 
L 200.534483 231.449293 
L 201.50627 229.646874 
L 202.478056 239.692987 
L 203.449843 239.014364 
L 204.42163 239.060468 
L 205.393417 246.726036 
L 206.365204 260.133434 
L 207.336991 267.819201 
L 208.308777 269.45645 
L 209.280564 270.686613 
L 210.252351 270.655352 
L 211.224138 271.056457 
L 212.195925 269.714828 
L 213.167712 269.908484 
L 214.139498 269.04904 
L 215.111285 269.107015 
L 216.083072 268.756149 
L 218.026646 268.642732 
L 218.998433 269.934809 
L 219.970219 269.780873 
L 220.942006 269.497968 
L 221.913793 268.624489 
L 222.88558 269.052154 
L 223.857367 269.98445 
L 224.829154 269.944204 
L 225.80094 270.385462 
L 227.744514 271.721985 
L 228.716301 271.775369 
L 230.659875 271.684509 
L 231.631661 270.737105 
L 232.603448 270.240066 
L 233.575235 270.624301 
L 234.547022 270.688744 
L 236.490596 269.217336 
L 237.462382 268.78312 
L 238.434169 270.173165 
L 239.405956 270.911196 
L 244.26489 271.445748 
L 246.208464 271.559736 
L 247.180251 271.345107 
L 248.152038 271.3573 
L 249.123824 271.196271 
L 251.067398 270.589126 
L 252.039185 270.128223 
L 253.010972 268.935428 
L 253.982759 268.537394 
L 254.954545 268.387231 
L 255.926332 268.55079 
L 256.898119 267.475495 
L 257.869906 268.189826 
L 258.841693 269.387536 
L 259.81348 269.949798 
L 261.757053 271.397798 
L 262.72884 271.294783 
L 263.700627 270.895627 
L 264.672414 269.681244 
L 266.615987 270.057088 
L 267.587774 268.458813 
L 268.559561 269.881539 
L 270.503135 270.060442 
L 271.474922 270.794856 
L 273.418495 270.494453 
L 274.390282 270.49313 
L 275.362069 269.601231 
L 276.333856 268.415787 
L 277.305643 268.848179 
L 278.277429 268.479471 
L 279.249216 270.795772 
L 280.221003 270.784817 
L 281.19279 271.194233 
L 284.10815 271.71978 
L 286.051724 271.831775 
L 311.318182 271.833126 
L 311.318182 271.833126 
" style="fill:none;stroke:#1f77b4;stroke-linecap:square;stroke-width:1.5;"/>
   </g>
   <g id="patch_18">
    <path d="M 45 273.942439 
L 45 227.537561 
" style="fill:none;stroke:#000000;stroke-linecap:square;stroke-linejoin:miter;stroke-width:0.8;"/>
   </g>
   <g id="patch_19">
    <path d="M 324 273.942439 
L 324 227.537561 
" style="fill:none;stroke:#000000;stroke-linecap:square;stroke-linejoin:miter;stroke-width:0.8;"/>
   </g>
   <g id="patch_20">
    <path d="M 45 273.942439 
L 324 273.942439 
" style="fill:none;stroke:#000000;stroke-linecap:square;stroke-linejoin:miter;stroke-width:0.8;"/>
   </g>
   <g id="patch_21">
    <path d="M 45 227.537561 
L 324 227.537561 
" style="fill:none;stroke:#000000;stroke-linecap:square;stroke-linejoin:miter;stroke-width:0.8;"/>
   </g>
  </g>
  <g id="axes_5">
   <g id="patch_22">
    <path d="M 45 329.628293 
L 324 329.628293 
L 324 283.223415 
L 45 283.223415 
z
" style="fill:none;"/>
   </g>
   <g id="matplotlib.axis_9">
    <g id="xtick_25">
     <g id="line2d_37">
      <g>
       <use style="stroke:#000000;stroke-width:0.8;" x="57.681818" xlink:href="#m47e710b617" y="329.628293"/>
      </g>
     </g>
     <g id="text_37">
      <!-- 0 -->
      <g transform="translate(54.500568 344.22673)scale(0.1 -0.1)">
       <use xlink:href="#DejaVuSans-48"/>
      </g>
     </g>
    </g>
    <g id="xtick_26">
     <g id="line2d_38">
      <g>
       <use style="stroke:#000000;stroke-width:0.8;" x="106.646367" xlink:href="#m47e710b617" y="329.628293"/>
      </g>
     </g>
     <g id="text_38">
      <!-- 50 -->
      <g transform="translate(100.283867 344.22673)scale(0.1 -0.1)">
       <use xlink:href="#DejaVuSans-53"/>
       <use x="63.623047" xlink:href="#DejaVuSans-48"/>
      </g>
     </g>
    </g>
    <g id="xtick_27">
     <g id="line2d_39">
      <g>
       <use style="stroke:#000000;stroke-width:0.8;" x="155.610916" xlink:href="#m47e710b617" y="329.628293"/>
      </g>
     </g>
     <g id="text_39">
      <!-- 100 -->
      <g transform="translate(146.067166 344.22673)scale(0.1 -0.1)">
       <use xlink:href="#DejaVuSans-49"/>
       <use x="63.623047" xlink:href="#DejaVuSans-48"/>
       <use x="127.246094" xlink:href="#DejaVuSans-48"/>
      </g>
     </g>
    </g>
    <g id="xtick_28">
     <g id="line2d_40">
      <g>
       <use style="stroke:#000000;stroke-width:0.8;" x="204.575465" xlink:href="#m47e710b617" y="329.628293"/>
      </g>
     </g>
     <g id="text_40">
      <!-- 150 -->
      <g transform="translate(195.031715 344.22673)scale(0.1 -0.1)">
       <use xlink:href="#DejaVuSans-49"/>
       <use x="63.623047" xlink:href="#DejaVuSans-53"/>
       <use x="127.246094" xlink:href="#DejaVuSans-48"/>
      </g>
     </g>
    </g>
    <g id="xtick_29">
     <g id="line2d_41">
      <g>
       <use style="stroke:#000000;stroke-width:0.8;" x="253.540014" xlink:href="#m47e710b617" y="329.628293"/>
      </g>
     </g>
     <g id="text_41">
      <!-- 200 -->
      <g transform="translate(243.996264 344.22673)scale(0.1 -0.1)">
       <use xlink:href="#DejaVuSans-50"/>
       <use x="63.623047" xlink:href="#DejaVuSans-48"/>
       <use x="127.246094" xlink:href="#DejaVuSans-48"/>
      </g>
     </g>
    </g>
    <g id="xtick_30">
     <g id="line2d_42">
      <g>
       <use style="stroke:#000000;stroke-width:0.8;" x="302.504563" xlink:href="#m47e710b617" y="329.628293"/>
      </g>
     </g>
     <g id="text_42">
      <!-- 250 -->
      <g transform="translate(292.960813 344.22673)scale(0.1 -0.1)">
       <use xlink:href="#DejaVuSans-50"/>
       <use x="63.623047" xlink:href="#DejaVuSans-53"/>
       <use x="127.246094" xlink:href="#DejaVuSans-48"/>
      </g>
     </g>
    </g>
   </g>
   <g id="matplotlib.axis_10">
    <g id="ytick_9">
     <g id="line2d_43">
      <g>
       <use style="stroke:#000000;stroke-width:0.8;" x="45" xlink:href="#m21599e1e14" y="327.51898"/>
      </g>
     </g>
     <g id="text_43">
      <!-- 0 -->
      <g transform="translate(31.6375 331.318199)scale(0.1 -0.1)">
       <use xlink:href="#DejaVuSans-48"/>
      </g>
     </g>
    </g>
    <g id="ytick_10">
     <g id="line2d_44">
      <g>
       <use style="stroke:#000000;stroke-width:0.8;" x="45" xlink:href="#m21599e1e14" y="296.268579"/>
      </g>
     </g>
     <g id="text_44">
      <!-- 1 -->
      <g transform="translate(31.6375 300.067797)scale(0.1 -0.1)">
       <use xlink:href="#DejaVuSans-49"/>
      </g>
     </g>
    </g>
    <g id="text_45">
     <!-- 1e7 -->
     <g transform="translate(45 280.223415)scale(0.1 -0.1)">
      <use xlink:href="#DejaVuSans-49"/>
      <use x="63.623047" xlink:href="#DejaVuSans-101"/>
      <use x="125.146484" xlink:href="#DejaVuSans-55"/>
     </g>
    </g>
   </g>
   <g id="line2d_45">
    <path clip-path="url(#p53044b9547)" d="M 57.681818 327.51898 
L 83.143384 327.514788 
L 85.101966 325.085536 
L 86.081257 324.489499 
L 87.060548 318.158378 
L 88.039839 305.215256 
L 89.01913 297.532584 
L 89.99842 316.928532 
L 90.977711 318.445111 
L 91.957002 313.387099 
L 92.936293 312.229113 
L 93.915584 312.853897 
L 94.894875 316.22759 
L 95.874166 325.400985 
L 96.853457 326.119963 
L 97.832748 327.002622 
L 99.79133 326.891199 
L 100.770621 326.278794 
L 101.749912 326.247954 
L 102.729203 326.597851 
L 104.687785 326.670124 
L 105.667076 326.81073 
L 109.58424 326.450298 
L 110.563531 326.541574 
L 111.542822 325.734737 
L 112.522113 326.757802 
L 113.501404 326.68843 
L 114.480695 327.048858 
L 115.459986 327.115671 
L 116.439277 327.383091 
L 117.418568 327.505716 
L 120.356441 327.497467 
L 122.315023 326.15617 
L 124.273605 326.021656 
L 125.252896 326.345971 
L 126.232187 326.337988 
L 127.211478 325.822325 
L 128.190769 327.062904 
L 130.149351 327.174397 
L 132.107933 327.329088 
L 136.025097 327.396932 
L 138.962969 327.173769 
L 139.94226 326.88935 
L 140.921551 326.281902 
L 141.900842 326.409666 
L 142.880133 325.982544 
L 143.859424 325.423714 
L 144.838715 326.109365 
L 145.818006 325.869052 
L 146.797297 325.990323 
L 147.776588 326.527696 
L 148.755879 326.500614 
L 149.73517 326.971934 
L 150.714461 327.231867 
L 152.673043 327.315838 
L 153.652334 326.853834 
L 155.610916 327.107778 
L 156.590207 326.967648 
L 158.548789 327.019486 
L 159.52808 326.934962 
L 160.507371 326.996234 
L 161.486662 326.409656 
L 162.465953 326.645228 
L 163.445244 326.602275 
L 164.424535 325.383995 
L 165.403826 325.769556 
L 166.383117 325.303525 
L 167.362408 326.529527 
L 168.341699 326.926926 
L 170.300281 327.421161 
L 172.258863 327.516033 
L 177.155318 327.51046 
L 178.134609 327.045519 
L 179.1139 327.241704 
L 182.051773 326.570794 
L 184.010355 327.387535 
L 188.906809 327.51379 
L 195.761846 327.51772 
L 196.741137 327.26288 
L 197.720428 326.580247 
L 198.699719 324.308921 
L 199.67901 324.815898 
L 200.658301 326.561904 
L 201.637592 326.332864 
L 202.616883 323.568781 
L 203.596174 324.129762 
L 204.575465 326.391351 
L 206.534047 327.120024 
L 209.47192 327.514334 
L 212.409793 327.501907 
L 213.389084 327.188464 
L 214.368375 327.376997 
L 216.326957 327.478565 
L 220.244121 327.306322 
L 221.223412 326.125064 
L 222.202703 313.889156 
L 223.181994 309.663775 
L 224.161285 285.332727 
L 225.140576 291.107474 
L 226.119867 303.409436 
L 227.099158 313.29962 
L 228.078449 318.617227 
L 229.05774 322.441212 
L 230.037031 325.399778 
L 231.016322 327.023273 
L 231.995612 327.29311 
L 233.954194 327.497468 
L 237.871358 327.515991 
L 238.850649 327.451894 
L 239.82994 326.948167 
L 240.809231 326.817316 
L 241.788522 326.860555 
L 242.767813 327.21475 
L 243.747104 327.436517 
L 256.477887 327.514676 
L 257.457178 326.825607 
L 258.436469 324.991449 
L 259.41576 322.141114 
L 260.395051 320.586555 
L 261.374342 321.054148 
L 263.332924 325.102035 
L 264.312215 326.498844 
L 265.291506 327.220448 
L 266.270797 327.515754 
L 267.250088 327.518055 
L 269.20867 327.319946 
L 270.187961 327.484105 
L 272.146543 327.458009 
L 273.125834 327.392457 
L 274.105125 327.446123 
L 275.084416 327.190987 
L 276.063707 325.90353 
L 277.042998 324.021321 
L 278.022289 318.597789 
L 279.00158 320.532327 
L 279.98087 323.930357 
L 280.960161 326.392882 
L 282.918743 327.415452 
L 283.898034 327.500643 
L 284.877325 327.440704 
L 286.835907 327.518029 
L 311.318182 327.51898 
L 311.318182 327.51898 
" style="fill:none;stroke:#1f77b4;stroke-linecap:square;stroke-width:1.5;"/>
   </g>
   <g id="patch_23">
    <path d="M 45 329.628293 
L 45 283.223415 
" style="fill:none;stroke:#000000;stroke-linecap:square;stroke-linejoin:miter;stroke-width:0.8;"/>
   </g>
   <g id="patch_24">
    <path d="M 324 329.628293 
L 324 283.223415 
" style="fill:none;stroke:#000000;stroke-linecap:square;stroke-linejoin:miter;stroke-width:0.8;"/>
   </g>
   <g id="patch_25">
    <path d="M 45 329.628293 
L 324 329.628293 
" style="fill:none;stroke:#000000;stroke-linecap:square;stroke-linejoin:miter;stroke-width:0.8;"/>
   </g>
   <g id="patch_26">
    <path d="M 45 283.223415 
L 324 283.223415 
" style="fill:none;stroke:#000000;stroke-linecap:square;stroke-linejoin:miter;stroke-width:0.8;"/>
   </g>
  </g>
  <g id="axes_6">
   <g id="patch_27">
    <path d="M 45 385.314146 
L 324 385.314146 
L 324 338.909268 
L 45 338.909268 
z
" style="fill:none;"/>
   </g>
   <g id="matplotlib.axis_11">
    <g id="xtick_31">
     <g id="line2d_46">
      <g>
       <use style="stroke:#000000;stroke-width:0.8;" x="57.681818" xlink:href="#m47e710b617" y="385.314146"/>
      </g>
     </g>
     <g id="text_46">
      <!-- 0 -->
      <g transform="translate(54.500568 399.912584)scale(0.1 -0.1)">
       <use xlink:href="#DejaVuSans-48"/>
      </g>
     </g>
    </g>
    <g id="xtick_32">
     <g id="line2d_47">
      <g>
       <use style="stroke:#000000;stroke-width:0.8;" x="106.458042" xlink:href="#m47e710b617" y="385.314146"/>
      </g>
     </g>
     <g id="text_47">
      <!-- 50 -->
      <g transform="translate(100.095542 399.912584)scale(0.1 -0.1)">
       <use xlink:href="#DejaVuSans-53"/>
       <use x="63.623047" xlink:href="#DejaVuSans-48"/>
      </g>
     </g>
    </g>
    <g id="xtick_33">
     <g id="line2d_48">
      <g>
       <use style="stroke:#000000;stroke-width:0.8;" x="155.234266" xlink:href="#m47e710b617" y="385.314146"/>
      </g>
     </g>
     <g id="text_48">
      <!-- 100 -->
      <g transform="translate(145.690516 399.912584)scale(0.1 -0.1)">
       <use xlink:href="#DejaVuSans-49"/>
       <use x="63.623047" xlink:href="#DejaVuSans-48"/>
       <use x="127.246094" xlink:href="#DejaVuSans-48"/>
      </g>
     </g>
    </g>
    <g id="xtick_34">
     <g id="line2d_49">
      <g>
       <use style="stroke:#000000;stroke-width:0.8;" x="204.01049" xlink:href="#m47e710b617" y="385.314146"/>
      </g>
     </g>
     <g id="text_49">
      <!-- 150 -->
      <g transform="translate(194.46674 399.912584)scale(0.1 -0.1)">
       <use xlink:href="#DejaVuSans-49"/>
       <use x="63.623047" xlink:href="#DejaVuSans-53"/>
       <use x="127.246094" xlink:href="#DejaVuSans-48"/>
      </g>
     </g>
    </g>
    <g id="xtick_35">
     <g id="line2d_50">
      <g>
       <use style="stroke:#000000;stroke-width:0.8;" x="252.786713" xlink:href="#m47e710b617" y="385.314146"/>
      </g>
     </g>
     <g id="text_50">
      <!-- 200 -->
      <g transform="translate(243.242963 399.912584)scale(0.1 -0.1)">
       <use xlink:href="#DejaVuSans-50"/>
       <use x="63.623047" xlink:href="#DejaVuSans-48"/>
       <use x="127.246094" xlink:href="#DejaVuSans-48"/>
      </g>
     </g>
    </g>
    <g id="xtick_36">
     <g id="line2d_51">
      <g>
       <use style="stroke:#000000;stroke-width:0.8;" x="301.562937" xlink:href="#m47e710b617" y="385.314146"/>
      </g>
     </g>
     <g id="text_51">
      <!-- 250 -->
      <g transform="translate(292.019187 399.912584)scale(0.1 -0.1)">
       <use xlink:href="#DejaVuSans-50"/>
       <use x="63.623047" xlink:href="#DejaVuSans-53"/>
       <use x="127.246094" xlink:href="#DejaVuSans-48"/>
      </g>
     </g>
    </g>
   </g>
   <g id="matplotlib.axis_12">
    <g id="ytick_11">
     <g id="line2d_52">
      <g>
       <use style="stroke:#000000;stroke-width:0.8;" x="45" xlink:href="#m21599e1e14" y="383.204834"/>
      </g>
     </g>
     <g id="text_52">
      <!-- 0 -->
      <g transform="translate(31.6375 387.004052)scale(0.1 -0.1)">
       <use xlink:href="#DejaVuSans-48"/>
      </g>
     </g>
    </g>
    <g id="ytick_12">
     <g id="line2d_53">
      <g>
       <use style="stroke:#000000;stroke-width:0.8;" x="45" xlink:href="#m21599e1e14" y="356.649541"/>
      </g>
     </g>
     <g id="text_53">
      <!-- 5 -->
      <g transform="translate(31.6375 360.448759)scale(0.1 -0.1)">
       <use xlink:href="#DejaVuSans-53"/>
      </g>
     </g>
    </g>
    <g id="text_54">
     <!-- 1e6 -->
     <g transform="translate(45 335.909268)scale(0.1 -0.1)">
      <use xlink:href="#DejaVuSans-49"/>
      <use x="63.623047" xlink:href="#DejaVuSans-101"/>
      <use x="125.146484" xlink:href="#DejaVuSans-54"/>
     </g>
    </g>
   </g>
   <g id="line2d_54">
    <path clip-path="url(#p56c7e74f4b)" d="M 57.681818 383.204834 
L 83.045455 383.18053 
L 84.996503 381.493848 
L 85.972028 381.249934 
L 86.947552 380.286067 
L 87.923077 378.332369 
L 88.898601 374.938899 
L 89.874126 375.19054 
L 90.84965 372.286739 
L 91.825175 372.579378 
L 92.800699 366.368947 
L 93.776224 377.561233 
L 94.751748 380.358754 
L 95.727273 382.153347 
L 96.702797 382.685132 
L 97.678322 383.078773 
L 98.653846 383.198819 
L 102.555944 383.156116 
L 104.506993 382.425277 
L 105.482517 382.836797 
L 106.458042 382.862728 
L 107.433566 380.864875 
L 108.409091 380.882751 
L 109.384615 380.608661 
L 110.36014 380.792131 
L 111.335664 381.743254 
L 112.311189 381.711629 
L 113.286713 380.408578 
L 114.262238 382.381263 
L 115.237762 382.692636 
L 116.213287 382.665067 
L 117.188811 383.002382 
L 119.13986 383.077484 
L 120.115385 382.233735 
L 121.090909 381.620813 
L 122.066434 381.825053 
L 123.041958 381.878866 
L 124.017483 382.301249 
L 125.968531 382.850413 
L 128.895105 383.004901 
L 133.772727 383.186291 
L 143.527972 383.177437 
L 144.503497 380.188554 
L 145.479021 378.157144 
L 146.454545 377.925445 
L 147.43007 377.078045 
L 148.405594 370.229344 
L 149.381119 377.265556 
L 150.356643 381.081641 
L 151.332168 382.618183 
L 153.283217 383.127618 
L 155.234266 383.199869 
L 156.20979 383.159568 
L 157.185315 382.863778 
L 158.160839 383.088142 
L 159.136364 382.960606 
L 160.111888 381.888867 
L 161.087413 381.168844 
L 162.062937 376.808602 
L 163.038462 381.895089 
L 164.013986 382.287343 
L 166.940559 382.98875 
L 167.916084 383.049113 
L 168.891608 382.66831 
L 169.867133 381.735315 
L 170.842657 381.215237 
L 171.818182 381.535796 
L 172.793706 382.256089 
L 173.769231 382.611296 
L 176.695804 382.841828 
L 178.646853 383.072298 
L 182.548951 383.086362 
L 186.451049 383.183418 
L 194.255245 383.197547 
L 195.230769 382.380618 
L 197.181818 381.417822 
L 198.157343 380.357109 
L 199.132867 378.367212 
L 200.108392 378.480521 
L 201.083916 380.059724 
L 202.059441 380.945047 
L 203.034965 382.166586 
L 204.01049 383.027919 
L 205.961538 383.19103 
L 208.888112 383.185685 
L 209.863636 370.954265 
L 210.839161 351.148809 
L 211.814685 341.018581 
L 213.765734 359.975131 
L 214.741259 365.486618 
L 215.716783 376.14114 
L 216.692308 375.071431 
L 217.667832 377.711849 
L 218.643357 378.657081 
L 220.594406 381.419694 
L 221.56993 379.042794 
L 222.545455 382.24345 
L 224.496503 383.039106 
L 226.447552 383.199484 
L 228.398601 383.189815 
L 229.374126 383.013841 
L 230.34965 383.112129 
L 232.300699 371.170259 
L 233.276224 366.090796 
L 234.251748 367.883779 
L 235.227273 371.807021 
L 236.202797 373.548765 
L 237.178322 375.587534 
L 238.153846 381.163328 
L 239.129371 382.9667 
L 240.104895 383.178892 
L 246.933566 383.195796 
L 247.909091 382.95259 
L 248.884615 380.589537 
L 249.86014 380.384814 
L 250.835664 379.287815 
L 251.811189 367.349493 
L 252.786713 360.066802 
L 253.762238 372.551499 
L 254.737762 381.241204 
L 255.713287 382.945511 
L 257.664336 383.199447 
L 259.615385 383.147433 
L 260.590909 382.362063 
L 261.566434 369.743825 
L 262.541958 368.904539 
L 263.517483 365.157962 
L 264.493007 368.818223 
L 265.468531 379.502725 
L 266.444056 381.482926 
L 267.41958 382.447663 
L 268.395105 382.403236 
L 269.370629 382.846921 
L 270.346154 383.137768 
L 273.272727 383.202895 
L 276.199301 382.865069 
L 277.174825 380.568761 
L 278.15035 375.808753 
L 279.125874 374.235301 
L 280.101399 370.564128 
L 281.076923 371.291286 
L 282.052448 371.677801 
L 283.027972 369.568343 
L 285.954545 377.812543 
L 286.93007 379.60553 
L 287.905594 380.762366 
L 288.881119 382.323886 
L 289.856643 382.931535 
L 290.832168 383.114871 
L 299.611888 383.204834 
L 311.318182 383.204834 
L 311.318182 383.204834 
" style="fill:none;stroke:#1f77b4;stroke-linecap:square;stroke-width:1.5;"/>
   </g>
   <g id="patch_28">
    <path d="M 45 385.314146 
L 45 338.909268 
" style="fill:none;stroke:#000000;stroke-linecap:square;stroke-linejoin:miter;stroke-width:0.8;"/>
   </g>
   <g id="patch_29">
    <path d="M 324 385.314146 
L 324 338.909268 
" style="fill:none;stroke:#000000;stroke-linecap:square;stroke-linejoin:miter;stroke-width:0.8;"/>
   </g>
   <g id="patch_30">
    <path d="M 45 385.314146 
L 324 385.314146 
" style="fill:none;stroke:#000000;stroke-linecap:square;stroke-linejoin:miter;stroke-width:0.8;"/>
   </g>
   <g id="patch_31">
    <path d="M 45 338.909268 
L 324 338.909268 
" style="fill:none;stroke:#000000;stroke-linecap:square;stroke-linejoin:miter;stroke-width:0.8;"/>
   </g>
  </g>
  <g id="axes_7">
   <g id="patch_32">
    <path d="M 45 441 
L 324 441 
L 324 394.595122 
L 45 394.595122 
z
" style="fill:none;"/>
   </g>
   <g id="matplotlib.axis_13">
    <g id="xtick_37">
     <g id="line2d_55">
      <g>
       <use style="stroke:#000000;stroke-width:0.8;" x="57.681818" xlink:href="#m47e710b617" y="441"/>
      </g>
     </g>
     <g id="text_55">
      <!-- 0 -->
      <g transform="translate(54.500568 455.598438)scale(0.1 -0.1)">
       <use xlink:href="#DejaVuSans-48"/>
      </g>
     </g>
    </g>
    <g id="xtick_38">
     <g id="line2d_56">
      <g>
       <use style="stroke:#000000;stroke-width:0.8;" x="106.458042" xlink:href="#m47e710b617" y="441"/>
      </g>
     </g>
     <g id="text_56">
      <!-- 50 -->
      <g transform="translate(100.095542 455.598438)scale(0.1 -0.1)">
       <use xlink:href="#DejaVuSans-53"/>
       <use x="63.623047" xlink:href="#DejaVuSans-48"/>
      </g>
     </g>
    </g>
    <g id="xtick_39">
     <g id="line2d_57">
      <g>
       <use style="stroke:#000000;stroke-width:0.8;" x="155.234266" xlink:href="#m47e710b617" y="441"/>
      </g>
     </g>
     <g id="text_57">
      <!-- 100 -->
      <g transform="translate(145.690516 455.598438)scale(0.1 -0.1)">
       <use xlink:href="#DejaVuSans-49"/>
       <use x="63.623047" xlink:href="#DejaVuSans-48"/>
       <use x="127.246094" xlink:href="#DejaVuSans-48"/>
      </g>
     </g>
    </g>
    <g id="xtick_40">
     <g id="line2d_58">
      <g>
       <use style="stroke:#000000;stroke-width:0.8;" x="204.01049" xlink:href="#m47e710b617" y="441"/>
      </g>
     </g>
     <g id="text_58">
      <!-- 150 -->
      <g transform="translate(194.46674 455.598438)scale(0.1 -0.1)">
       <use xlink:href="#DejaVuSans-49"/>
       <use x="63.623047" xlink:href="#DejaVuSans-53"/>
       <use x="127.246094" xlink:href="#DejaVuSans-48"/>
      </g>
     </g>
    </g>
    <g id="xtick_41">
     <g id="line2d_59">
      <g>
       <use style="stroke:#000000;stroke-width:0.8;" x="252.786713" xlink:href="#m47e710b617" y="441"/>
      </g>
     </g>
     <g id="text_59">
      <!-- 200 -->
      <g transform="translate(243.242963 455.598438)scale(0.1 -0.1)">
       <use xlink:href="#DejaVuSans-50"/>
       <use x="63.623047" xlink:href="#DejaVuSans-48"/>
       <use x="127.246094" xlink:href="#DejaVuSans-48"/>
      </g>
     </g>
    </g>
    <g id="xtick_42">
     <g id="line2d_60">
      <g>
       <use style="stroke:#000000;stroke-width:0.8;" x="301.562937" xlink:href="#m47e710b617" y="441"/>
      </g>
     </g>
     <g id="text_60">
      <!-- 250 -->
      <g transform="translate(292.019187 455.598438)scale(0.1 -0.1)">
       <use xlink:href="#DejaVuSans-50"/>
       <use x="63.623047" xlink:href="#DejaVuSans-53"/>
       <use x="127.246094" xlink:href="#DejaVuSans-48"/>
      </g>
     </g>
    </g>
   </g>
   <g id="matplotlib.axis_14">
    <g id="ytick_13">
     <g id="line2d_61">
      <g>
       <use style="stroke:#000000;stroke-width:0.8;" x="45" xlink:href="#m21599e1e14" y="438.890687"/>
      </g>
     </g>
     <g id="text_61">
      <!-- 0 -->
      <g transform="translate(31.6375 442.689906)scale(0.1 -0.1)">
       <use xlink:href="#DejaVuSans-48"/>
      </g>
     </g>
    </g>
    <g id="ytick_14">
     <g id="line2d_62">
      <g>
       <use style="stroke:#000000;stroke-width:0.8;" x="45" xlink:href="#m21599e1e14" y="414.415215"/>
      </g>
     </g>
     <g id="text_62">
      <!-- 2 -->
      <g transform="translate(31.6375 418.214434)scale(0.1 -0.1)">
       <use xlink:href="#DejaVuSans-50"/>
      </g>
     </g>
    </g>
    <g id="text_63">
     <!-- 1e7 -->
     <g transform="translate(45 391.595122)scale(0.1 -0.1)">
      <use xlink:href="#DejaVuSans-49"/>
      <use x="63.623047" xlink:href="#DejaVuSans-101"/>
      <use x="125.146484" xlink:href="#DejaVuSans-55"/>
     </g>
    </g>
   </g>
   <g id="line2d_63">
    <path clip-path="url(#pbdfca56688)" d="M 57.681818 438.890687 
L 101.58042 438.815903 
L 103.531469 438.77591 
L 105.482517 438.876243 
L 106.458042 434.722605 
L 107.433566 423.952101 
L 108.409091 416.834051 
L 109.384615 396.704435 
L 110.36014 408.531405 
L 111.335664 422.639739 
L 112.311189 432.204125 
L 113.286713 437.155891 
L 114.262238 438.602014 
L 115.237762 438.751349 
L 123.041958 438.889686 
L 124.993007 438.616364 
L 126.944056 438.369235 
L 127.91958 438.362851 
L 128.895105 438.589166 
L 130.846154 438.750027 
L 143.527972 438.873936 
L 145.479021 438.821903 
L 147.43007 438.809881 
L 148.405594 438.172762 
L 149.381119 436.407655 
L 150.356643 429.990176 
L 151.332168 431.487171 
L 152.307692 427.849491 
L 153.283217 430.679857 
L 155.234266 433.56594 
L 156.20979 435.223778 
L 157.185315 437.577219 
L 158.160839 438.368934 
L 160.111888 438.768212 
L 161.087413 438.846341 
L 164.013986 438.745975 
L 168.891608 438.856769 
L 169.867133 438.79661 
L 170.842657 438.127943 
L 171.818182 438.366791 
L 173.769231 438.527627 
L 174.744755 438.604225 
L 175.72028 438.412017 
L 176.695804 438.486059 
L 177.671329 438.786964 
L 179.622378 438.863793 
L 181.573427 438.627278 
L 183.524476 438.791757 
L 194.255245 438.885265 
L 200.108392 438.734759 
L 201.083916 438.602022 
L 202.059441 438.706826 
L 204.01049 438.63183 
L 204.986014 437.777227 
L 205.961538 437.23334 
L 206.937063 438.575751 
L 207.912587 438.43599 
L 209.863636 438.834428 
L 215.716783 438.877862 
L 220.594406 438.888528 
L 221.56993 438.705794 
L 222.545455 438.28918 
L 223.520979 438.256374 
L 224.496503 438.031218 
L 225.472028 437.989032 
L 226.447552 437.605367 
L 227.423077 437.597739 
L 228.398601 438.256281 
L 230.34965 438.745734 
L 232.300699 438.793546 
L 240.104895 438.792104 
L 242.055944 438.773283 
L 243.031469 438.658508 
L 244.982517 438.750159 
L 256.688811 438.889045 
L 257.664336 438.737744 
L 258.63986 438.387269 
L 260.590909 436.827775 
L 263.517483 438.390066 
L 264.493007 438.515309 
L 266.444056 438.518272 
L 270.346154 438.866916 
L 278.15035 438.890687 
L 311.318182 438.890687 
L 311.318182 438.890687 
" style="fill:none;stroke:#1f77b4;stroke-linecap:square;stroke-width:1.5;"/>
   </g>
   <g id="patch_33">
    <path d="M 45 441 
L 45 394.595122 
" style="fill:none;stroke:#000000;stroke-linecap:square;stroke-linejoin:miter;stroke-width:0.8;"/>
   </g>
   <g id="patch_34">
    <path d="M 324 441 
L 324 394.595122 
" style="fill:none;stroke:#000000;stroke-linecap:square;stroke-linejoin:miter;stroke-width:0.8;"/>
   </g>
   <g id="patch_35">
    <path d="M 45 441 
L 324 441 
" style="fill:none;stroke:#000000;stroke-linecap:square;stroke-linejoin:miter;stroke-width:0.8;"/>
   </g>
   <g id="patch_36">
    <path d="M 45 394.595122 
L 324 394.595122 
" style="fill:none;stroke:#000000;stroke-linecap:square;stroke-linejoin:miter;stroke-width:0.8;"/>
   </g>
  </g>
 </g>
 <defs>
  <clipPath id="p901a3d1365">
   <rect height="46.404878" width="279" x="45" y="60.48"/>
  </clipPath>
  <clipPath id="p6630401b0d">
   <rect height="46.404878" width="279" x="45" y="116.165854"/>
  </clipPath>
  <clipPath id="pb1339f438f">
   <rect height="46.404878" width="279" x="45" y="171.851707"/>
  </clipPath>
  <clipPath id="p278fa8ab54">
   <rect height="46.404878" width="279" x="45" y="227.537561"/>
  </clipPath>
  <clipPath id="p53044b9547">
   <rect height="46.404878" width="279" x="45" y="283.223415"/>
  </clipPath>
  <clipPath id="p56c7e74f4b">
   <rect height="46.404878" width="279" x="45" y="338.909268"/>
  </clipPath>
  <clipPath id="pbdfca56688">
   <rect height="46.404878" width="279" x="45" y="394.595122"/>
  </clipPath>
 </defs>
</svg>
